<?xml version="1.0" encoding="iso-8859-1"?>
<!-- Generator: Adobe Illustrator 16.0.0, SVG Export Plug-In . SVG Version: 6.00 Build 0)  -->
<!DOCTYPE svg PUBLIC "-//W3C//DTD SVG 1.1//EN" "http://www.w3.org/Graphics/SVG/1.1/DTD/svg11.dtd">
<svg version="1.1" id="Layer_1" xmlns="http://www.w3.org/2000/svg" xmlns:xlink="http://www.w3.org/1999/xlink" x="0px" y="0px"
	 width="25.301px" height="28.873px" viewBox="0 0 25.301 28.873" style="enable-background:new 0 0 25.301 28.873;"
	 xml:space="preserve">
<path d="M5.352,21.847l-0.355,7.026h10.137l0.777-3.231c0,0,0.439,0.738,3.059,0.96s2.3-2.976,2.3-2.976s1.744-0.769,1.744-1.346
	s-1.032-1.322-1.032-1.322s1.11,0.2,1.512-0.267c0.399-0.467-0.49-2.155-0.49-2.155s1.368-0.034,2.174-0.922
	c0.805-0.886-2.539-3.508-2.539-5.198C24.531,3.147,17-1.095,8.642,0.24C0.282,1.573,0.596,6.63,0.104,9.043
	C-0.873,15.089,5.352,21.847,5.352,21.847z"/>
<g>
</g>
<g>
</g>
<g>
</g>
<g>
</g>
<g>
</g>
<g>
</g>
<g>
</g>
<g>
</g>
<g>
</g>
<g>
</g>
<g>
</g>
<g>
</g>
<g>
</g>
<g>
</g>
<g>
</g>
</svg>
