<?xml version="1.0" encoding="utf-8"?>
<!-- Generator: Adobe Illustrator 17.1.0, SVG Export Plug-In . SVG Version: 6.00 Build 0)  -->
<!DOCTYPE svg PUBLIC "-//W3C//DTD SVG 1.1//EN" "http://www.w3.org/Graphics/SVG/1.1/DTD/svg11.dtd">
<svg version="1.1" id="Layer_1" xmlns="http://www.w3.org/2000/svg" xmlns:xlink="http://www.w3.org/1999/xlink" x="0px" y="0px"
	 viewBox="0 0 24 24" enable-background="new 0 0 24 24" xml:space="preserve">
<path fill="#333333" d="M1.5,20.856c0.369-0.218,4.75-1.772,4.75-1.772s2.187,2.328,6.359,2.328c2.948,0,4.643-1.445,5.009-2.273
	C21.124,20.969,21.231,24,21.231,24H0C0,23.654,0.159,21.649,1.5,20.856z M7.504,18.329c0,0,1.965,1.939,5.009,1.939
	c1.869,0,3.66-1.111,3.988-1.785c-1.002-0.539-2.215-1.369-2.106-3.022c0.072-1.096,1.209-1.642,2.25-1.642
	c1.01,0,1.572-0.103,1.875-0.507c0.423-0.563,0.678-1.933,0.779-2.409c0,0,0.562-0.288,0.65-0.502
	c0.134-0.327-1.082-1.126-0.948-2.543c-1.516,1.094-4.972,2.37-7.234,2.812C10.982,14.245,8.89,17.328,7.504,18.329z M12.056,5.773
	c3.9-0.677,5.693-3.352,5.693-3.352s-1.59-3.073-6.325-2.25S6.851,5.286,6.851,5.286C7.35,5.637,8.564,6.38,12.056,5.773z
	 M2.016,8.92c0,0.336,2.833,1.821,9.866,0.5c7.054-1.325,12.215-6.186,12.073-6.791c-0.296-1.264-4.227-0.15-4.227-0.15
	s-2.545,4.023-7.551,4.901C8.024,8.109,5.914,6.84,5.914,6.84C3.409,7.538,2.016,8.206,2.016,8.92z"/>
<path fill="#333333" d="M10.068,10.884c0,0-0.985,6.824-7.986,8.271c-0.149-0.396-0.297-2.129,1.485-2.822
	c-0.545-1.287-0.694-3.651,1.385-5.285C6.49,11.117,9.222,10.983,10.068,10.884z"/>
</svg>
