<?xml version="1.0" standalone="no"?><!DOCTYPE svg PUBLIC "-//W3C//DTD SVG 1.1//EN" "http://www.w3.org/Graphics/SVG/1.1/DTD/svg11.dtd"><svg t="1509502565852" class="icon" style="" viewBox="0 0 1024 1024" version="1.1" xmlns="http://www.w3.org/2000/svg" p-id="1424" xmlns:xlink="http://www.w3.org/1999/xlink" width="200" height="200"><defs><style type="text/css"></style></defs><path d="M891.48928 771.36896c-58.25024-45.35296-226.17088-120.70912-226.17088-120.70912l-109.0304 200.4992-16.16384-47.75424 29.83424-60.288-59.71456-60.29312L450.51392 743.1168l29.8752 60.288-19.25632 48.89088-105.99424-201.63584c0 0-167.88992 75.38176-226.15552 120.70912-58.25536 45.3376-83.97824 183.00416-83.97824 183.00416l932.096 0C977.10592 954.37312 960.04096 824.74496 891.48928 771.36896L891.48928 771.36896 891.48928 771.36896 891.48928 771.36896zM515.79392 633.44128c136.85248-0.22528 228.05504-182.27712 228.05504-280.27904 0-98.00192-0.39424-272.22528-228.05504-272.22528C288.1536 80.93184 287.744 255.18592 287.744 353.18784 287.744 451.18976 378.97216 633.66144 515.79392 633.44128L515.79392 633.44128 515.79392 633.44128 515.79392 633.44128zM515.79392 633.44128" p-id="1425"></path></svg>