
<svg width="135px" height="131px" viewBox="-8 -33 135 131" version="1.1" xmlns="http://www.w3.org/2000/svg" xmlns:xlink="http://www.w3.org/1999/xlink">
    <!-- Generator: Sketch 42 (36781) - http://www.bohemiancoding.com/sketch -->
    <desc>Created with Sketch.</desc>
    <defs></defs>
    <path d="M56.1096719,58.7169828 C64.2479305,61.9120351 72.6892408,63.5018176 83.6132906,63.5018177 C94.5373404,63.5018178 129.121895,58.3334943 125.463991,30.3130363 C121.806087,2.29257828 96.4046329,2.98876007 89.6277253,2.28112762 C75.7621067,0.833304782 59.5401801,5.4977004 53.9974658,7.40404772 C63.4677736,6.18986594 70.1237753,6.63937594 75.3487544,7.82045675 C80.5737335,9.00153756 84.8276114,11.150617 83.6132903,14.5544903 C82.3989692,17.9583636 73.8523889,19.520242 64.2479278,18.8497569 C54.6434667,18.1792718 44.5698827,15.1105346 34.6743375,15.8148443 C24.7787923,16.5191539 17.0340617,20.9174546 11.6655212,26.4350824 C17.0340617,25.4723608 22.4369786,25.8069896 27.2457689,26.7555245 C32.0545592,27.7040595 36.7396996,31.2172506 35.9374816,34.3774512 C35.1352635,37.5376518 31.4075001,40.4607647 21.4827517,40.4607635 C11.5580033,40.4607624 1.62150304,38.1596251 -3.97359695,35.9267457 C-0.780630432,39.90259 5.85225384,46.5940637 16.0434848,50.1516541 C26.2347157,53.7092445 37.9727171,54.5963652 49.2108064,52.3740098 C60.4488956,50.1516545 71.5925125,49.4151888 74.2821442,51.6925024 C76.9717758,53.969816 74.6683832,57.4004301 71.4023535,58.0587064 C68.1363238,58.7169828 63.4089268,59.3861054 56.1096719,58.7169828 Z" id="Path-19-Copy" stroke="#F67F23" stroke-width="2" fill-opacity="0.8" fill="#F8E81C" fill-rule="evenodd"></path>
</svg>