<svg width="286px" height="117px" viewBox="-1 -1 286 117" version="1.1" xmlns="http://www.w3.org/2000/svg" xmlns:xlink="http://www.w3.org/1999/xlink">
    <!-- Generator: Sketch 42 (36781) - http://www.bohemiancoding.com/sketch -->
    <desc>Created with Sketch.</desc>
    <defs></defs>
    <g id="fire" stroke="none" stroke-width="1" fill="none" fill-rule="evenodd" transform="translate(140.317099, 56.953642) rotate(-270.000000) translate(-140.317099, -56.953642) translate(83.363456, -83.363456)">
        <path d="M70.0572075,0 C65.8937617,13.8041918 63.1667671,19.5575009 63.166767,33.9048106 C63.1667669,48.2521203 71.6054292,57.2889466 71.6054294,69.4737703 C75.2003616,59.413945 78.3862696,50.6516013 77.0646132,39.1747703 C75.7429569,27.6979392 71.8179353,23.4489478 70.9375714,16.6454992 C70.0572074,9.84205052 70.0572074,7.88923638 70.0572075,0 Z" id="Path-8" stroke="#6D727F" fill="#D91409"></path>
        <path d="M54.0991352,114.335163 C52.3238035,104.865555 50.9514243,100.760058 51.8657986,91.6105613 C52.7801729,82.4610648 58.7375653,78.0489672 59.5141215,70.2785207 C61.1655372,77.2692841 62.6388024,83.3671492 61.0645274,90.4745332 C59.4902525,97.5819172 56.7164126,99.6632635 55.7213978,103.861001 C54.7263829,108.058738 54.6019273,109.304077 54.0991352,114.335163 L54.0991352,114.335163 Z" id="Path-8-Copy-7" stroke="#6D727F" fill="#D91409"></path>
        <path d="M8.8629644,166.536618 C2.94475919,179.757714 1.76840647e-07,193.471135 0,211.217918 C-1.76840646e-07,228.9647 9.5733013,285.149411 61.4756812,279.206924 C113.378061,273.264436 112.088522,231.998231 113.399271,220.988732 C116.081078,198.463193 107.441204,172.109687 103.910071,163.105211 C106.159103,178.490301 105.326475,189.303381 103.138755,197.791677 C100.951035,206.279973 96.970289,213.190656 90.6652841,211.217917 C84.3602792,209.245179 81.467207,195.36074 82.7091487,179.757709 C83.9510903,164.154679 89.6353214,147.789529 88.3307266,131.713615 C87.0261318,115.637701 78.8791458,103.055915 68.6588271,94.3343951 C70.4420792,103.055915 69.8222453,111.833282 68.0652711,119.645454 C66.3082969,127.457626 59.8008023,135.068921 53.9471531,133.765669 C48.0935039,132.462417 42.679013,126.406439 42.679015,110.283083 C42.6790171,94.1597257 46.9414208,78.0172774 51.0773901,68.9276975 C43.7129215,74.1148656 31.3182843,84.8903891 24.7285488,101.446663 C18.1388132,118.002937 16.495597,137.072033 20.6120725,155.328992 C24.728548,173.585951 26.0927058,191.689433 21.8744308,196.058903 C17.6561559,200.428374 11.3016189,196.686372 10.0822917,191.380509 C8.8629644,186.074645 7.62354642,178.394701 8.8629644,166.536618 Z" id="Path-19-Copy" stroke="#6D727F" fill="#D91409"></path>
        <path d="M32.4008257,220.666549 C29.4348569,227.292436 27.9590609,234.165057 27.9590608,243.059038 C27.9590607,251.953018 32.7568183,280.110558 58.7682246,277.13242 C84.779631,274.154282 84.133365,253.473303 84.7902606,247.955781 C86.1342754,236.666877 81.8043144,223.459549 80.0346511,218.946865 C81.1617767,226.657259 80.7444963,232.076344 79.6480984,236.33034 C78.5517004,240.584336 76.5567089,244.047695 73.3968914,243.059037 C70.237074,242.070379 68.7871814,235.112051 69.4095931,227.292434 C70.0320048,219.472816 72.8807151,211.271255 72.2269041,203.214646 C71.5730931,195.158038 67.4901481,188.852548 62.3681313,184.48167 C63.2618263,188.852548 62.9511902,193.251415 62.0706647,197.166565 C61.1901392,201.081714 57.928842,204.896192 54.9952261,204.243054 C52.0616102,203.589916 49.3480829,200.554901 49.3480839,192.474517 C49.348085,184.394132 51.484232,176.30418 53.5570151,171.748844 C49.8662367,174.348447 43.654538,179.74871 40.3520249,188.046055 C37.0495118,196.3434 36.2259973,205.900072 38.2890109,215.049733 C40.3520245,224.199394 41.0356861,233.272139 38.9216546,235.461943 C36.8076232,237.651748 33.6229823,235.776406 33.011904,233.117318 C32.4008257,230.45823 31.7796787,226.609348 32.4008257,220.666549 Z" id="Path-19-Copy-2" stroke="#F67F23" stroke-width="2" fill-opacity="0.8" fill="#F8E81C"></path>
        <path d="M34.479014,114.879496 C31.7908256,123.79237 30.0301024,127.507077 30.0301023,136.770623 C30.0301023,146.034169 35.4786456,151.868925 35.4786456,159.736231 C37.7997652,153.240961 39.8567923,147.583428 39.0034459,140.173248 C38.1500996,132.763067 35.6158531,130.019645 35.0474336,125.626901 C34.479014,121.234157 34.479014,119.973294 34.479014,114.879496 Z" id="Path-8-Copy" stroke="#F88708" stroke-width="2" fill-opacity="0.800000012" fill="#FFEF1C"></path>
    </g>
</svg>