
<svg width="800px" height="480px" viewBox="0 0 800 480" version="1.1" xmlns="http://www.w3.org/2000/svg" xmlns:xlink="http://www.w3.org/1999/xlink">
    <!-- Generator: Sketch 42 (36781) - http://www.bohemiancoding.com/sketch -->
    <desc>Created with Sketch.</desc>
    <defs>
        <path d="M112.012872,348.311773 L112.012872,344.277441 L95.8404581,344.277441 L95.8404581,283.278689 L0.998751561,283.278689 L37.6798137,373.697482 C33.2997337,376.843631 30.4524709,381.944097 30.4524709,387.70113 C30.4524709,396.36447 36.9001107,403.54101 45.3161699,404.808425 L45.2147396,404.894344 L17.6040673,421.988746 L17.6040673,465.342177 L27.3836985,479.560941 L726.732426,479.560941 L726.732426,411.057733 L173.861651,411.057733 L173.861651,347.036705 L113.518143,347.036705 L112.012872,348.311773 Z" id="path-1"></path>
        <mask id="mask-2" maskContentUnits="userSpaceOnUse" maskUnits="objectBoundingBox" x="0" y="0" width="725.733674" height="196.282252" fill="white">
            <use xlink:href="#path-1"></use>
        </mask>
        <linearGradient x1="50%" y1="0%" x2="50%" y2="100%" id="linearGradient-3">
            <stop stop-color="#FBDA61" offset="0%"></stop>
            <stop stop-color="#F76B1C" offset="100%"></stop>
        </linearGradient>
        <rect id="path-4" x="728.269215" y="331.47541" width="32.8100815" height="148.279546"></rect>
        <mask id="mask-5" maskContentUnits="userSpaceOnUse" maskUnits="objectBoundingBox" x="0" y="0" width="32.8100815" height="148.279546" fill="white">
            <use xlink:href="#path-4"></use>
        </mask>
        <rect id="path-6" x="0" y="0" width="338.196224" height="100.447435" rx="10"></rect>
        <mask id="mask-7" maskContentUnits="userSpaceOnUse" maskUnits="objectBoundingBox" x="0" y="0" width="338.196224" height="100.447435" fill="white">
            <use xlink:href="#path-6"></use>
        </mask>
        <path d="M270.264163,7.17481676 L322.629201,7.17481676 C327.044975,7.17481676 330.624667,10.7647171 330.624667,15.178093 L330.624667,85.2693417 C330.624667,89.6894291 327.049033,93.2726179 322.629201,93.2726179 L270.264163,93.2726179 L249.86139,93.2726179 L249.86139,7.17481676 L270.264163,7.17481676 Z" id="path-8"></path>
        <mask id="mask-9" maskContentUnits="userSpaceOnUse" maskUnits="objectBoundingBox" x="0" y="0" width="80.7632775" height="86.0978012" fill="white">
            <use xlink:href="#path-8"></use>
        </mask>
        <path d="M60.5724581,105.230646 L68.1440153,105.230646 L68.1440153,93.2726179 L103.477949,93.2726179 L103.477949,7.17481676 L67.9320609,7.17481676 L15.5670234,7.17481676 C11.1512494,7.17481676 7.57155726,10.7647171 7.57155726,15.178093 L7.57155726,85.2693417 C7.57155726,89.6894291 11.1471908,93.2726179 15.5670234,93.2726179 L42.9054911,93.2726179 L42.9054911,105.230646 L50.4770484,105.230646 L50.4770484,121.971885 L60.5724581,121.971885 L60.5724581,105.230646 Z" id="path-10"></path>
        <mask id="mask-11" maskContentUnits="userSpaceOnUse" maskUnits="objectBoundingBox" x="0" y="0" width="95.906392" height="114.797068" fill="white">
            <use xlink:href="#path-10"></use>
        </mask>
        <path d="M204.432046,105.230646 L196.860489,105.230646 L196.860489,93.2726179 L176.669669,93.2726179 L176.669669,7.17481676 L242.289832,7.17481676 L242.289832,93.2726179 L222.099013,93.2726179 L222.099013,105.230646 L214.527456,105.230646 L214.527456,121.971885 L204.432046,121.971885 L204.432046,105.230646 Z" id="path-12"></path>
        <mask id="mask-13" maskContentUnits="userSpaceOnUse" maskUnits="objectBoundingBox" x="0" y="0" width="65.6201629" height="114.797068" fill="white">
            <use xlink:href="#path-12"></use>
        </mask>
        <path d="M136.288031,105.230646 L128.716473,105.230646 L128.716473,93.2726179 L111.049506,93.2726179 L111.049506,7.17481676 L169.098112,7.17481676 L169.098112,93.2726179 L153.954998,93.2726179 L153.954998,105.230646 L146.38344,105.230646 L146.38344,121.971885 L136.288031,121.971885 L136.288031,105.230646 Z" id="path-14"></path>
        <mask id="mask-15" maskContentUnits="userSpaceOnUse" maskUnits="objectBoundingBox" x="0" y="0" width="58.0486057" height="114.797068" fill="white">
            <use xlink:href="#path-14"></use>
        </mask>
        <linearGradient x1="50%" y1="0%" x2="50%" y2="100%" id="linearGradient-16">
            <stop stop-color="#D6FFFF" offset="0%"></stop>
            <stop stop-color="#0755B8" offset="100%"></stop>
        </linearGradient>
        <path d="M0,0 L7.57155726,0 L7.57155726,110.013857 L0,110.013857 L0,0 Z M12.6192621,0 L20.1908194,0 L20.1908194,110.013857 L12.6192621,110.013857 L12.6192621,0 Z M25.2385242,0 L32.8100815,0 L32.8100815,110.013857 L25.2385242,110.013857 L25.2385242,0 Z M37.8577863,0 L45.4293436,0 L45.4293436,110.013857 L37.8577863,110.013857 L37.8577863,0 Z M50.4770484,0 L58.0486057,0 L58.0486057,110.013857 L50.4770484,110.013857 L50.4770484,0 Z M63.0963105,0 L70.6678678,0 L70.6678678,110.013857 L63.0963105,110.013857 L63.0963105,0 Z M75.7155726,0 L83.2871299,0 L83.2871299,110.013857 L75.7155726,110.013857 L75.7155726,0 Z M88.3348347,0 L95.906392,0 L95.906392,110.013857 L88.3348347,110.013857 L88.3348347,0 Z M100.954097,0 L108.525654,0 L108.525654,110.013857 L100.954097,110.013857 L100.954097,0 Z M113.573359,0 L121.144916,0 L121.144916,110.013857 L113.573359,110.013857 L113.573359,0 Z M126.192621,0 L133.764178,0 L133.764178,110.013857 L126.192621,110.013857 L126.192621,0 Z M138.811883,0 L146.38344,0 L146.38344,110.013857 L138.811883,110.013857 L138.811883,0 Z M151.431145,0 L159.002702,0 L159.002702,110.013857 L151.431145,110.013857 L151.431145,0 Z M164.050407,0 L171.621965,0 L171.621965,110.013857 L164.050407,110.013857 L164.050407,0 Z M176.669669,0 L184.241227,0 L184.241227,110.013857 L176.669669,110.013857 L176.669669,0 Z M189.288932,0 L196.860489,0 L196.860489,110.013857 L189.288932,110.013857 L189.288932,0 Z" id="path-17"></path>
        <mask id="mask-18" maskContentUnits="userSpaceOnUse" maskUnits="objectBoundingBox" x="0" y="0" width="196.860489" height="110.013857" fill="white">
            <use xlink:href="#path-17"></use>
        </mask>
        <path d="M0,141.10473 L7.57155726,141.10473 L7.57155726,181.762025 L0,181.762025 L0,141.10473 Z M12.6192621,141.10473 L20.1908194,141.10473 L20.1908194,181.762025 L12.6192621,181.762025 L12.6192621,141.10473 Z M25.2385242,141.10473 L32.8100815,141.10473 L32.8100815,181.762025 L25.2385242,181.762025 L25.2385242,141.10473 Z M37.8577863,141.10473 L45.4293436,141.10473 L45.4293436,181.762025 L37.8577863,181.762025 L37.8577863,141.10473 Z M50.4770484,141.10473 L58.0486057,141.10473 L58.0486057,181.762025 L50.4770484,181.762025 L50.4770484,141.10473 Z M63.0963105,141.10473 L70.6678678,141.10473 L70.6678678,181.762025 L63.0963105,181.762025 L63.0963105,141.10473 Z M75.7155726,141.10473 L83.2871299,141.10473 L83.2871299,181.762025 L75.7155726,181.762025 L75.7155726,141.10473 Z M88.3348347,141.10473 L95.906392,141.10473 L95.906392,181.762025 L88.3348347,181.762025 L88.3348347,141.10473 Z M100.954097,141.10473 L108.525654,141.10473 L108.525654,181.762025 L100.954097,181.762025 L100.954097,141.10473 Z M113.573359,141.10473 L121.144916,141.10473 L121.144916,181.762025 L113.573359,181.762025 L113.573359,141.10473 Z M126.192621,141.10473 L133.764178,141.10473 L133.764178,181.762025 L126.192621,181.762025 L126.192621,141.10473 Z M138.811883,141.10473 L146.38344,141.10473 L146.38344,181.762025 L138.811883,181.762025 L138.811883,141.10473 Z M151.431145,141.10473 L159.002702,141.10473 L159.002702,181.762025 L151.431145,181.762025 L151.431145,141.10473 Z M164.050407,141.10473 L171.621965,141.10473 L171.621965,181.762025 L164.050407,181.762025 L164.050407,141.10473 Z M176.669669,141.10473 L184.241227,141.10473 L184.241227,181.762025 L176.669669,181.762025 L176.669669,141.10473 Z M189.288932,141.10473 L196.860489,141.10473 L196.860489,181.762025 L189.288932,181.762025 L189.288932,141.10473 Z" id="path-19"></path>
        <mask id="mask-20" maskContentUnits="userSpaceOnUse" maskUnits="objectBoundingBox" x="0" y="0" width="196.860489" height="40.657295" fill="white">
            <use xlink:href="#path-19"></use>
        </mask>
        <linearGradient x1="70.4258859%" y1="97.5671632%" x2="70.4258887%" y2="0%" id="linearGradient-21">
            <stop stop-color="#D6FFFF" offset="0%"></stop>
            <stop stop-color="#0755B8" offset="100%"></stop>
        </linearGradient>
        <path d="M223.161674,0 L230.733231,0 L230.733231,188.852459 L223.161674,188.852459 L223.161674,0 Z M236.331784,0 L244.514798,0 L244.514798,153.442623 L236.331784,153.442623 L236.331784,0 Z M250.11335,0 L258.296364,0 L258.296364,153.442623 L250.11335,153.442623 L250.11335,0 Z M263.894917,0 L272.077931,0 L272.077931,153.442623 L263.894917,153.442623 L263.894917,0 Z M277.676483,0 L285.859497,0 L285.859497,153.442623 L277.676483,153.442623 L277.676483,0 Z M291.45805,0 L299.641064,0 L299.641064,153.442623 L291.45805,153.442623 L291.45805,0 Z M305.239616,0 L313.42263,0 L313.42263,153.442623 L305.239616,153.442623 L305.239616,0 Z" id="path-22"></path>
        <mask id="mask-23" maskContentUnits="userSpaceOnUse" maskUnits="objectBoundingBox" x="0" y="0" width="90.2609562" height="188.852459" fill="white">
            <use xlink:href="#path-22"></use>
        </mask>
        <path d="M347.162572,0 L354.73413,0 L354.73413,153.442623 L347.162572,153.442623 L347.162572,0 Z M359.781835,0 L367.353392,0 L367.353392,153.442623 L359.781835,153.442623 L359.781835,0 Z M372.401097,0 L379.972654,0 L379.972654,153.442623 L372.401097,153.442623 L372.401097,0 Z M385.020359,0 L392.591916,0 L392.591916,153.442623 L385.020359,153.442623 L385.020359,0 Z" id="path-24"></path>
        <mask id="mask-25" maskContentUnits="userSpaceOnUse" maskUnits="objectBoundingBox" x="0" y="0" width="45.4293436" height="153.442623" fill="white">
            <use xlink:href="#path-24"></use>
        </mask>
        <path d="M517.389746,0 L524.961303,0 L524.961303,153.442623 L517.389746,153.442623 L517.389746,0 Z M530.009008,0 L537.580566,0 L537.580566,153.442623 L530.009008,153.442623 L530.009008,0 Z M542.62827,0 L550.199828,0 L550.199828,153.442623 L542.62827,153.442623 L542.62827,0 Z" id="path-26"></path>
        <mask id="mask-27" maskContentUnits="userSpaceOnUse" maskUnits="objectBoundingBox" x="0" y="0" width="32.8100815" height="153.442623" fill="white">
            <use xlink:href="#path-26"></use>
        </mask>
        <path d="M418.959502,0 L426.531059,0 L426.531059,153.442623 L418.959502,153.442623 L418.959502,0 Z M431.578764,0 L439.150321,0 L439.150321,153.442623 L431.578764,153.442623 L431.578764,0 Z" id="path-28"></path>
        <mask id="mask-29" maskContentUnits="userSpaceOnUse" maskUnits="objectBoundingBox" x="0" y="0" width="20.1908194" height="153.442623" fill="white">
            <use xlink:href="#path-28"></use>
        </mask>
        <path d="M485.044595,0 L492.616152,0 L492.616152,153.442623 L485.044595,153.442623 L485.044595,0 Z M497.663857,0 L505.235414,0 L505.235414,153.442623 L497.663857,153.442623 L497.663857,0 Z" id="path-30"></path>
        <mask id="mask-31" maskContentUnits="userSpaceOnUse" maskUnits="objectBoundingBox" x="0" y="0" width="20.1908194" height="153.442623" fill="white">
            <use xlink:href="#path-30"></use>
        </mask>
        <rect id="path-32" x="0" y="0" width="661.566018" height="93.7874947" rx="25"></rect>
        <mask id="mask-33" maskContentUnits="userSpaceOnUse" maskUnits="objectBoundingBox" x="0" y="0" width="661.566018" height="93.7874947" fill="white">
            <use xlink:href="#path-32"></use>
        </mask>
        <linearGradient x1="50%" y1="0%" x2="50%" y2="98.4076052%" id="linearGradient-34">
            <stop stop-color="#FFFFFF" offset="0%"></stop>
            <stop stop-color="#9A9595" offset="62.5757334%"></stop>
            <stop stop-color="#4D4C4C" offset="100%"></stop>
        </linearGradient>
        <linearGradient x1="50%" y1="0%" x2="50%" y2="100%" id="linearGradient-35">
            <stop stop-color="#7DABDC" offset="0%"></stop>
            <stop stop-color="#3B73B9" offset="100%"></stop>
        </linearGradient>
        <linearGradient x1="50%" y1="100%" x2="50%" y2="3.061617e-15%" id="linearGradient-36">
            <stop stop-color="#7DABDC" offset="0%"></stop>
            <stop stop-color="#3B73B9" offset="100%"></stop>
        </linearGradient>
        <rect id="path-37" x="53.8005797" y="412.131148" width="633.293966" height="59.1754431" rx="26"></rect>
        <mask id="mask-38" maskContentUnits="userSpaceOnUse" maskUnits="objectBoundingBox" x="0" y="0" width="633.293966" height="59.1754431" fill="white">
            <use xlink:href="#path-37"></use>
        </mask>
        <rect id="path-39" x="759.153303" y="359.016393" width="7.91617457" height="43.544194"></rect>
        <mask id="mask-40" maskContentUnits="userSpaceOnUse" maskUnits="objectBoundingBox" x="0" y="0" width="7.91617457" height="43.544194" fill="white">
            <use xlink:href="#path-39"></use>
        </mask>
        <rect id="path-41" x="764.134607" y="365.901639" width="30.5338162" height="29.0294626"></rect>
        <mask id="mask-42" maskContentUnits="userSpaceOnUse" maskUnits="objectBoundingBox" x="0" y="0" width="30.5338162" height="29.0294626" fill="white">
            <use xlink:href="#path-41"></use>
        </mask>
        <rect id="path-43" x="793.026174" y="370.819672" width="6.78529249" height="18.9808025"></rect>
        <mask id="mask-44" maskContentUnits="userSpaceOnUse" maskUnits="objectBoundingBox" x="0" y="0" width="6.78529249" height="18.9808025" fill="white">
            <use xlink:href="#path-43"></use>
        </mask>
        <rect id="path-45" x="0" y="0" width="27.14117" height="110.535262" rx="10"></rect>
        <mask id="mask-46" maskContentUnits="userSpaceOnUse" maskUnits="objectBoundingBox" x="0" y="0" width="27.14117" height="110.535262" fill="white">
            <use xlink:href="#path-45"></use>
        </mask>
        <rect id="path-47" x="35.0573445" y="25.6799093" width="4.52352833" height="20.0973203"></rect>
        <mask id="mask-48" maskContentUnits="userSpaceOnUse" maskUnits="objectBoundingBox" x="0" y="0" width="4.52352833" height="20.0973203" fill="white">
            <use xlink:href="#path-47"></use>
        </mask>
        <rect id="path-49" x="35.0573445" y="70.340621" width="4.52352833" height="20.0973203"></rect>
        <mask id="mask-50" maskContentUnits="userSpaceOnUse" maskUnits="objectBoundingBox" x="0" y="0" width="4.52352833" height="20.0973203" fill="white">
            <use xlink:href="#path-49"></use>
        </mask>
    </defs>
    <g id="body" stroke="none" stroke-width="1" fill="none" fill-rule="evenodd">
        <rect id="Rectangle-249" fill="#4E5058" x="0.886672208" y="279.344262" width="96.6373081" height="5.90163934"></rect>
        <use id="Path-9" stroke="#4E5058" mask="url(#mask-2)" stroke-width="4" fill="#D8D8D8" xlink:href="#path-1"></use>
        <path d="M188.269337,417.852198 L755.668856,417.852198 L755.668856,97.3770492 L175.1828,97.3770492 L175.1828,338.027348 L133.181768,360.390319 L133.181768,372.311904 L116.565017,372.311904 L116.565017,418.005576 L188.226577,418.005576 L188.269337,417.852198 Z" id="Rectangle-107-Copy" fill="url(#linearGradient-3)"></path>
        <use id="Rectangle-110-Copy" stroke="#4E5058" mask="url(#mask-5)" stroke-width="4" fill="#D8D8D8" xlink:href="#path-4"></use>
        <rect id="Rectangle-98" fill="#4E5058" x="752.642227" y="101.311475" width="10.0954097" height="154.079456"></rect>
        <rect id="Rectangle-98-Copy-4" fill="#4E5058" x="722.820928" y="343.595837" width="20.5220042" height="136.215171"></rect>
        <g id="水箱-copy" transform="translate(429.390942, 245.901639)" stroke="#4E5058" stroke-width="4">
            <use id="Rectangle-59" mask="url(#mask-7)" fill="#6D727F" xlink:href="#path-6"></use>
            <use id="Rectangle-60" mask="url(#mask-9)" fill="#78C7EC" xlink:href="#path-8"></use>
            <use id="Rectangle-60-Copy" mask="url(#mask-11)" fill="#78C7EC" xlink:href="#path-10"></use>
            <use id="Rectangle-62" mask="url(#mask-13)" fill="#78C7EC" xlink:href="#path-12"></use>
            <use id="Rectangle-62-Copy" mask="url(#mask-15)" fill="#78C7EC" xlink:href="#path-14"></use>
        </g>
        <g id="竖管-copy" transform="translate(198.258411, 105.245902)" stroke="#4E5058" stroke-width="2">
            <use id="Rectangle-8" mask="url(#mask-18)" fill="url(#linearGradient-16)" xlink:href="#path-17"></use>
            <use id="Rectangle-8-Copy-16" mask="url(#mask-20)" fill="url(#linearGradient-16)" transform="translate(98.430244, 161.433377) scale(1, -1) translate(-98.430244, -161.433377) " xlink:href="#path-19"></use>
            <use id="Rectangle-40" mask="url(#mask-23)" fill="url(#linearGradient-21)" xlink:href="#path-22"></use>
            <use id="Rectangle-40-Copy-7" mask="url(#mask-25)" fill="url(#linearGradient-21)" xlink:href="#path-24"></use>
            <use id="Rectangle-40-Copy-16" mask="url(#mask-27)" fill="url(#linearGradient-21)" xlink:href="#path-26"></use>
            <use id="Rectangle-40-Copy-12" mask="url(#mask-29)" fill="url(#linearGradient-21)" xlink:href="#path-28"></use>
            <use id="Rectangle-40-Copy-14" mask="url(#mask-31)" fill="url(#linearGradient-21)" xlink:href="#path-30"></use>
        </g>
        <polygon id="Path-4-Copy" stroke="#6D727F" fill="#6A6A6A" points="169.366845 105.245902 169.366845 345.964526 226.933745 319.072896 229.569353 284.806906 183.794267 256.922801 184.906814 107.055606"></polygon>
        <g id="外框-copy" transform="translate(114.572495, 101.311475)" fill="#4E5058">
            <path d="M108.525654,211.156404 L108.525654,182.297022 L64.213911,155.454363 L63.0963105,155.454363 L63.0963105,0 L73.1917202,0 L73.1917202,150.008839 L117.794739,176.978814 L118.621064,176.978814 L118.621064,217.636108 L117.686156,217.636108 L25.238524,266.39506 L25.2385237,278.00445 L15.1431145,278.00445 L15.1431145,277.995565 L10.0954097,277.995565 L10.0954097,289.384276 L0,289.384276 L0,267.859826 L10.0954097,267.859826 L10.0954097,267.900155 L15.1431145,267.900155 L15.1431145,260.685009 L15.9016204,260.685009 L15.8799876,260.664354 L108.525654,211.156404 Z" id="Rectangle-72"></path>
            <rect id="Rectangle-98-Copy" x="532.532861" y="0" width="10.0954097" height="144.692138"></rect>
            <rect id="Rectangle-98-Copy-2" x="401.292535" y="0" width="10.0954097" height="144.692138"></rect>
            <rect id="Rectangle-98-Copy-3" x="292.766881" y="3.79960462" width="10.0954097" height="188.936841"></rect>
            <rect id="Rectangle-102" x="277.623766" y="191.328447" width="37.8577863" height="9.56642235"></rect>
            <polygon id="Rectangle-102-Copy-3" transform="translate(271.896307, 215.512881) rotate(-63.000000) translate(-271.896307, -215.512881) " points="247.178589 210.349896 296.225492 209.649086 296.614025 219.024874 248.001648 221.376676"></polygon>
            <polygon id="Rectangle-102-Copy-2" transform="translate(306.262185, 252.367603) rotate(25.000000) translate(-306.262185, -252.367603) " points="260.685593 247.584392 347.980066 247.584392 351.838776 256.493704 260.685593 257.150814"></polygon>
            <rect id="Rectangle-102-Copy" x="345.767782" y="265.46822" width="267.528357" height="9.56642235"></rect>
        </g>
        <g id="顶部" transform="translate(128.520148, 11.803279)">
            <use id="Rectangle-227" stroke="#4E5058" mask="url(#mask-33)" stroke-width="4" fill="#6D727F" xlink:href="#path-32"></use>
            <rect id="Rectangle-243" fill="url(#linearGradient-34)" x="486.279295" y="8.93214235" width="58.8058683" height="37.961605"></rect>
            <rect id="Rectangle-243-Copy-2" fill="url(#linearGradient-34)" x="409.379314" y="8.93214235" width="70.1146891" height="37.961605"></rect>
            <rect id="Rectangle-243-Copy-4" fill="url(#linearGradient-34)" x="291.767577" y="8.93214235" width="110.826444" height="37.961605"></rect>
            <rect id="Rectangle-243-Copy" fill="url(#linearGradient-35)" x="486.279295" y="46.8937473" width="58.8058683" height="37.961605"></rect>
            <rect id="Rectangle-243-Copy-3" fill="url(#linearGradient-35)" x="409.379314" y="46.8937473" width="70.1146891" height="37.961605"></rect>
            <rect id="Rectangle-243-Copy-5" fill="url(#linearGradient-35)" x="291.767577" y="46.8937473" width="110.826444" height="37.961605"></rect>
            <path d="M146.608974,8.93214235 L30.0419113,8.93214235 C18.4456381,8.93214235 9.04705665,18.3331148 9.04705665,29.929802 L9.04705665,38.4117747 L9.04705665,46.8937473 L284.982285,46.8937473 L284.982285,8.93214235 L146.608974,8.93214235 Z" id="Rectangle-228" fill="url(#linearGradient-34)"></path>
            <path d="M613.257577,8.93214235 L573.996193,8.93214235 C562.39992,8.93214235 553.001338,18.3331148 553.001338,29.929802 L553.001338,38.4117747 L553.001338,46.8937473 L652.518961,46.8937473 L652.518961,8.93214235 L613.257577,8.93214235 Z" id="Rectangle-228-Copy-4" fill="url(#linearGradient-34)" transform="translate(602.760150, 27.912945) scale(-1, 1) translate(-602.760150, -27.912945) "></path>
            <path d="M146.608974,46.8937473 L30.0419113,46.8937473 C18.4456381,46.8937473 9.04705665,56.2947198 9.04705665,67.891407 L9.04705665,76.3733797 L9.04705665,84.8553523 L284.982285,84.8553523 L284.982285,46.8937473 L146.608974,46.8937473 Z" id="Rectangle-228-Copy-3" fill="url(#linearGradient-36)" transform="translate(147.014671, 65.874550) scale(1, -1) translate(-147.014671, -65.874550) "></path>
            <path d="M613.255374,46.8937473 L573.991787,46.8937473 C562.403477,46.8937473 553.001338,56.2947198 553.001338,67.891407 L553.001338,76.3733797 L553.001338,84.8553523 L652.518961,84.8553523 L652.518961,46.8937473 L613.255374,46.8937473 Z" id="Rectangle-228-Copy-5" fill="url(#linearGradient-36)" transform="translate(602.760150, 65.874550) scale(-1, -1) translate(-602.760150, -65.874550) "></path>
        </g>
        <g id="阀门" transform="translate(301.869546, 0.983607)">
            <path d="M0,0 L21.4867596,0 L21.4867596,3.34955338 L0,3.34955338 L0,0 Z M7.91617457,3.34955338 L14.7014671,3.34955338 L14.7014671,12.2816957 L7.91617457,12.2816957 L7.91617457,3.34955338 Z" id="Rectangle-241" fill="#6D727F"></path>
            <rect id="Rectangle-243" fill="#4E5058" x="19.2249954" y="0" width="2.26176416" height="3.34955338"></rect>
            <rect id="Rectangle-243-Copy" fill="#4E5058" x="12.4397029" y="3.34955338" width="2.26176416" height="8.93214235"></rect>
        </g>
        <g id="阀门-copy-3" transform="translate(665.504777, 0.000000)">
            <path d="M0,0 L21.4867596,0 L21.4867596,3.34955338 L0,3.34955338 L0,0 Z M7.91617457,3.34955338 L14.7014671,3.34955338 L14.7014671,12.2816957 L7.91617457,12.2816957 L7.91617457,3.34955338 Z" id="Rectangle-241" fill="#6D727F"></path>
            <rect id="Rectangle-243" fill="#4E5058" x="19.2249954" y="0" width="2.26176416" height="3.34955338"></rect>
            <rect id="Rectangle-243-Copy" fill="#4E5058" x="12.4397029" y="3.34955338" width="2.26176416" height="8.93214235"></rect>
        </g>
        <g id="阀门-copy" transform="translate(263.015370, 0.983607)">
            <path d="M0,0 L21.4867596,0 L21.4867596,3.34955338 L0,3.34955338 L0,0 Z M7.91617457,3.34955338 L14.7014671,3.34955338 L14.7014671,12.2816957 L7.91617457,12.2816957 L7.91617457,3.34955338 Z" id="Rectangle-241" fill="#6D727F"></path>
            <rect id="Rectangle-243" fill="#4E5058" x="19.2249954" y="0" width="2.26176416" height="3.34955338"></rect>
            <rect id="Rectangle-243-Copy" fill="#4E5058" x="12.4397029" y="3.34955338" width="2.26176416" height="8.93214235"></rect>
        </g>
        <g id="阀门-copy-2" transform="translate(223.164934, 0.983607)">
            <path d="M0,0 L21.4867596,0 L21.4867596,3.34955338 L0,3.34955338 L0,0 Z M7.91617457,3.34955338 L14.7014671,3.34955338 L14.7014671,12.2816957 L7.91617457,12.2816957 L7.91617457,3.34955338 Z" id="Rectangle-241" fill="#6D727F"></path>
            <rect id="Rectangle-243" fill="#4E5058" x="19.2249954" y="0" width="2.26176416" height="3.34955338"></rect>
            <rect id="Rectangle-243-Copy" fill="#4E5058" x="12.4397029" y="3.34955338" width="2.26176416" height="8.93214235"></rect>
        </g>
        <polygon id="Path-12" stroke="#D0011B" stroke-width="2" stroke-linecap="square" fill="#FF5500" points="128.520148 407.857023 134.361642 402.089727 142.739375 403.25104 148.077031 397.171442 152.535811 399.639935 159.235345 398.020454 165.4121 398.351456 168.622649 402.312265 173.679974 397.190143 180.174942 398.830194 183.402538 404.137454 189.450493 403.640015 193.462258 397.781085 203.707602 398.241122 208.560361 401.558627 213.411226 404.85556 221.287015 404.358122 223.470945 400.601151 226.810295 399.439837 231.549406 397.027447 236.568848 399.847513 246.105788 401.302427 254.316838 397.027447 260.679217 398.852635 266.596477 401.670831 270.272981 404.472196 275.104905 403.972887 279.118564 401.044357 282.270395 395.998908 290.108301 395.50147 296.13542 398.779703 299.57137 402.963049 310.172811 404.086962 318.531602 403.25665 325.380773 402.72181 331.370009 398.817104 338.257063 395.409836 342.268828 399.811981 347.121587 401.783035 356.005052 402.280474 361.174131 404.934103 369.347298 406.886457 375.020214 404.546999 384.742779 400.419754 392.281413 401.745634 397.134172 406.70132 402.668817 401.979393 409.012255 398.994761 416.906985 400.30194 422.617785 398.828324 428.47822 400.04574 430.474632 402.992971 433.685181 399.714738 438.704623 400.653513 442.866025 405.093059 447.065309 402.661968 454.378541 401.519355 459.081664 405.498865 460.574238 399.069563 465.239478 397.577247 471.713611 398.405688 475.223432 404.651723 480.074297 406.456341 481.56687 400.027039 486.419629 398.055985 491.458013 399.823202 492.782009 404.743356 498.680327 405.184693 500.69568 401.407151 509.541263 402.880766 512.19115 406.510573 520.73746 405.515695 524.936744 400.872311 531.954493 400.872311 540.669381 404.687254 551.231044 402.695629 558.267734 401.480084 565.63779 402.805964 568.810457 407.430647 573.682157 400.485206 578.19776 401.480084 586.073549 404.629282 596.625742 405.255755 595.133169 399.50716 605.844469 398.99102 611.348808 404.279579 619.393174 402.45439 626.744289 399.763359 636.112652 402.895727 639.078858 401.91955 647.458485 404.885482 654.288715 407.999148 656.620387 411.425117 657.160214 417.527156 128.974231 417.527156"></polygon>
        <use id="Rectangle-248" stroke="#4E5058" mask="url(#mask-38)" stroke-width="4" fill="#D8D8D8" xlink:href="#path-37"></use>
        <ellipse id="Oval-4" fill="#4E5058" cx="656.969089" cy="442.064533" rx="20.3558775" ry="20.0973203"></ellipse>
        <ellipse id="Oval-4-Copy" fill="#4E5058" cx="86.1115881" cy="441.080927" rx="20.3558775" ry="20.0973203"></ellipse>
        <path d="M656.115258,426.906702 C656.115258,426.351621 656.57296,425.901639 657.113885,425.901639 L657.378396,425.901639 C657.929922,425.901639 658.377022,426.353317 658.377022,426.906702 L658.377022,437.178272 C658.377022,437.733353 657.919321,438.183335 657.378396,438.183335 L657.113885,438.183335 C656.562359,438.183335 656.115258,437.731657 656.115258,437.178272 L656.115258,426.906702 Z M671.460896,436.323363 C671.988809,436.151834 672.558205,436.448082 672.72536,436.962532 L672.807098,437.214097 C672.977529,437.738629 672.686119,438.303423 672.159819,438.474428 L662.390975,441.648518 C661.863062,441.820048 661.293666,441.5238 661.126511,441.00935 L661.044773,440.757784 C660.874342,440.233252 661.165751,439.668458 661.692052,439.497453 L671.460896,436.323363 Z M667.162224,453.710906 C667.488493,454.159976 667.382697,454.793049 666.94508,455.110997 L666.731085,455.266472 C666.284891,455.590651 665.65769,455.488035 665.332419,455.040337 L659.294941,446.730463 C658.968673,446.281393 659.074469,445.648319 659.512086,445.330372 L659.72608,445.174896 C660.172274,444.850717 660.799475,444.953333 661.124747,445.401031 L667.162224,453.710906 Z M649.159862,455.040337 C648.833594,455.489407 648.198813,455.58442 647.761195,455.266472 L647.547201,455.110997 C647.101007,454.786818 647.004785,454.158604 647.330057,453.710906 L653.367534,445.401031 C653.693802,444.951961 654.328584,444.856948 654.766201,445.174896 L654.980195,445.330372 C655.426389,445.654551 655.522611,446.282765 655.19734,446.730463 L649.159862,455.040337 Z M642.332462,438.474428 C641.804549,438.302899 641.518028,437.728547 641.685183,437.214097 L641.766921,436.962532 C641.937352,436.437999 642.505085,436.152358 643.031385,436.323363 L652.800229,439.497453 C653.328142,439.668982 653.614663,440.243334 653.447508,440.757784 L653.36577,441.00935 C653.195339,441.533882 652.627606,441.819524 652.101306,441.648518 L642.332462,438.474428 Z" id="Rectangle-249" fill="#D8D8D8"></path>
        <path d="M84.261497,425.923095 C84.261497,425.368015 84.7191987,424.918033 85.2601234,424.918033 L85.5246347,424.918033 C86.0761608,424.918033 86.5232611,425.369711 86.5232611,425.923095 L86.5232611,436.194666 C86.5232611,436.749747 86.0655594,437.199729 85.5246347,437.199729 L85.2601234,437.199729 C84.7085973,437.199729 84.261497,436.748051 84.261497,436.194666 L84.261497,425.923095 Z M99.6071342,435.339756 C100.135047,435.168227 100.704443,435.464475 100.871598,435.978925 L100.953337,436.23049 C101.123768,436.755023 100.832358,437.319817 100.306058,437.490822 L90.5372138,440.664912 C90.0093006,440.836441 89.4399048,440.540193 89.2727499,440.025743 L89.1910114,439.774178 C89.0205804,439.249645 89.3119899,438.684852 89.8382903,438.513846 L99.6071342,435.339756 Z M95.3084629,452.727299 C95.6347312,453.176369 95.5289355,453.809442 95.0913182,454.12739 L94.8773241,454.282866 C94.4311301,454.607045 93.8039288,454.504429 93.4786573,454.056731 L87.4411797,445.746856 C87.1149114,445.297786 87.2207072,444.664713 87.6583245,444.346765 L87.8723186,444.191289 C88.3185126,443.86711 88.9457139,443.969727 89.2709854,444.417424 L95.3084629,452.727299 Z M77.3061008,454.056731 C76.9798325,454.505801 76.3450513,454.600813 75.907434,454.282866 L75.6934399,454.12739 C75.2472459,453.803211 75.1510237,453.174997 75.4762952,452.727299 L81.5137727,444.417424 C81.840041,443.968355 82.4748222,443.873342 82.9124395,444.191289 L83.1264336,444.346765 C83.5726277,444.670944 83.6688499,445.299158 83.3435784,445.746856 L77.3061008,454.056731 Z M70.4787004,437.490822 C69.9507872,437.319293 69.6642665,436.74494 69.8314215,436.23049 L69.9131599,435.978925 C70.0835909,435.454393 70.6513236,435.168751 71.1776239,435.339756 L80.9464678,438.513846 C81.474381,438.685376 81.7609016,439.259728 81.5937467,439.774178 L81.5120082,440.025743 C81.3415773,440.550276 80.7738446,440.835917 80.2475442,440.664912 L70.4787004,437.490822 Z" id="Rectangle-249-Copy" fill="#D8D8D8"></path>
        <path d="M111.134772,420 L626.73968,420" id="Line" stroke="#4E5058" stroke-width="2" stroke-linecap="square"></path>
        <path d="M111.134772,460.327869 L626.73968,460.327869" id="Line-Copy" stroke="#4E5058" stroke-width="2" stroke-linecap="square"></path>
        <use id="Rectangle-143" stroke="#4E5058" mask="url(#mask-40)" stroke-width="4" fill="#D8D8D8" xlink:href="#path-39"></use>
        <use id="Rectangle-144" stroke="#4E5058" mask="url(#mask-42)" stroke-width="4" fill="#D8D8D8" xlink:href="#path-41"></use>
        <use id="Rectangle-145" stroke="#4E5058" mask="url(#mask-44)" stroke-width="4" fill="#6D727F" xlink:href="#path-43"></use>
        <g id="红绿灯" transform="translate(91.658494, 0.983607)">
            <use id="Rectangle-151" stroke="#4E5058" mask="url(#mask-46)" stroke-width="4" fill="#D8D8D8" xlink:href="#path-45"></use>
            <path d="M19.2249954,42.4664333 L19.2249954,31.3400124 C19.2249954,28.2053607 16.6934296,25.6799093 13.570585,25.6799093 C10.4540947,25.6799093 7.91617457,28.2140238 7.91617457,31.3400124 L7.91617457,42.4664333 L7.91617457,53.5928541 L19.2249954,53.5928541 L19.2249954,42.4664333 Z" id="Rectangle-152" stroke="#4E5058" stroke-width="2" fill="#E31618"></path>
            <path d="M19.2249954,69.2628603 L19.2249954,58.1364395 C19.2249954,55.0017878 16.6934296,52.4763363 13.570585,52.4763363 C10.4540947,52.4763363 7.91617457,55.0104508 7.91617457,58.1364395 L7.91617457,69.2628603 L7.91617457,80.3892811 L19.2249954,80.3892811 L19.2249954,69.2628603 Z" id="Rectangle-152-Copy" stroke="#4E5058" stroke-width="2" fill="#7ED321" transform="translate(13.570585, 66.432809) scale(1, -1) translate(-13.570585, -66.432809) "></path>
            <rect id="Rectangle-143" fill="#4E5058" x="24.8794058" y="33.4955338" width="11.3088208" height="4.46607117"></rect>
            <rect id="Rectangle-143-Copy" fill="#4E5058" x="24.8794058" y="78.1562456" width="11.3088208" height="4.46607117"></rect>
            <use id="Rectangle-144" stroke="#4E5058" mask="url(#mask-48)" stroke-width="2" fill="#6D727F" xlink:href="#path-47"></use>
            <use id="Rectangle-144-Copy" stroke="#4E5058" mask="url(#mask-50)" stroke-width="2" fill="#6D727F" xlink:href="#path-49"></use>
        </g>
    </g>
</svg>