<svg width="802px" height="490px" viewBox="-1 -1 802 490" version="1.1" xmlns="http://www.w3.org/2000/svg" xmlns:xlink="http://www.w3.org/1999/xlink">
    <!-- Generator: Sketch 42 (36781) - http://www.bohemiancoding.com/sketch -->
    <desc>Created with Sketch.</desc>
    <defs>
        <linearGradient x1="50.2163351%" y1="100%" x2="50.2163351%" y2="0%" id="linearGradient-1">
            <stop stop-color="#B4B4B4" offset="0%"></stop>
            <stop stop-color="#EEEEEE" offset="24.0613042%"></stop>
            <stop stop-color="#FFFFFF" offset="50.1638279%"></stop>
            <stop stop-color="#DFDFDF" offset="80.1060268%"></stop>
            <stop stop-color="#AAAAAC" offset="100%"></stop>
        </linearGradient>
        <rect id="path-2" x="86.0927152" y="25.1655629" width="360.927152" height="145.695364"></rect>
        <mask id="mask-3" maskContentUnits="userSpaceOnUse" maskUnits="objectBoundingBox" x="0" y="0" width="360.927152" height="145.695364" fill="white">
            <use xlink:href="#path-2"></use>
        </mask>
        <radialGradient cx="50%" cy="46.9720662%" fx="50%" fy="46.9720662%" r="55.2888951%" id="radialGradient-4">
            <stop stop-color="#F0F0F0" offset="0%"></stop>
            <stop stop-color="#B2B2B2" offset="81.120456%"></stop>
            <stop stop-color="#6C6D6F" offset="100%"></stop>
        </radialGradient>
        <linearGradient x1="49.395135%" y1="96.6665986%" x2="49.395135%" y2="0%" id="linearGradient-5">
            <stop stop-color="#868686" offset="0%"></stop>
            <stop stop-color="#C3C3C3" offset="23.0309311%"></stop>
            <stop stop-color="#EFEFEF" offset="51.1918048%"></stop>
            <stop stop-color="#C9C9C9" offset="78.7448182%"></stop>
            <stop stop-color="#979798" offset="100%"></stop>
        </linearGradient>
        <rect id="path-6" x="27.1523179" y="81.4569536" width="60.2649007" height="33.1125828"></rect>
        <mask id="mask-7" maskContentUnits="userSpaceOnUse" maskUnits="objectBoundingBox" x="0" y="0" width="60.2649007" height="33.1125828" fill="white">
            <use xlink:href="#path-6"></use>
        </mask>
        <rect id="path-8" x="3.31125828" y="34.4370861" width="76.1589404" height="21.192053"></rect>
        <mask id="mask-9" maskContentUnits="userSpaceOnUse" maskUnits="objectBoundingBox" x="0" y="0" width="76.1589404" height="21.192053" fill="white">
            <use xlink:href="#path-8"></use>
        </mask>
        <rect id="path-10" x="50.6622517" y="18.2119205" width="41.7218543" height="13.2450331"></rect>
        <mask id="mask-11" maskContentUnits="userSpaceOnUse" maskUnits="objectBoundingBox" x="0" y="0" width="41.7218543" height="13.2450331" fill="white">
            <use xlink:href="#path-10"></use>
        </mask>
        <rect id="path-12" x="60.2649007" y="42.384106" width="26.9331345" height="21.192053"></rect>
        <mask id="mask-13" maskContentUnits="userSpaceOnUse" maskUnits="objectBoundingBox" x="0" y="0" width="26.9331345" height="21.192053" fill="white">
            <use xlink:href="#path-12"></use>
        </mask>
        <rect id="path-14" x="23.1788079" y="79.4701987" width="5.29801325" height="39.0728477"></rect>
        <mask id="mask-15" maskContentUnits="userSpaceOnUse" maskUnits="objectBoundingBox" x="0" y="0" width="5.29801325" height="39.0728477" fill="white">
            <use xlink:href="#path-14"></use>
        </mask>
        <rect id="path-16" x="54.9668874" y="37.7483444" width="7.28476821" height="29.8013245"></rect>
        <mask id="mask-17" maskContentUnits="userSpaceOnUse" maskUnits="objectBoundingBox" x="0" y="0" width="7.28476821" height="29.8013245" fill="white">
            <use xlink:href="#path-16"></use>
        </mask>
        <rect id="path-18" x="38.3509934" y="-10.5481186" width="7.28476821" height="29.8013245"></rect>
        <mask id="mask-19" maskContentUnits="userSpaceOnUse" maskUnits="objectBoundingBox" x="0" y="0" width="7.28476821" height="29.8013245" fill="white">
            <use xlink:href="#path-18"></use>
        </mask>
        <rect id="path-20" x="68.8741722" y="-5.9602649" width="5.29801325" height="18.5430464"></rect>
        <mask id="mask-21" maskContentUnits="userSpaceOnUse" maskUnits="objectBoundingBox" x="0" y="0" width="5.29801325" height="18.5430464" fill="white">
            <use xlink:href="#path-20"></use>
        </mask>
        <rect id="path-22" x="27.1523179" y="81.4569536" width="60.2649007" height="33.1125828"></rect>
        <mask id="mask-23" maskContentUnits="userSpaceOnUse" maskUnits="objectBoundingBox" x="0" y="0" width="60.2649007" height="33.1125828" fill="white">
            <use xlink:href="#path-22"></use>
        </mask>
        <rect id="path-24" x="3.31125828" y="34.4370861" width="76.1589404" height="21.192053"></rect>
        <mask id="mask-25" maskContentUnits="userSpaceOnUse" maskUnits="objectBoundingBox" x="0" y="0" width="76.1589404" height="21.192053" fill="white">
            <use xlink:href="#path-24"></use>
        </mask>
        <rect id="path-26" x="50.6622517" y="18.2119205" width="41.7218543" height="13.2450331"></rect>
        <mask id="mask-27" maskContentUnits="userSpaceOnUse" maskUnits="objectBoundingBox" x="0" y="0" width="41.7218543" height="13.2450331" fill="white">
            <use xlink:href="#path-26"></use>
        </mask>
        <rect id="path-28" x="60.2649007" y="42.384106" width="26.9331345" height="21.192053"></rect>
        <mask id="mask-29" maskContentUnits="userSpaceOnUse" maskUnits="objectBoundingBox" x="0" y="0" width="26.9331345" height="21.192053" fill="white">
            <use xlink:href="#path-28"></use>
        </mask>
        <rect id="path-30" x="23.1788079" y="79.4701987" width="5.29801325" height="39.0728477"></rect>
        <mask id="mask-31" maskContentUnits="userSpaceOnUse" maskUnits="objectBoundingBox" x="0" y="0" width="5.29801325" height="39.0728477" fill="white">
            <use xlink:href="#path-30"></use>
        </mask>
        <rect id="path-32" x="54.9668874" y="37.7483444" width="7.28476821" height="29.8013245"></rect>
        <mask id="mask-33" maskContentUnits="userSpaceOnUse" maskUnits="objectBoundingBox" x="0" y="0" width="7.28476821" height="29.8013245" fill="white">
            <use xlink:href="#path-32"></use>
        </mask>
        <rect id="path-34" x="38.3509934" y="-10.5481186" width="7.28476821" height="29.8013245"></rect>
        <mask id="mask-35" maskContentUnits="userSpaceOnUse" maskUnits="objectBoundingBox" x="0" y="0" width="7.28476821" height="29.8013245" fill="white">
            <use xlink:href="#path-34"></use>
        </mask>
        <rect id="path-36" x="68.8741722" y="-5.9602649" width="5.29801325" height="18.5430464"></rect>
        <mask id="mask-37" maskContentUnits="userSpaceOnUse" maskUnits="objectBoundingBox" x="0" y="0" width="5.29801325" height="18.5430464" fill="white">
            <use xlink:href="#path-36"></use>
        </mask>
        <rect id="path-38" x="793.377483" y="284.768212" width="6.62251656" height="60.2649007"></rect>
        <mask id="mask-39" maskContentUnits="userSpaceOnUse" maskUnits="objectBoundingBox" x="0" y="0" width="6.62251656" height="60.2649007" fill="white">
            <use xlink:href="#path-38"></use>
        </mask>
        <linearGradient x1="50%" y1="0%" x2="50%" y2="100%" id="linearGradient-40">
            <stop stop-color="#FBDA61" offset="0%"></stop>
            <stop stop-color="#F7341C" offset="100%"></stop>
        </linearGradient>
        <path d="M546.357616,170.230571 L546.357616,121.823196 C545.018337,122.681269 543.426464,123.178808 541.719825,123.178808 L523.180837,123.178808 C518.424947,123.178808 514.569536,119.314631 514.569536,114.569536 L514.569536,51.2773453 C514.569536,28.0709686 495.76539,9.27152318 472.569299,9.27152318 L42.0002375,9.27152318 C18.8089494,9.27152318 0,28.0781703 0,51.2773453 L0,240.775635 C0,263.982012 18.8041469,282.781457 42.0002375,282.781457 L472.569299,282.781457 C495.760587,282.781457 514.569536,263.97481 514.569536,240.775635 L514.569536,177.483444 C514.569536,172.728674 518.430631,168.874172 523.180837,168.874172 L541.719825,168.874172 C543.427437,168.874172 545.01896,169.372335 546.357616,170.230571 Z" id="path-41"></path>
        <mask id="mask-42" maskContentUnits="userSpaceOnUse" maskUnits="objectBoundingBox" x="0" y="0" width="546.357616" height="273.509934" fill="white">
            <use xlink:href="#path-41"></use>
        </mask>
        <rect id="path-43" x="543.046358" y="114.569536" width="8.60927152" height="60.9271523"></rect>
        <mask id="mask-44" maskContentUnits="userSpaceOnUse" maskUnits="objectBoundingBox" x="0" y="0" width="8.60927152" height="60.9271523" fill="white">
            <use xlink:href="#path-43"></use>
        </mask>
        <linearGradient x1="96.6358634%" y1="17.1799794%" x2="2.15440565%" y2="17.1799787%" id="linearGradient-45">
            <stop stop-color="#868686" offset="0%"></stop>
            <stop stop-color="#B4B4B4" offset="22.8854432%"></stop>
            <stop stop-color="#E3DCDC" offset="51.3273278%"></stop>
            <stop stop-color="#C1BEBE" offset="78.7448182%"></stop>
            <stop stop-color="#979798" offset="100%"></stop>
        </linearGradient>
        <rect id="path-46" x="347.682119" y="452.980132" width="46.3576159" height="35.7615894"></rect>
        <mask id="mask-47" maskContentUnits="userSpaceOnUse" maskUnits="objectBoundingBox" x="0" y="0" width="46.3576159" height="35.7615894" fill="white">
            <use xlink:href="#path-46"></use>
        </mask>
        <rect id="path-48" x="613.907285" y="452.980132" width="46.3576159" height="35.7615894"></rect>
        <mask id="mask-49" maskContentUnits="userSpaceOnUse" maskUnits="objectBoundingBox" x="0" y="0" width="46.3576159" height="35.7615894" fill="white">
            <use xlink:href="#path-48"></use>
        </mask>
        <path d="M45.0331126,58.2781457 L45.0331126,60.9271523 L67.5496689,60.9271523 L67.5496689,0 L45.0331126,0 L45.0331126,2.64900662 L0,2.64900662 L0,58.2781457 L45.0331126,58.2781457 Z" id="path-50"></path>
        <mask id="mask-51" maskContentUnits="userSpaceOnUse" maskUnits="objectBoundingBox" x="0" y="0" width="67.5496689" height="60.9271523" fill="white">
            <use xlink:href="#path-50"></use>
        </mask>
        <rect id="path-52" x="45.0331126" y="5.29801325" width="1.32450331" height="51.1157425"></rect>
        <mask id="mask-53" maskContentUnits="userSpaceOnUse" maskUnits="objectBoundingBox" x="0" y="0" width="1.32450331" height="51.1157425" fill="white">
            <use xlink:href="#path-52"></use>
        </mask>
        <rect id="path-54" x="7.94701987" y="5.29801325" width="1.32450331" height="51.1157425"></rect>
        <mask id="mask-55" maskContentUnits="userSpaceOnUse" maskUnits="objectBoundingBox" x="0" y="0" width="1.32450331" height="51.1157425" fill="white">
            <use xlink:href="#path-54"></use>
        </mask>
        <polygon id="path-56" points="82.781457 8.5813248 82.781457 53.0080792 67.5496689 61.589404 67.5496689 7.52892965e-14"></polygon>
        <mask id="mask-57" maskContentUnits="userSpaceOnUse" maskUnits="objectBoundingBox" x="0" y="0" width="15.2317881" height="61.589404" fill="white">
            <use xlink:href="#path-56"></use>
        </mask>
        <linearGradient x1="51.475805%" y1="0%" x2="51.475805%" y2="100%" id="linearGradient-58">
            <stop stop-color="#414041" offset="0%"></stop>
            <stop stop-color="#E8E4EA" offset="15.4833766%"></stop>
            <stop stop-color="#818181" offset="37.610002%"></stop>
            <stop stop-color="#C4C3C4" offset="64.528245%"></stop>
            <stop stop-color="#323232" offset="100%"></stop>
        </linearGradient>
        <rect id="path-59" x="81.4569536" y="8.60927152" width="14.5695364" height="44.3708609"></rect>
        <mask id="mask-60" maskContentUnits="userSpaceOnUse" maskUnits="objectBoundingBox" x="0" y="0" width="14.5695364" height="44.3708609" fill="white">
            <use xlink:href="#path-59"></use>
        </mask>
        <rect id="path-61" x="122.516556" y="44.3708609" width="66.8874172" height="40.397351"></rect>
        <mask id="mask-62" maskContentUnits="userSpaceOnUse" maskUnits="objectBoundingBox" x="0" y="0" width="66.8874172" height="40.397351" fill="white">
            <use xlink:href="#path-61"></use>
        </mask>
        <rect id="path-63" x="0" y="4.63576159" width="60.9271523" height="69.5364238"></rect>
        <mask id="mask-64" maskContentUnits="userSpaceOnUse" maskUnits="objectBoundingBox" x="0" y="0" width="60.9271523" height="69.5364238" fill="white">
            <use xlink:href="#path-63"></use>
        </mask>
        <rect id="path-65" x="0" y="13.2450331" width="56.9536424" height="6.62251656"></rect>
        <mask id="mask-66" maskContentUnits="userSpaceOnUse" maskUnits="objectBoundingBox" x="0" y="0" width="56.9536424" height="6.62251656" fill="white">
            <use xlink:href="#path-65"></use>
        </mask>
        <rect id="path-67" x="0" y="56.9536424" width="57.8024158" height="6.62251656"></rect>
        <mask id="mask-68" maskContentUnits="userSpaceOnUse" maskUnits="objectBoundingBox" x="0" y="0" width="57.8024158" height="6.62251656" fill="white">
            <use xlink:href="#path-67"></use>
        </mask>
        <radialGradient cx="48.6127089%" cy="52.5129855%" fx="48.6127089%" fy="52.5129855%" r="53.901604%" id="radialGradient-69">
            <stop stop-color="#FFFFFF" offset="0%"></stop>
            <stop stop-color="#FFFFFF" offset="35.283801%"></stop>
            <stop stop-color="#949494" offset="81.120456%"></stop>
            <stop stop-color="#6C6D6F" offset="100%"></stop>
        </radialGradient>
        <rect id="path-70" x="2.64900662" y="76.8211921" width="50.3311258" height="4.63576159"></rect>
        <mask id="mask-71" maskContentUnits="userSpaceOnUse" maskUnits="objectBoundingBox" x="0" y="0" width="50.3311258" height="4.63576159" fill="white">
            <use xlink:href="#path-70"></use>
        </mask>
        <rect id="path-72" x="19.8675497" y="36.4238411" width="78.807947" height="6.62251656"></rect>
        <mask id="mask-73" maskContentUnits="userSpaceOnUse" maskUnits="objectBoundingBox" x="0" y="0" width="78.807947" height="6.62251656" fill="white">
            <use xlink:href="#path-72"></use>
        </mask>
        <rect id="path-74" x="-16.5562914" y="35.0993377" width="39.7350993" height="6.62251656"></rect>
        <mask id="mask-75" maskContentUnits="userSpaceOnUse" maskUnits="objectBoundingBox" x="0" y="0" width="39.7350993" height="6.62251656" fill="white">
            <use xlink:href="#path-74"></use>
        </mask>
        <linearGradient x1="49.395135%" y1="92.3553219%" x2="49.395135%" y2="0%" id="linearGradient-76">
            <stop stop-color="#868686" offset="0%"></stop>
            <stop stop-color="#B4B4B4" offset="22.8854432%"></stop>
            <stop stop-color="#E3DCDC" offset="51.3273278%"></stop>
            <stop stop-color="#C1BEBE" offset="78.7448182%"></stop>
            <stop stop-color="#979798" offset="100%"></stop>
        </linearGradient>
        <rect id="path-77" x="-1.32450331" y="70.8609272" width="28.4768212" height="11.9205298"></rect>
        <mask id="mask-78" maskContentUnits="userSpaceOnUse" maskUnits="objectBoundingBox" x="0" y="0" width="28.4768212" height="11.9205298" fill="white">
            <use xlink:href="#path-77"></use>
        </mask>
    </defs>
    <g id="Group-14" stroke="none" stroke-width="1" fill="none" fill-rule="evenodd">
        <g id="Group-13" transform="translate(251.655629, 0.000000)">
            <use id="Rectangle-40" stroke="#4E5058" mask="url(#mask-3)" stroke-width="4" fill="url(#linearGradient-1)" xlink:href="#path-2"></use>
            <g id="Group">
                <rect id="Rectangle-30" fill="#4E5058" x="21.192053" y="10.5960265" width="9.93377483" height="3.31125828"></rect>
                <ellipse id="Oval-3" stroke="#4E5058" stroke-width="2" fill="url(#radialGradient-4)" cx="11.589404" cy="11.589404" rx="11.589404" ry="11.589404"></ellipse>
                <use id="Rectangle-22" stroke="#4E5058" mask="url(#mask-7)" stroke-width="4" fill="url(#linearGradient-5)" xlink:href="#path-6"></use>
                <use id="Rectangle-22-Copy-4" stroke="#4E5058" mask="url(#mask-9)" stroke-width="4" fill="url(#linearGradient-5)" transform="translate(41.390728, 45.033113) rotate(-270.000000) translate(-41.390728, -45.033113) " xlink:href="#path-8"></use>
                <use id="Rectangle-22-Copy-6" stroke="#4E5058" mask="url(#mask-11)" stroke-width="4" fill="url(#linearGradient-5)" transform="translate(71.523179, 24.834437) rotate(-270.000000) translate(-71.523179, -24.834437) " xlink:href="#path-10"></use>
                <use id="Rectangle-22-Copy-2" stroke="#4E5058" mask="url(#mask-13)" stroke-width="4" fill="url(#linearGradient-5)" xlink:href="#path-12"></use>
                <use id="Rectangle-22-Copy" stroke="#4E5058" mask="url(#mask-15)" stroke-width="4" fill="url(#linearGradient-5)" xlink:href="#path-14"></use>
                <use id="Rectangle-22-Copy-3" stroke="#4E5058" mask="url(#mask-17)" stroke-width="4" fill="url(#linearGradient-5)" xlink:href="#path-16"></use>
                <use id="Rectangle-22-Copy-5" stroke="#4E5058" mask="url(#mask-19)" stroke-width="4" fill="url(#linearGradient-5)" transform="translate(41.993378, 4.352544) rotate(-270.000000) translate(-41.993378, -4.352544) " xlink:href="#path-18"></use>
                <use id="Rectangle-22-Copy-7" stroke="#4E5058" mask="url(#mask-21)" stroke-width="4" fill="url(#linearGradient-5)" transform="translate(71.523179, 3.311258) rotate(-270.000000) translate(-71.523179, -3.311258) " xlink:href="#path-20"></use>
            </g>
            <g id="TH球" transform="translate(149.006623, 156.953642) rotate(-270.000000) translate(-149.006623, -156.953642) translate(135.761589, 147.019868)">
                <rect id="Rectangle-30-Copy" fill="#4E5058" x="18.0357898" y="8.42005676" width="8.45427645" height="2.83822138"></rect>
                <ellipse id="Oval-3-Copy" stroke="#4E5058" stroke-width="2" fill="url(#radialGradient-4)" cx="9.86332253" cy="9.93377483" rx="9.86332253" ry="9.93377483"></ellipse>
            </g>
            <text id="TH" font-family="STHeitiSC-Medium, Heiti SC" font-size="18" font-weight="bold" line-spacing="34" fill="#4A97FE">
                <tspan x="142.384106" y="153.410596">T</tspan>
                <tspan x="142.384106" y="187.950574">H</tspan>
            </text>
            <g id="TH球-Copy" transform="translate(215.231788, 157.615894) rotate(-270.000000) translate(-215.231788, -157.615894) translate(201.986755, 147.682119)">
                <rect id="Rectangle-30-Copy" fill="#4E5058" x="18.0357898" y="8.42005676" width="8.45427645" height="2.83822138"></rect>
                <ellipse id="Oval-3-Copy" stroke="#4E5058" stroke-width="2" fill="url(#radialGradient-4)" cx="9.86332253" cy="9.93377483" rx="9.86332253" ry="9.93377483"></ellipse>
            </g>
            <g id="Group-Copy" transform="translate(489.403974, 59.271523) scale(-1, 1) translate(-489.403974, -59.271523) translate(445.695364, 0.000000)">
                <rect id="Rectangle-30" fill="#4E5058" x="21.192053" y="10.5960265" width="9.93377483" height="3.31125828"></rect>
                <ellipse id="Oval-3" stroke="#4E5058" stroke-width="2" fill="url(#radialGradient-4)" cx="11.589404" cy="11.589404" rx="11.589404" ry="11.589404"></ellipse>
                <use id="Rectangle-22" stroke="#4E5058" mask="url(#mask-23)" stroke-width="4" fill="url(#linearGradient-5)" xlink:href="#path-22"></use>
                <use id="Rectangle-22-Copy-4" stroke="#4E5058" mask="url(#mask-25)" stroke-width="4" fill="url(#linearGradient-5)" transform="translate(41.390728, 45.033113) rotate(-270.000000) translate(-41.390728, -45.033113) " xlink:href="#path-24"></use>
                <use id="Rectangle-22-Copy-6" stroke="#4E5058" mask="url(#mask-27)" stroke-width="4" fill="url(#linearGradient-5)" transform="translate(71.523179, 24.834437) rotate(-270.000000) translate(-71.523179, -24.834437) " xlink:href="#path-26"></use>
                <use id="Rectangle-22-Copy-2" stroke="#4E5058" mask="url(#mask-29)" stroke-width="4" fill="url(#linearGradient-5)" xlink:href="#path-28"></use>
                <use id="Rectangle-22-Copy" stroke="#4E5058" mask="url(#mask-31)" stroke-width="4" fill="url(#linearGradient-5)" xlink:href="#path-30"></use>
                <use id="Rectangle-22-Copy-3" stroke="#4E5058" mask="url(#mask-33)" stroke-width="4" fill="url(#linearGradient-5)" xlink:href="#path-32"></use>
                <use id="Rectangle-22-Copy-5" stroke="#4E5058" mask="url(#mask-35)" stroke-width="4" fill="url(#linearGradient-5)" transform="translate(41.993378, 4.352544) rotate(-270.000000) translate(-41.993378, -4.352544) " xlink:href="#path-34"></use>
                <use id="Rectangle-22-Copy-7" stroke="#4E5058" mask="url(#mask-37)" stroke-width="4" fill="url(#linearGradient-5)" transform="translate(71.523179, 3.311258) rotate(-270.000000) translate(-71.523179, -3.311258) " xlink:href="#path-36"></use>
            </g>
            <polygon id="Triangle-6" fill="#4E5058" transform="translate(294.370861, 163.576159) scale(1, -1) translate(-294.370861, -163.576159) " points="294.370861 156.291391 302.649007 170.860927 286.092715 170.860927"></polygon>
            <rect id="Rectangle-43" fill="#4E63AB" x="87.4172185" y="42.384106" width="358.278146" height="3.31125828"></rect>
            <rect id="Rectangle-43-Copy-4" fill="#4E63AB" x="87.4172185" y="82.1192053" width="358.278146" height="3.31125828"></rect>
            <rect id="Rectangle-43-Copy" fill="#4E63AB" x="87.4172185" y="48.3443709" width="358.278146" height="3.31125828"></rect>
            <rect id="Rectangle-43-Copy-5" fill="#4E63AB" x="87.4172185" y="87.4172185" width="358.278146" height="3.31125828"></rect>
            <rect id="Rectangle-43-Copy-2" fill="#4E63AB" x="87.4172185" y="53.6423841" width="358.278146" height="3.31125828"></rect>
            <rect id="Rectangle-43-Copy-6" fill="#4E63AB" x="87.4172185" y="92.7152318" width="358.278146" height="3.31125828"></rect>
            <rect id="Rectangle-43-Copy-8" fill="#4E63AB" x="87.4172185" y="104.635762" width="358.278146" height="3.31125828"></rect>
            <rect id="Rectangle-43-Copy-3" fill="#4E63AB" x="87.4172185" y="59.602649" width="358.278146" height="3.31125828"></rect>
            <rect id="Rectangle-43-Copy-7" fill="#4E63AB" x="87.4172185" y="98.6754967" width="358.278146" height="3.31125828"></rect>
            <rect id="Rectangle-43-Copy-9" fill="#4E63AB" x="87.4172185" y="110.596026" width="358.278146" height="3.31125828"></rect>
            <ellipse id="Oval-7" fill="#DA170D" cx="296.357616" cy="67.8807947" rx="2.31788079" ry="2.31788079"></ellipse>
            <ellipse id="Oval-7-Copy-13" fill="#DA170D" cx="273.178808" cy="120.860927" rx="2.31788079" ry="2.31788079"></ellipse>
            <ellipse id="Oval-7-Copy" fill="#DA170D" cx="304.966887" cy="67.8807947" rx="2.31788079" ry="2.31788079"></ellipse>
            <ellipse id="Oval-7-Copy-14" fill="#DA170D" cx="281.788079" cy="120.860927" rx="2.31788079" ry="2.31788079"></ellipse>
            <ellipse id="Oval-7-Copy-2" fill="#DA170D" cx="313.576159" cy="67.8807947" rx="2.31788079" ry="2.31788079"></ellipse>
            <ellipse id="Oval-7-Copy-15" fill="#DA170D" cx="290.397351" cy="120.860927" rx="2.31788079" ry="2.31788079"></ellipse>
            <ellipse id="Oval-7-Copy-3" fill="#DA170D" cx="322.18543" cy="67.8807947" rx="2.31788079" ry="2.31788079"></ellipse>
            <ellipse id="Oval-7-Copy-16" fill="#DA170D" cx="299.006623" cy="120.860927" rx="2.31788079" ry="2.31788079"></ellipse>
            <ellipse id="Oval-7-Copy-4" fill="#DA170D" cx="330.794702" cy="67.8807947" rx="2.31788079" ry="2.31788079"></ellipse>
            <ellipse id="Oval-7-Copy-17" fill="#DA170D" cx="307.615894" cy="120.860927" rx="2.31788079" ry="2.31788079"></ellipse>
            <ellipse id="Oval-7-Copy-5" fill="#DA170D" cx="339.403974" cy="67.8807947" rx="2.31788079" ry="2.31788079"></ellipse>
            <ellipse id="Oval-7-Copy-18" fill="#DA170D" cx="316.225166" cy="120.860927" rx="2.31788079" ry="2.31788079"></ellipse>
            <ellipse id="Oval-7-Copy-6" fill="#DA170D" cx="348.013245" cy="67.8807947" rx="2.31788079" ry="2.31788079"></ellipse>
            <ellipse id="Oval-7-Copy-19" fill="#DA170D" cx="324.834437" cy="120.860927" rx="2.31788079" ry="2.31788079"></ellipse>
            <ellipse id="Oval-7-Copy-7" fill="#DA170D" cx="356.622517" cy="67.8807947" rx="2.31788079" ry="2.31788079"></ellipse>
            <ellipse id="Oval-7-Copy-20" fill="#DA170D" cx="333.443709" cy="120.860927" rx="2.31788079" ry="2.31788079"></ellipse>
            <ellipse id="Oval-7-Copy-8" fill="#DA170D" cx="365.231788" cy="67.8807947" rx="2.31788079" ry="2.31788079"></ellipse>
            <ellipse id="Oval-7-Copy-21" fill="#DA170D" cx="342.05298" cy="120.860927" rx="2.31788079" ry="2.31788079"></ellipse>
            <ellipse id="Oval-7-Copy-9" fill="#DA170D" cx="373.84106" cy="67.8807947" rx="2.31788079" ry="2.31788079"></ellipse>
            <ellipse id="Oval-7-Copy-22" fill="#DA170D" cx="350.662252" cy="120.860927" rx="2.31788079" ry="2.31788079"></ellipse>
            <ellipse id="Oval-7-Copy-10" fill="#DA170D" cx="382.450331" cy="67.8807947" rx="2.31788079" ry="2.31788079"></ellipse>
            <ellipse id="Oval-7-Copy-23" fill="#DA170D" cx="359.271523" cy="120.860927" rx="2.31788079" ry="2.31788079"></ellipse>
            <ellipse id="Oval-7-Copy-11" fill="#DA170D" cx="391.059603" cy="67.8807947" rx="2.31788079" ry="2.31788079"></ellipse>
            <ellipse id="Oval-7-Copy-24" fill="#DA170D" cx="367.880795" cy="120.860927" rx="2.31788079" ry="2.31788079"></ellipse>
            <ellipse id="Oval-7-Copy-26" fill="#DA170D" cx="385.099338" cy="120.860927" rx="2.31788079" ry="2.31788079"></ellipse>
            <ellipse id="Oval-7-Copy-12" fill="#DA170D" cx="399.668874" cy="67.8807947" rx="2.31788079" ry="2.31788079"></ellipse>
            <ellipse id="Oval-7-Copy-25" fill="#DA170D" cx="376.490066" cy="120.860927" rx="2.31788079" ry="2.31788079"></ellipse>
            <ellipse id="Oval-7-Copy-27" fill="#DA170D" cx="393.708609" cy="120.860927" rx="2.31788079" ry="2.31788079"></ellipse>
            <ellipse id="Oval-7-Copy-29" fill="#DA170D" cx="402.317881" cy="120.860927" rx="2.31788079" ry="2.31788079"></ellipse>
            <ellipse id="Oval-7-Copy-28" fill="#DA170D" cx="410.927152" cy="120.860927" rx="2.31788079" ry="2.31788079"></ellipse>
        </g>
        <use id="Rectangle-57" stroke="#4E5058" mask="url(#mask-39)" stroke-width="4" fill="url(#linearGradient-5)" xlink:href="#path-38"></use>
        <g id="Group-2" transform="translate(248.344371, 171.523179)">
            <use id="Rectangle-53" stroke="#4E5058" mask="url(#mask-42)" stroke-width="4" fill="url(#linearGradient-40)" xlink:href="#path-41"></use>
            <path d="M50.9933775,41.0596026 L50.9933775,31.1258278 L34.4370861,31.1258278 L34.4370861,31.1425752 C34.2454042,31.1314617 34.0522517,31.1258278 33.8577831,31.1258278 C28.4161258,31.1258278 24.0069569,35.5354813 24.0069569,40.9750644 L24.0069569,255.713677 C24.0069569,261.153492 28.417322,265.562914 33.8577831,265.562914 C34.0522541,265.562914 34.2454065,265.557282 34.4370861,265.546173 L34.4370861,265.562914 L50.9933775,265.562914 L50.9933775,256.291391 L481.456954,256.291391 L481.456954,282.10257 C479.00402,282.548539 476.476754,282.781457 473.895002,282.781457 L41.9990377,282.781457 C18.8036097,282.781457 0,263.979098 0,240.774594 L0,52.6028894 C0,29.4031396 18.7997774,10.5960265 41.9990377,10.5960265 L89.4039735,10.5960265 L89.4039735,0 L450.331126,0 L450.331126,10.5960265 L473.895002,10.5960265 C476.476682,10.5960265 479.003956,10.8289495 481.456954,11.2749405 L481.456954,41.0596026 L50.9933775,41.0596026 Z M50.9933775,55.6291391 L481.456954,55.6291391 L481.456954,241.721854 L50.9933775,241.721854 L50.9933775,211.46218 C54.671865,214.636685 59.4637031,216.556291 64.7039322,216.556291 L433.971564,216.556291 C445.555156,216.556291 454.966887,207.156352 454.966887,195.560939 L454.966887,97.8165448 C454.966887,86.2202177 445.566961,76.8211921 433.971564,76.8211921 L64.7039322,76.8211921 C59.4667578,76.8211921 54.673539,78.7426579 50.9933775,81.9197597 L50.9933775,55.6291391 Z" id="Rectangle-58-Copy" fill="#27ACEA"></path>
            <path d="M92.0529801,6.62251656 L446.357616,6.62251656" id="Line" stroke="#FFFFFF" stroke-width="2" stroke-linecap="square" stroke-dasharray="6"></path>
            <path d="M23.1788079,12.5827815 L479.179445,12.5827815" id="Line-Copy" stroke="#FFFFFF" stroke-width="2" stroke-linecap="square" stroke-dasharray="6"></path>
            <path d="M12.5827815,18.5430464 L479.179445,18.5430464" id="Line-Copy-2" stroke="#FFFFFF" stroke-width="2" stroke-linecap="square" stroke-dasharray="6"></path>
            <path d="M5.29801325,24.5033113 L479.179445,24.5033113" id="Line-Copy-3" stroke="#FFFFFF" stroke-width="2" stroke-linecap="square" stroke-dasharray="6"></path>
            <path d="M3.60956604,30.4635762 L479.179445,30.4635762" id="Line-Copy-4" stroke="#FFFFFF" stroke-width="2" stroke-linecap="square" stroke-dasharray="6"></path>
            <path d="M2.94938309,36.4238411 L21.192053,36.4238411" id="Line-Copy-5" stroke="#FFFFFF" stroke-width="2" stroke-linecap="square" stroke-dasharray="6"></path>
            <path d="M51.293754,36.4238411 L480.134512,36.4238411" id="Line-Copy-81" stroke="#FFFFFF" stroke-width="2" stroke-linecap="square" stroke-dasharray="6"></path>
            <path d="M1.95546709,42.384106 L21.8543051,42.384106" id="Line-Copy-6" stroke="#FFFFFF" stroke-width="2" stroke-linecap="square" stroke-dasharray="6"></path>
            <path d="M1.95546709,48.3443709 L21.1920535,48.3443709" id="Line-Copy-7" stroke="#FFFFFF" stroke-width="2" stroke-linecap="square" stroke-dasharray="6"></path>
            <path d="M1.95700744,54.3046358 L25.798067,54.3046358" id="Line-Copy-8" stroke="#FFFFFF" stroke-width="2" stroke-linecap="square" stroke-dasharray="6"></path>
            <path d="M1.95700744,60.2649007 L25.798067,60.2649007" id="Line-Copy-9" stroke="#FFFFFF" stroke-width="2" stroke-linecap="square" stroke-dasharray="6"></path>
            <path d="M51.2646661,60.2649007 L479.470199,60.2649007" id="Line-Copy-72" stroke="#FFFFFF" stroke-width="2" stroke-linecap="square" stroke-dasharray="6"></path>
            <path d="M1.95700744,66.2251656 L25.798067,66.2251656" id="Line-Copy-10" stroke="#FFFFFF" stroke-width="2" stroke-linecap="square" stroke-dasharray="6"></path>
            <path d="M51.2646661,66.2251656 L478.807947,66.2251656" id="Line-Copy-73" stroke="#FFFFFF" stroke-width="2" stroke-linecap="square" stroke-dasharray="6"></path>
            <path d="M1.95700744,72.1854305 L25.798067,72.1854305" id="Line-Copy-11" stroke="#FFFFFF" stroke-width="2" stroke-linecap="square" stroke-dasharray="6"></path>
            <path d="M51.2646661,72.1854305 L479.470199,72.1854305" id="Line-Copy-74" stroke="#FFFFFF" stroke-width="2" stroke-linecap="square" stroke-dasharray="6"></path>
            <path d="M2.16417282,78.1456954 L26.0052324,78.1456954" id="Line-Copy-12" stroke="#FFFFFF" stroke-width="2" stroke-linecap="square" stroke-dasharray="6"></path>
            <path d="M456.591767,78.1456954 L480.13245,78.1456954" id="Line-Copy-70" stroke="#FFFFFF" stroke-width="2" stroke-linecap="square" stroke-dasharray="6"></path>
            <path d="M2.16417282,84.1059603 L26.0052324,84.1059603" id="Line-Copy-13" stroke="#FFFFFF" stroke-width="2" stroke-linecap="square" stroke-dasharray="6"></path>
            <path d="M458.549217,84.1059603 L482.251724,84.1059603" id="Line-Copy-48" stroke="#FFFFFF" stroke-width="2" stroke-linecap="square" stroke-dasharray="6"></path>
            <path d="M1.95796929,90.0662252 L25.7990289,90.0662252" id="Line-Copy-14" stroke="#FFFFFF" stroke-width="2" stroke-linecap="square" stroke-dasharray="6"></path>
            <path d="M458.278146,90.0662252 L481.65789,90.0662252" id="Line-Copy-49" stroke="#FFFFFF" stroke-width="2" stroke-linecap="square" stroke-dasharray="6"></path>
            <path d="M1.95796929,96.0264901 L25.7990289,96.0264901" id="Line-Copy-15" stroke="#FFFFFF" stroke-width="2" stroke-linecap="square" stroke-dasharray="6"></path>
            <path d="M458.278146,96.0264901 L481.65789,96.0264901" id="Line-Copy-50" stroke="#FFFFFF" stroke-width="2" stroke-linecap="square" stroke-dasharray="6"></path>
            <path d="M1.95796929,101.986755 L25.7990289,101.986755" id="Line-Copy-16" stroke="#FFFFFF" stroke-width="2" stroke-linecap="square" stroke-dasharray="6"></path>
            <path d="M458.278146,101.986755 L481.65789,101.986755" id="Line-Copy-51" stroke="#FFFFFF" stroke-width="2" stroke-linecap="square" stroke-dasharray="6"></path>
            <path d="M1.95796929,107.94702 L25.7990289,107.94702" id="Line-Copy-17" stroke="#FFFFFF" stroke-width="2" stroke-linecap="square" stroke-dasharray="6"></path>
            <path d="M458.278146,107.94702 L481.65789,107.94702" id="Line-Copy-52" stroke="#FFFFFF" stroke-width="2" stroke-linecap="square" stroke-dasharray="6"></path>
            <path d="M1.95796929,113.907285 L25.7990289,113.907285" id="Line-Copy-18" stroke="#FFFFFF" stroke-width="2" stroke-linecap="square" stroke-dasharray="6"></path>
            <path d="M458.278146,113.907285 L481.65789,113.907285" id="Line-Copy-53" stroke="#FFFFFF" stroke-width="2" stroke-linecap="square" stroke-dasharray="6"></path>
            <path d="M1.95796929,119.86755 L25.7990289,119.86755" id="Line-Copy-19" stroke="#FFFFFF" stroke-width="2" stroke-linecap="square" stroke-dasharray="6"></path>
            <path d="M458.278146,119.86755 L481.65789,119.86755" id="Line-Copy-54" stroke="#FFFFFF" stroke-width="2" stroke-linecap="square" stroke-dasharray="6"></path>
            <path d="M1.95796929,125.827815 L25.7990289,125.827815" id="Line-Copy-20" stroke="#FFFFFF" stroke-width="2" stroke-linecap="square" stroke-dasharray="6"></path>
            <path d="M458.278146,125.827815 L481.65789,125.827815" id="Line-Copy-55" stroke="#FFFFFF" stroke-width="2" stroke-linecap="square" stroke-dasharray="6"></path>
            <path d="M1.95796929,131.788079 L25.7990289,131.788079" id="Line-Copy-21" stroke="#FFFFFF" stroke-width="2" stroke-linecap="square" stroke-dasharray="6"></path>
            <path d="M458.278146,131.788079 L481.65789,131.788079" id="Line-Copy-56" stroke="#FFFFFF" stroke-width="2" stroke-linecap="square" stroke-dasharray="6"></path>
            <path d="M1.95796929,137.748344 L25.7990289,137.748344" id="Line-Copy-22" stroke="#FFFFFF" stroke-width="2" stroke-linecap="square" stroke-dasharray="6"></path>
            <path d="M458.278146,137.748344 L481.65789,137.748344" id="Line-Copy-57" stroke="#FFFFFF" stroke-width="2" stroke-linecap="square" stroke-dasharray="6"></path>
            <path d="M1.95796929,143.708609 L25.7990289,143.708609" id="Line-Copy-23" stroke="#FFFFFF" stroke-width="2" stroke-linecap="square" stroke-dasharray="6"></path>
            <path d="M458.278146,143.708609 L481.65789,143.708609" id="Line-Copy-58" stroke="#FFFFFF" stroke-width="2" stroke-linecap="square" stroke-dasharray="6"></path>
            <path d="M1.95796929,149.668874 L25.7990289,149.668874" id="Line-Copy-24" stroke="#FFFFFF" stroke-width="2" stroke-linecap="square" stroke-dasharray="6"></path>
            <path d="M458.278146,149.668874 L481.65789,149.668874" id="Line-Copy-59" stroke="#FFFFFF" stroke-width="2" stroke-linecap="square" stroke-dasharray="6"></path>
            <path d="M1.95796929,155.629139 L25.7990289,155.629139" id="Line-Copy-25" stroke="#FFFFFF" stroke-width="2" stroke-linecap="square" stroke-dasharray="6"></path>
            <path d="M458.278146,155.629139 L481.65789,155.629139" id="Line-Copy-60" stroke="#FFFFFF" stroke-width="2" stroke-linecap="square" stroke-dasharray="6"></path>
            <path d="M1.95796929,161.589404 L25.7990289,161.589404" id="Line-Copy-26" stroke="#FFFFFF" stroke-width="2" stroke-linecap="square" stroke-dasharray="6"></path>
            <path d="M458.278146,161.589404 L481.65789,161.589404" id="Line-Copy-61" stroke="#FFFFFF" stroke-width="2" stroke-linecap="square" stroke-dasharray="6"></path>
            <path d="M1.95796929,167.549669 L25.7990289,167.549669" id="Line-Copy-27" stroke="#FFFFFF" stroke-width="2" stroke-linecap="square" stroke-dasharray="6"></path>
            <path d="M458.278146,167.549669 L481.65789,167.549669" id="Line-Copy-62" stroke="#FFFFFF" stroke-width="2" stroke-linecap="square" stroke-dasharray="6"></path>
            <path d="M1.95796929,173.509934 L25.7990289,173.509934" id="Line-Copy-28" stroke="#FFFFFF" stroke-width="2" stroke-linecap="square" stroke-dasharray="6"></path>
            <path d="M458.278146,173.509934 L481.65789,173.509934" id="Line-Copy-63" stroke="#FFFFFF" stroke-width="2" stroke-linecap="square" stroke-dasharray="6"></path>
            <path d="M1.95796929,179.470199 L25.7990289,179.470199" id="Line-Copy-29" stroke="#FFFFFF" stroke-width="2" stroke-linecap="square" stroke-dasharray="6"></path>
            <path d="M458.278146,179.470199 L481.65789,179.470199" id="Line-Copy-64" stroke="#FFFFFF" stroke-width="2" stroke-linecap="square" stroke-dasharray="6"></path>
            <path d="M1.95796929,185.430464 L25.7990289,185.430464" id="Line-Copy-30" stroke="#FFFFFF" stroke-width="2" stroke-linecap="square" stroke-dasharray="6"></path>
            <path d="M458.278146,185.430464 L481.65789,185.430464" id="Line-Copy-65" stroke="#FFFFFF" stroke-width="2" stroke-linecap="square" stroke-dasharray="6"></path>
            <path d="M1.95796929,191.390728 L25.7990289,191.390728" id="Line-Copy-31" stroke="#FFFFFF" stroke-width="2" stroke-linecap="square" stroke-dasharray="6"></path>
            <path d="M458.278146,191.390728 L481.65789,191.390728" id="Line-Copy-66" stroke="#FFFFFF" stroke-width="2" stroke-linecap="square" stroke-dasharray="6"></path>
            <path d="M1.95796929,197.350993 L25.7990289,197.350993" id="Line-Copy-32" stroke="#FFFFFF" stroke-width="2" stroke-linecap="square" stroke-dasharray="6"></path>
            <path d="M458.278146,197.350993 L481.65789,197.350993" id="Line-Copy-67" stroke="#FFFFFF" stroke-width="2" stroke-linecap="square" stroke-dasharray="6"></path>
            <path d="M1.95796929,203.311258 L25.7990289,203.311258" id="Line-Copy-33" stroke="#FFFFFF" stroke-width="2" stroke-linecap="square" stroke-dasharray="6"></path>
            <path d="M458.278146,203.311258 L481.65789,203.311258" id="Line-Copy-68" stroke="#FFFFFF" stroke-width="2" stroke-linecap="square" stroke-dasharray="6"></path>
            <path d="M1.95796929,209.271523 L25.7990289,209.271523" id="Line-Copy-34" stroke="#FFFFFF" stroke-width="2" stroke-linecap="square" stroke-dasharray="6"></path>
            <path d="M458.278146,209.271523 L481.65789,209.271523" id="Line-Copy-69" stroke="#FFFFFF" stroke-width="2" stroke-linecap="square" stroke-dasharray="6"></path>
            <path d="M451.655629,215.231788 L478.145695,215.231788" id="Line-Copy-75" stroke="#FFFFFF" stroke-width="2" stroke-linecap="square" stroke-dasharray="6"></path>
            <path d="M1.96141174,215.231788 L25.8024713,215.231788" id="Line-Copy-35" stroke="#FFFFFF" stroke-width="2" stroke-linecap="square" stroke-dasharray="6"></path>
            <path d="M1.96141174,221.192053 L25.8024713,221.192053" id="Line-Copy-36" stroke="#FFFFFF" stroke-width="2" stroke-linecap="square" stroke-dasharray="6"></path>
            <path d="M52.9801325,221.192053 L481.600167,221.192053" id="Line-Copy-76" stroke="#FFFFFF" stroke-width="2" stroke-linecap="square" stroke-dasharray="6"></path>
            <path d="M1.96141174,227.152318 L25.8024713,227.152318" id="Line-Copy-37" stroke="#FFFFFF" stroke-width="2" stroke-linecap="square" stroke-dasharray="6"></path>
            <path d="M52.9801325,227.152318 L481.600167,227.152318" id="Line-Copy-77" stroke="#FFFFFF" stroke-width="2" stroke-linecap="square" stroke-dasharray="6"></path>
            <path d="M1.96141174,233.112583 L25.8024713,233.112583" id="Line-Copy-38" stroke="#FFFFFF" stroke-width="2" stroke-linecap="square" stroke-dasharray="6"></path>
            <path d="M52.9801325,233.112583 L481.600167,233.112583" id="Line-Copy-78" stroke="#FFFFFF" stroke-width="2" stroke-linecap="square" stroke-dasharray="6"></path>
            <path d="M1.96141174,239.072848 L25.8024713,239.072848" id="Line-Copy-39" stroke="#FFFFFF" stroke-width="2" stroke-linecap="square" stroke-dasharray="6"></path>
            <path d="M52.9801325,239.072848 L481.600167,239.072848" id="Line-Copy-79" stroke="#FFFFFF" stroke-width="2" stroke-linecap="square" stroke-dasharray="6"></path>
            <path d="M2.0021057,245.033113 L25.8431653,245.033113" id="Line-Copy-40" stroke="#FFFFFF" stroke-width="2" stroke-linecap="square" stroke-dasharray="6"></path>
            <path d="M2.0021057,250.993377 L25.8431653,250.993377" id="Line-Copy-41" stroke="#FFFFFF" stroke-width="2" stroke-linecap="square" stroke-dasharray="6"></path>
            <path d="M1.98675497,256.953642 L23.1788079,256.953642" id="Line-Copy-42" stroke="#FFFFFF" stroke-width="2" stroke-linecap="square" stroke-dasharray="6"></path>
            <path d="M50.9933775,258.940397 L480.794702,258.940397" id="Line-Copy-47" stroke="#FFFFFF" stroke-width="2" stroke-linecap="square" stroke-dasharray="6"></path>
            <path d="M3.39406896,262.913907 L24.503311,262.913907" id="Line-Copy-43" stroke="#FFFFFF" stroke-width="2" stroke-linecap="square" stroke-dasharray="6"></path>
            <path d="M62.6839271,264.238411 L483.76712,264.238411" id="Line-Copy-80" stroke="#FFFFFF" stroke-width="2" stroke-linecap="square" stroke-dasharray="6"></path>
            <path d="M5.28889132,270.198675 L481.15583,270.198675" id="Line-Copy-44" stroke="#FFFFFF" stroke-width="2" stroke-linecap="square" stroke-dasharray="6"></path>
            <path d="M11.2327368,275.496689 L481.15583,275.496689" id="Line-Copy-45" stroke="#FFFFFF" stroke-width="2" stroke-linecap="square" stroke-dasharray="6"></path>
            <path d="M23.1204276,280.794702 L481.15583,280.794702" id="Line-Copy-46" stroke="#FFFFFF" stroke-width="2" stroke-linecap="square" stroke-dasharray="6"></path>
            <use id="Rectangle-74" stroke="#4E5058" mask="url(#mask-44)" stroke-width="4" fill="url(#linearGradient-5)" xlink:href="#path-43"></use>
        </g>
        <path d="M507.284768,219.86755 L507.284768,221.854305 L519.205298,217.549669 L507.284768,213.245033 L507.284768,215.231788 L497.350993,215.231788 L497.350993,219.86755 L507.284768,219.86755 Z" id="Triangle-7" stroke="#DCE0E8" stroke-width="2" fill="#D9211A"></path>
        <use id="Rectangle-76" stroke="#4E5058" mask="url(#mask-47)" stroke-width="4" fill="url(#linearGradient-45)" xlink:href="#path-46"></use>
        <use id="Rectangle-76-Copy" stroke="#4E5058" mask="url(#mask-49)" stroke-width="4" fill="url(#linearGradient-45)" xlink:href="#path-48"></use>
        <g id="Group-12" transform="translate(0.000000, 270.860927)">
            <g id="Group-11" transform="translate(249.006623, 15.231788)">
                <use id="Rectangle-78" stroke="#4E5058" mask="url(#mask-51)" stroke-width="4" fill="url(#linearGradient-5)" xlink:href="#path-50"></use>
                <use id="Rectangle-80" stroke-opacity="0.46521173" stroke="#6D727F" mask="url(#mask-53)" stroke-width="2" fill="#D8D8D8" xlink:href="#path-52"></use>
                <use id="Rectangle-80-Copy" stroke-opacity="0.46521173" stroke="#6D727F" mask="url(#mask-55)" stroke-width="2" fill="#D8D8D8" xlink:href="#path-54"></use>
                <use id="Rectangle-82" stroke="#4E5058" mask="url(#mask-57)" stroke-width="4" fill="url(#linearGradient-5)" xlink:href="#path-56"></use>
                <use id="Rectangle-82" stroke="#4E5058" mask="url(#mask-60)" stroke-width="4" fill="url(#linearGradient-58)" xlink:href="#path-59"></use>
            </g>
            <g id="Group-6" stroke="#4E5058">
                <use id="Rectangle-90" mask="url(#mask-62)" stroke-width="4" fill="url(#linearGradient-45)" xlink:href="#path-61"></use>
                <path d="M42.384106,107.814426 C24.2470968,104.132807 10.5960265,88.0976788 10.5960265,68.8741722 C10.5960265,49.6506656 24.2470968,33.6155373 42.384106,29.9339188 L42.384106,107.814426 Z" id="Oval-40" stroke-width="2" fill="#D8D8D8"></path>
                <g id="Group-4" transform="translate(27.152318, 39.735099)" stroke-width="2" fill="#D8D8D8">
                    <path d="M62.9303989,112.740331 C31.292895,112.740331 0,87.5549895 0,55.9174857 C0,24.2799818 28.3320749,0 67.5765132,0 C106.820952,0 125.860798,26.631826 125.860798,58.2693299 C125.860798,89.9068338 94.5679028,112.740331 62.9303989,112.740331 Z M61.2582781,88.7417219 C82.2889888,88.7417219 99.3377483,73.7684635 99.3377483,55.2980132 C99.3377483,36.827563 82.2889888,21.8543046 61.2582781,21.8543046 C40.2275675,21.8543046 23.1788079,36.827563 23.1788079,55.2980132 C23.1788079,73.7684635 40.2275675,88.7417219 61.2582781,88.7417219 Z" id="Oval-40-Copy"></path>
                    <path d="M67.8459973,107.679232 C37.7150103,107.679232 -0.829809743,79.2749069 2.90039766,48.3149325 C6.63060507,17.3549581 39.7671426,3.45939742 67.8459973,0.230981865 C95.9248521,-2.99743369 123.35489,28.2698478 123.354895,53.1485008 C123.3549,78.0271539 97.9769844,107.679232 67.8459973,107.679232 Z M65.5799017,82.4713233 C81.6152977,82.4713233 95.1211587,66.6907976 95.1211562,53.4506388 C95.1211536,40.2104801 80.5231744,23.5703601 65.5799017,25.288489 C50.6366291,27.006618 33.0017106,34.40169 31.0165333,50.8782643 C29.0313559,67.3548387 49.5445058,82.4713233 65.5799017,82.4713233 Z" id="Oval-40-Copy-2"></path>
                </g>
                <g id="Group-5" stroke-width="2">
                    <path d="M184.799529,17.1753612 C162.799334,9.75455735 112.558126,-2.87181234e-08 80.0025952,0 C47.4470643,2.87181234e-08 34.0718671,2.09170288 18.8974399,14.0125931 C3.72301267,25.9334834 -3.42346944,47.7743288 1.58693553,74.5892758 C25.4468703,64.3062465 43.1406192,58.3135279 80.002594,53.6601439 C116.864569,49.00676 174.681907,47.0865083 185.78386,50.515531 C196.885813,53.9445536 206.799724,24.5961651 184.799529,17.1753612 Z" id="Path-91" fill="#DCE0E8"></path>
                    <path d="M183.770278,25.5566805 C161.770083,18.1358767 125.357749,10.5960635 92.8022182,10.5960635 C60.2466874,10.5960636 48.2291516,10.4851257 33.0547244,22.406016 C22.7313537,31.8398583 19.0571885,55.0971429 20.0135354,67.1161981 C42.1254925,59.788397 55.9020965,55.4900188 95.297511,51.5305071 C134.692925,47.5709953 185.363775,48.1014844 196.465728,51.5305071 C207.567681,54.9595297 205.770474,32.9774844 183.770278,25.5566805 Z" id="Path-91-Copy" fill="#DC4B40"></path>
                </g>
            </g>
            <g id="Group-3" transform="translate(188.079470, 7.284768)">
                <use id="Rectangle-89" stroke="#4E5058" mask="url(#mask-64)" stroke-width="4" fill="#A9A9A9" xlink:href="#path-63"></use>
                <use id="Rectangle-83" stroke="#4E5058" mask="url(#mask-66)" stroke-width="4" fill="#D8D8D8" xlink:href="#path-65"></use>
                <use id="Rectangle-83-Copy" stroke="#4E5058" mask="url(#mask-68)" stroke-width="4" fill="#D8D8D8" xlink:href="#path-67"></use>
                <circle id="Oval-37" stroke="#4E5058" stroke-width="2" fill="url(#radialGradient-69)" cx="37.4172185" cy="97.0198675" r="17.5496689"></circle>
                <circle id="Oval-38" fill="#4E5058" cx="15.8940397" cy="29.8013245" r="3.31125828"></circle>
                <circle id="Oval-38-Copy" fill="#F8F8F7" cx="49.6688742" cy="36.4238411" r="3.31125828"></circle>
                <use id="Rectangle-83-Copy-5" stroke="#4E5058" mask="url(#mask-71)" stroke-width="4" fill="#D8D8D8" xlink:href="#path-70"></use>
                <use id="Rectangle-83-Copy-2" stroke="#4E5058" mask="url(#mask-73)" stroke-width="4" fill="#D8D8D8" transform="translate(59.271523, 39.735099) rotate(-270.000000) translate(-59.271523, -39.735099) " xlink:href="#path-72"></use>
                <use id="Rectangle-83-Copy-3" stroke="#4E5058" mask="url(#mask-75)" stroke-width="4" fill="#D8D8D8" transform="translate(3.311258, 38.410596) rotate(-270.000000) translate(-3.311258, -38.410596) " xlink:href="#path-74"></use>
                <use id="Rectangle-83-Copy-4" stroke="#4E5058" mask="url(#mask-78)" stroke-width="4" fill="url(#linearGradient-76)" transform="translate(12.913907, 76.821192) rotate(-270.000000) translate(-12.913907, -76.821192) " xlink:href="#path-77"></use>
            </g>
        </g>
    </g>
</svg>