
<svg width="100px" height="100px" viewBox="-50 -50 100 100" version="1.1" xmlns="http://www.w3.org/2000/svg" xmlns:xlink="http://www.w3.org/1999/xlink">
    <!-- Generator: Sketch 42 (36781) - http://www.bohemiancoding.com/sketch -->
    <desc>Created with Sketch.</desc>
    <defs>
        <g id="Sensor_FILL">
            <path fill="#FF0000" stroke="none" d="
M -25.4 -21.65
L -27.05 -21.45 -30 -20.55 -31.2 -19.9 -32.15 -19.1 -32.8 -18.25 -33.15 -17.35 -33.2 -16.85 -33.15 -16.3 -32.8 -15.4 -32.15 -14.55 -31.2 -13.75 -30 -13.1 -27.05 -12.2 -25.4 -12 -23.6 -12 -21.95 -12.2 -18.95 -13.1 -17.8 -13.75 -16.85 -14.55 -16.2 -15.4 -15.85 -16.3 -15.8 -16.85 -15.85 -17.35 -16 -17.8 -16.5 -18.7 -17.3 -19.55 -18.35 -20.25 -21.15 -21.25 -22.75 -21.55 -25.4 -21.65 Z
M 33.05 -10.8
L 34.15 -22.85 -26.7 -22.85 -25.6 -10.8 33.05 -10.8 Z
M 27.65 -10.8
L 5.9 -10.8 8.1 -3.55 25.45 -3.55 27.65 -10.8 Z
"/>
            <path fill="#000000" stroke="none" d="
M 10.75 -10.2
L 9.75 -10.15 10.85 -4.7 11.8 -4.8 10.75 -10.2 Z
M 13.95 1.3
L 13 1.3 13 18.8 13.95 18.8 13.95 1.3 Z
M -22.95 -21.65
L -23.9 -21.65 -22.85 -11.35 -21.85 -11.4 -22.95 -21.65 Z
"/>
            <path fill="#FFFFFF" stroke="none" d="
M 33.05 -12
L 34.15 -21.65 17.85 -21.65 16.75 -12 33.05 -12 Z
M 12.4 -44
L 9.15 -44 10.2 -23.45 12.4 -23.45 12.4 -44 Z
M 8.05 -13.8
L 8.05 -19.85 -18 -19.85 -18 -13.8 8.05 -13.8 Z
"/>
            <path fill="#E5E5E5" stroke="none" d="
M 34.15 -22.85
L 33.05 -44.6 -25.6 -44.6 -26.7 -22.85 34.15 -22.85 Z"/>
            <path fill="#7F7F7F" stroke="none" d="
M 16.75 -44.55
L 16.75 -47.55 14.6 -47.6 14.55 -47.2 14.2 -46.55 13.3 -45.85 12 -45.75 10.9 -46.25 10.45 -46.85 10.25 -47.6 8.1 -47.55 8.15 -44.55 16.75 -44.55 Z
M 23.3 -3.55
L 10.25 -3.55 10.25 0.05 23.3 0.05 23.3 -3.55 Z
M -2.8 -47.6
L -2.85 -47.2 -3.2 -46.55 -4.15 -45.85 -5.4 -45.75 -6.55 -46.25 -7 -46.85 -7.15 -47.6 -9.3 -47.55 -9.3 -44.55 -0.65 -44.55 -0.65 -47.55 -2.8 -47.6 Z
M 12.4 -23.45
L 15.65 -23.45 14.6 -44 12.4 -44 12.4 -23.45 Z
M -25.6 -23.45
L -20.15 -23.45 -20.15 -44 -24.5 -44 -25.6 -23.45 Z
"/>
            <path fill="#B2B2B2" stroke="none" d="
M 22.15 0.05
L 11.35 0.05 11.35 20.6 22.15 20.6 22.15 0.05 Z"/>
        </g>

        <path id="Sensor_STROKES" stroke="#000000" stroke-width="1" stroke-linejoin="round"
              stroke-linecap="round" fill="none" d="
M -25.4 -21.65
L -22.75 -21.55 -21.15 -21.25 -18.35 -20.25 -17.3 -19.55 -16.5 -18.7 -16 -17.8 -15.85 -17.35 -15.8 -16.85 -15.85 -16.3 -16.2 -15.4 -16.85 -14.55 -17.8 -13.75 -18.95 -13.1 -21.95 -12.2 -23.6 -12 -25.4 -12 -27.05 -12.2 -30 -13.1 -31.2 -13.75 -32.15 -14.55 -32.8 -15.4 -33.15 -16.3 -33.2 -16.85 -33.15 -17.35 -32.8 -18.25 -32.15 -19.1 -31.2 -19.9 -30 -20.55 -27.05 -21.45 -25.4 -21.65 Z
M -25.6 -44.6
L 33.05 -44.6 34.15 -22.85 -26.7 -22.85 -25.6 -44.6 Z
M -25.6 -10.8
L 33.05 -10.8 34.15 -22.85 -26.7 -22.85 -25.6 -10.8 Z
M 33.05 -12
L 16.75 -12 17.85 -21.65 34.15 -21.65 33.05 -12 Z
M -18 -19.85
L 8.05 -19.85 8.05 -13.8 -18 -13.8 -18 -19.85 Z
M -2.8 -47.6
L -0.65 -47.55 -0.65 -44.55 -9.3 -44.55 -9.3 -47.55 -7.15 -47.6 -7 -46.85 -6.55 -46.25 -5.4 -45.75 -4.15 -45.85 -3.2 -46.55 -2.85 -47.2 -2.8 -47.6 Z
M 14.6 -47.6
L 16.75 -47.55 16.75 -44.55 8.15 -44.55 8.1 -47.55 10.25 -47.6 10.45 -46.85 10.9 -46.25 12 -45.75 13.3 -45.85 14.2 -46.55 14.55 -47.2 14.6 -47.6 Z
M 5.9 -10.8
L 8.1 -3.55 25.45 -3.55 27.65 -10.8 5.9 -10.8 Z
M 10.25 -3.55
L 23.3 -3.55 23.3 0.05 10.25 0.05 10.25 -3.55 Z
M 22.15 0.05
L 22.15 20.6 11.35 20.6 11.35 0.05 22.15 0.05 Z
"/>

    </defs>
    <!--<g transform="matrix(
    -0.25244140625, -0.008056640625, 0.015869140625, -0.3835906982421875,
    x, y) ">-->
    <g transform="matrix(1, 0, 0, 1, 0,0) ">
        <use xlink:href="#Sensor_FILL"/>
        <use xlink:href="#Sensor_STROKES"/>
    </g>
</svg>