<svg width="100px" height="100px" viewBox="-50 -50 100 100" version="1.1" xmlns="http://www.w3.org/2000/svg" xmlns:xlink="http://www.w3.org/1999/xlink">
    <!-- Generator: Sketch 42 (36781) - http://www.bohemiancoding.com/sketch -->
    <desc>Created with Sketch.</desc>
    <defs>
        <g id="Valve_FILL">
            <path fill="#7F7F7F" stroke="none" d="
M 5.5 1.25
L 5.5 5.6 6.55 5.6 6.55 1.25 5.5 1.25 Z"/>
            <path fill="#B2B2B2" stroke="none" d="
M 5.7 1.25
L 5.7 5.6 6.35 5.6 6.35 1.25 5.7 1.25 Z"/>
            <path fill="#E5E5E5" stroke="none" d="
M 5.95 1.25
L 5.95 5.6 6.1 5.6 6.1 1.25 5.95 1.25 Z"/>
            <path fill="#000099" stroke="none" d="
M 2.15 8.4
L 2.15 13.4 9.85 13.4 9.85 8.4 2.15 8.4 Z"/>
            <path fill="#0000BA" stroke="none" d="
M 2.2 9.1
L 2.2 12.65 9.85 12.65 9.85 9.1 2.2 9.1 Z"/>
            <path fill="#0000DE" stroke="none" d="
M 2.2 9.8
L 2.2 11.9 9.85 11.9 9.85 9.8 2.2 9.8 Z"/>
            <path fill="#0000FF" stroke="none" d="
M 2.15 10.6
L 2.15 11.15 9.85 11.15 9.85 10.6 2.15 10.6 Z"/>
            <path fill="#000099" stroke="none" d="
M 11.7 15
L 11.7 6.65 9.8 6.65 9.8 15 11.7 15 Z"/>
            <path fill="#000066" stroke="none" d="
M 4.15 8.85
L 4.45 9.2 4.7 9.35 4.85 9.45 5 9.5 5.15 9.55 5.9 9.7 6.25 9.7 6.95 9.55 7.1 9.5 7.4 9.35 7.65 9.2 7.85 9 8 8.75 8.05 8.45 8.05 7.95 4.1 7.95 4.1 8.45 4.15 8.75 4.15 8.85 Z"/>
            <path fill="#000078" stroke="none" d="
M 4.6 7.95
L 4.6 8.6 4.6 8.75 4.65 8.85 4.8 9.1 4.95 9.3 5.15 9.45 5.5 9.6 5.8 9.65 6.35 9.65 6.6 9.6 6.95 9.45 7.05 9.35 7.2 9.3 7.25 9.2 7.35 9.1 7.4 9 7.5 8.75 7.55 8.45 7.55 7.95 4.6 7.95 Z"/>
            <path fill="#000087" stroke="none" d="
M 5.1 7.95
L 5.1 8.45 5.15 8.75 5.2 9 5.3 9.2 5.4 9.35 5.75 9.6 5.9 9.65 6.25 9.65 6.4 9.6 6.75 9.35 6.85 9.2 6.95 9 7 8.75 7.05 8.45 7.05 7.95 5.1 7.95 Z"/>
            <path fill="#000099" stroke="none" d="
M 5.6 7.95
L 5.6 8.75 5.7 9.2 5.75 9.35 5.8 9.5 5.95 9.65 6.05 9.7 6.15 9.65 6.3 9.5 6.4 9.35 6.45 9 6.5 8.45 6.5 7.95 5.6 7.95 Z"/>
            <path fill="#000099" stroke="none" d="
M 9.4 5.6
L 2.7 5.6 2.7 7.95 9.4 7.95 9.4 5.6 Z"/>
            <path fill="#0000BA" stroke="none" d="
M 8.4 5.6
L 3.7 5.6 3.7 7.9 8.4 7.9 8.4 5.6 Z"/>
            <path fill="#0000DE" stroke="none" d="
M 7.45 5.6
L 4.65 5.6 4.65 7.9 7.45 7.9 7.45 5.6 Z"/>
            <path fill="#0000FF" stroke="none" d="
M 6.45 5.6
L 5.65 5.6 5.65 7.95 6.45 7.95 6.45 5.6 Z"/>
            <path fill="#000000" stroke="none" d="
M 1.2 0
L 1.2 1.25 10.85 1.25 10.85 0 1.2 0 Z"/>
            <path fill="#7F7F7F" stroke="none" d="
M 1.2 0.25
L 1.2 1.05 10.85 1.05 10.85 0.25 1.2 0.25 Z"/>
            <path fill="#CCCCCC" stroke="none" d="
M 1.2 0.55
L 1.2 0.8 10.85 0.8 10.85 0.55 1.2 0.55 Z"/>
            <path fill="#595959" stroke="none" d="
M 2.6 0
L 2.6 1.25 9.45 1.25 9.45 0 2.6 0 Z"/>
            <path fill="#A6A6A6" stroke="none" d="
M 2.6 0.25
L 2.6 1.05 9.45 1.05 9.45 0.25 2.6 0.25 Z"/>
            <path fill="#E5E5E5" stroke="none" d="
M 2.6 0.55
L 2.6 0.8 9.45 0.8 9.45 0.55 2.6 0.55 Z"/>
            <path fill="#8C8C8C" stroke="none" d="
M 4.4 0
L 4.4 1.25 7.65 1.25 7.65 0 4.4 0 Z"/>
            <path fill="#CCCCCC" stroke="none" d="
M 4.4 0.25
L 4.4 1.05 7.65 1.05 7.65 0.25 4.4 0.25 Z"/>
            <path fill="#FFFFFF" stroke="none" d="
M 4.4 0.55
L 4.4 0.8 7.65 0.8 7.65 0.55 4.4 0.55 Z"/>
            <path fill="#000099" stroke="none" d="
M 4.5 5.6
L 4.95 5.6 4.95 2.45 7.1 2.45 7.1 5.6 7.5 5.6 7.5 1.9 4.5 1.9 4.5 5.6 Z"/>
            <path fill="#000099" stroke="none" d="
M 2.2 15
L 2.2 6.65 0.35 6.65 0.35 15 2.2 15 Z"/>
            <path fill="#000099" stroke="none" d="
M 12 13.5
L 11.7 13.35 11.7 14.65 12 14.5 12 13.5
M 9.8 13.35
L 9.5 13.5 9.5 14.5 9.8 14.65 9.8 13.35
M 9.8 8.4
L 9.8 7.05 9.5 7.25 9.5 8.2 9.8 8.4
M 9.8 11.55
L 9.8 10.2 9.5 10.35 9.5 11.4 9.8 11.55
M 11.7 7.05
L 11.7 8.4 12 8.2 12 7.25 11.7 7.05
M 11.7 10.2
L 11.7 11.55 12 11.4 12 10.35 11.7 10.2 Z"/>
            <path fill="#0000CC" stroke="none" d="
M 12 13.6
L 11.7 13.5 11.7 14.45 12 14.35 12 13.6
M 9.85 13.5
L 9.5 13.6 9.5 14.35 9.85 14.45 9.85 13.5
M 9.85 8.2
L 9.85 7.25 9.5 7.4 9.5 8.1 9.85 8.2
M 9.85 11.3
L 9.85 10.4 9.5 10.5 9.5 11.25 9.85 11.3
M 11.7 7.25
L 11.7 8.2 12 8.1 12 7.4 11.7 7.25
M 11.7 10.4
L 11.7 11.3 12 11.25 12 10.5 11.7 10.4 Z"/>
            <path fill="#0000FF" stroke="none" d="
M 11.7 13.75
L 11.7 14.25 12 14.2 12 13.8 11.7 13.75
M 9.8 14.25
L 9.8 13.75 9.5 13.8 9.5 14.2 9.8 14.25
M 9.8 7.45
L 9.5 7.5 9.5 7.95 9.8 8 9.8 7.45
M 9.8 11.15
L 9.8 10.6 9.5 10.65 9.5 11.1 9.8 11.15
M 12 7.5
L 11.7 7.45 11.7 8 12 7.95 12 7.5
M 11.7 10.6
L 11.7 11.15 12 11.1 12 10.65 11.7 10.6 Z"/>
            <path fill="#0000BA" stroke="none" d="
M 11.7 13.8
L 11.7 7.9 9.85 7.9 9.85 13.8 11.7 13.8 Z"/>
            <path fill="#0000DE" stroke="none" d="
M 11.7 12.6
L 11.7 9.1 9.85 9.1 9.85 12.6 11.7 12.6 Z"/>
            <path fill="#0000FF" stroke="none" d="
M 11.7 11.4
L 11.7 10.35 9.8 10.35 9.8 11.4 11.7 11.4 Z"/>
            <path fill="#000099" stroke="none" d="
M 2.55 13.5
L 2.2 13.35 2.2 14.65 2.55 14.5 2.55 13.5
M 0.35 13.35
L 0 13.5 0 14.5 0.35 14.65 0.35 13.35
M 2.2 10.2
L 2.2 11.55 2.55 11.4 2.55 10.35 2.2 10.2
M 0.35 11.55
L 0.35 10.2 0 10.35 0 11.4 0.35 11.55
M 0.35 8.4
L 0.35 7.05 0 7.25 0 8.2 0.35 8.4
M 2.55 8.2
L 2.55 7.25 2.2 7.05 2.2 8.4 2.55 8.2 Z"/>
            <path fill="#0000CC" stroke="none" d="
M 2.55 13.6
L 2.2 13.5 2.2 14.45 2.55 14.35 2.55 13.6
M 0.35 13.5
L 0 13.6 0 14.35 0.35 14.45 0.35 13.5
M 2.2 10.4
L 2.2 11.3 2.55 11.25 2.55 10.5 2.2 10.4
M 0.2 10.4
L 0.15 10.45 0.1 10.45 0.05 10.5 0 10.5 0 11.2 0.05 11.25 0.1 11.25 0.15 11.25 0.25 11.3 0.35 11.3 0.35 10.4 0.3 10.4 0.25 10.4 0.2 10.4
M 0.35 7.25
L 0.3 7.25 0.25 7.3 0.2 7.3 0.15 7.3 0.1 7.3 0.05 7.35 0 7.35 0 8.1 0.05 8.1 0.1 8.1 0.15 8.1 0.15 8.15 0.2 8.15 0.25 8.15 0.3 8.2 0.35 8.2 0.35 7.25
M 2.55 8.1
L 2.55 7.4 2.2 7.25 2.2 8.2 2.55 8.1 Z"/>
            <path fill="#0000FF" stroke="none" d="
M 2.55 13.8
L 2.2 13.75 2.2 14.25 2.55 14.2 2.55 13.8
M 0.35 13.75
L 0 13.8 0 14.2 0.35 14.25 0.35 13.75
M 2.2 10.6
L 2.2 11.15 2.55 11.1 2.55 10.65 2.2 10.6
M 0.35 11.15
L 0.35 10.6 0 10.65 0 11.1 0.35 11.15
M 0.35 8
L 0.35 7.45 0 7.5 0 7.95 0.35 8
M 2.55 7.95
L 2.55 7.5 2.2 7.45 2.2 8 2.55 7.95 Z"/>
            <path fill="#0000BA" stroke="none" d="
M 2.2 13.8
L 2.2 7.9 0.35 7.9 0.35 13.8 2.2 13.8 Z"/>
            <path fill="#0000DE" stroke="none" d="
M 2.2 12.6
L 2.2 9.1 0.35 9.1 0.35 12.6 2.2 12.6 Z"/>
            <path fill="#0000FF" stroke="none" d="
M 2.2 11.4
L 2.2 10.35 0.35 10.35 0.35 11.4 2.2 11.4 Z"/>
        </g>

        <path id="Valve_STROKES" stroke="#000000" stroke-width="1" stroke-linejoin="round"
              stroke-linecap="round" fill="none" d="
M 5.5 1.25
L 6.55 1.25 6.55 5.6 5.5 5.6 5.5 1.25 Z
M 2.15 13.4
L 9.85 13.4
M 9.85 8.4
L 2.15 8.4
M 11.7 6.65
L 10.75 6.65 10.75 15 11.7 15 11.7 6.65 Z
M 4.45 9.2
L 4.7 9.35 4.85 9.45 5 9.5 5.15 9.55 5.9 9.7 6.25 9.7 6.95 9.55 7.1 9.5 7.4 9.35 7.65 9.2 7.85 9 8 8.75 8.05 8.45 8.05 7.95 4.1 7.95 4.1 8.45 4.15 8.75 4.15 8.85 4.45 9.2 Z
M 2.7 5.6
L 2.7 6.75 9.4 6.75 9.4 5.6 2.7 5.6 Z
M 2.7 6.75
L 2.7 7.95 9.4 7.95 9.4 6.75 2.7 6.75 Z
M 1.2 0
L 10.85 0 10.85 1.25 1.2 1.25 1.2 0 Z
M 4.5 5.6
L 4.5 1.9 7.5 1.9 7.5 5.6 7.1 5.6 7.1 2.45 4.95 2.45 4.95 5.6 4.5 5.6 Z
M 9.8 10.2
L 9.5 10.35 9.5 11.4 9.8 11.55 9.8 10.2 Z
M 9.8 7.05
L 9.5 7.25 9.5 8.2 9.8 8.4 9.8 7.05 Z
M 9.8 13.35
L 9.5 13.5 9.5 14.5 9.8 14.65 9.8 13.35 Z
M 11.7 10.2
L 12 10.35 12 11.4 11.7 11.55 11.7 10.2 Z
M 11.7 7.05
L 12 7.25 12 8.2 11.7 8.4 11.7 7.05 Z
M 11.7 13.35
L 12 13.5 12 14.5 11.7 14.65 11.7 13.35 Z
M 10.75 6.65
L 9.8 6.65 9.8 15 10.75 15 10.75 6.65 Z
M 0.35 13.35
L 0 13.5 0 14.5 0.35 14.65 0.35 13.35 Z
M 2.2 10.2
L 2.55 10.35 2.55 11.4 2.2 11.55 2.2 10.2 Z
M 2.2 13.35
L 2.55 13.5 2.55 14.5 2.2 14.65 2.2 13.35 Z
M 0.35 10.2
L 0 10.35 0 11.4 0.35 11.55 0.35 10.2 Z
M 2.2 7.05
L 2.55 7.25 2.55 8.2 2.2 8.4 2.2 7.05 Z
M 0.35 7.05
L 0 7.25 0 8.2 0.35 8.4 0.35 7.05 Z
M 2.2 6.65
L 1.3 6.65 1.3 15 2.2 15 2.2 6.65 Z
M 1.3 6.65
L 0.35 6.65 0.35 15 1.3 15 1.3 6.65 Z
"/>
    </defs>
    <!--<g transform="matrix(
    -0.25244140625, -0.008056640625, 0.015869140625, -0.3835906982421875,
    x, y) ">-->
    <g transform="matrix(1, 0, 0, 1, 0,0) ">
        <use xlink:href="#Valve_STROKES"/>
        <use xlink:href="#Valve_FILL"/>
    </g>
</svg>