<svg width="200px" height="200px" viewBox="-100 -100 200 200" version="1.1" xmlns="http://www.w3.org/2000/svg" xmlns:xlink="http://www.w3.org/1999/xlink">
    <!-- Generator: Sketch 42 (36781) - http://www.bohemiancoding.com/sketch -->
    <desc>Created with Sketch.</desc>
    <defs>
        <g id="Water_Tank_0_Layer31_0_FILL">
            <path fill="#4C4C4C" stroke="none" d="
M 28.85 -38.15
L 28.85 -39.3 -56.85 -39.3 -56.85 -38.15 28.85 -38.15 Z"/>
        </g>

        <g id="Water_Tank_0_Layer30_0_FILL">
            <path fill="#7F7F7F" stroke="none" d="
M -58.8 26.9
L 30.8 26.9 30.8 -31.25 -58.8 -31.25 -58.8 26.9 Z"/>
        </g>

        <g id="Water_Tank_0_Layer29_0_FILL">
            <path fill="#7F7F7F" stroke="none" d="
M -27.65 48.35
L -0.4 48.35 30.8 26.9 -58.8 26.9 -27.65 48.35 Z"/>
        </g>

        <g id="Water_Tank_0_Layer28_0_FILL">
            <path fill="#999999" stroke="none" d="
M -50.35 26.9
L 22.35 26.9 22.35 -31.25 -50.35 -31.25 -50.35 26.9 Z"/>
        </g>

        <g id="Water_Tank_0_Layer27_0_FILL">
            <path fill="#999999" stroke="none" d="
M -25.05 48.35
L -2.95 48.35 22.35 26.9 -50.35 26.9 -25.05 48.35 Z"/>
        </g>

        <g id="Water_Tank_0_Layer26_0_FILL">
            <path fill="#B2B2B2" stroke="none" d="
M -41.25 26.9
L 13.25 26.9 13.25 -31.25 -41.25 -31.25 -41.25 26.9 Z"/>
        </g>

        <g id="Water_Tank_0_Layer25_0_FILL">
            <path fill="#B2B2B2" stroke="none" d="
M -22.45 48.35
L -5.55 48.35 13.25 26.9 -41.25 26.9 -22.45 48.35 Z"/>
        </g>

        <g id="Water_Tank_0_Layer24_0_FILL">
            <path fill="#CCCCCC" stroke="none" d="
M -32.2 26.9
L 4.15 26.9 4.15 -31.25 -32.2 -31.25 -32.2 26.9 Z"/>
        </g>

        <g id="Water_Tank_0_Layer23_0_FILL">
            <path fill="#CCCCCC" stroke="none" d="
M -32.2 26.9
L -19.2 48.35 -8.8 48.35 4.15 26.9 -32.2 26.9 Z"/>
        </g>

        <g id="Water_Tank_0_Layer22_0_FILL">
            <path fill="#E5E5E5" stroke="none" d="
M -4.9 -31.25
L -23.1 -31.25 -23.1 26.9 -4.9 26.9 -4.9 -31.25 Z"/>
        </g>

        <g id="Water_Tank_0_Layer21_0_FILL">
            <path fill="#E5E5E5" stroke="none" d="
M -23.1 26.9
L -16.6 48.35 -11.4 48.35 -4.9 26.9 -23.1 26.9 Z"/>
        </g>

        <g id="Water_Tank_0_Layer20_0_FILL">
            <path fill="#FFFFFF" stroke="none" d="
M -11.4 -31.25
L -16.6 -31.25 -16.6 26.9 -11.4 26.9 -11.4 -31.25 Z"/>
        </g>

        <g id="Water_Tank_0_Layer19_0_FILL">
            <path fill="#FFFFFF" stroke="none" d="
M -14.65 48.35
L -13.35 48.35 -11.4 26.9 -16.6 26.9 -14.65 48.35 Z"/>
        </g>

        <g id="Water_Tank_0_Layer15_0_FILL">
            <path fill="#7F7F7F" stroke="none" d="
M 9.35 -31.25
L 9.35 -46.15 28.85 -46.15 28.85 -31.25 30.8 -31.25 30.8 -47.3 -58.8 -47.3 -58.8 -31.25 -56.85 -31.25 -56.85 -46.15 -37.35 -46.15 -37.35 -31.25 -35.4 -31.25 -35.4 -46.15 -15.3 -46.15 -15.3 -31.25 -12.7 -31.25 -12.7 -46.15 7.4 -46.15 7.4 -31.25 9.35 -31.25 Z"/>
        </g>

        <g id="Water_Tank_0_Layer14_0_FILL">
            <path fill="#4C4C4C" stroke="none" d="
M -58.8 -32
L -58.8 -30.85 -23.1 -30.85 -23.1 -32 -58.8 -32 Z"/>
        </g>

        <g id="Water_Tank_0_Layer13_0_FILL">
            <path fill="#4C4C4C" stroke="none" d="
M 30.8 -30.85
L 30.8 -32 -4.9 -32 -4.9 -30.85 30.8 -30.85 Z"/>
        </g>

        <g id="Water_Tank_0_Layer12_0_FILL">
            <path fill="#B2B2B2" stroke="none" d="
M 26.9 44.5
L 26.9 48.35 33.35 48.35 33.35 21.95 30.8 21.95 30.8 26.9 26.9 40.3 -54.9 40.3 -58.8 26.9 -58.8 21.95 -61.4 21.95 -61.4 48.35 -54.9 48.35 -54.9 44.5 26.9 44.5 Z"/>
        </g>

        <g id="Water_Tank_0_Layer11_0_FILL">
            <path fill="#666666" stroke="none" d="
M 30.15 44.5
L 30.15 48.35 33.35 48.35 33.35 21.95 32.1 21.95 32.1 26.9 30.15 41.85 -54.9 41.85 -58.8 26.9 -58.8 21.95 -60.1 21.95 -60.1 26.9 -58.15 44.5 -58.15 48.35 -54.9 48.35 -54.9 44.5 30.15 44.5 Z"/>
        </g>

        <g id="Water_Tank_0_Layer10_0_FILL">
            <path fill="#999999" stroke="none" d="
M -7.5 -41.55
L -7.5 -42.7 -20.5 -42.7 -20.5 -41.55 -7.5 -41.55 Z"/>
        </g>

        <g id="Water_Tank_0_Layer9_0_FILL">
            <path fill="#999999" stroke="none" d="
M -7.5 -30.85
L -7.5 -32 -20.5 -32 -20.5 -30.85 -7.5 -30.85 Z"/>
        </g>

        <g id="Water_Tank_0_Layer8_0_FILL">
            <path fill="#999999" stroke="none" d="
M -7.5 -20.15
L -7.5 -21.3 -20.5 -21.3 -20.5 -20.15 -7.5 -20.15 Z"/>
        </g>

        <g id="Water_Tank_0_Layer7_0_FILL">
            <path fill="#999999" stroke="none" d="
M -7.5 -9.45
L -7.5 -10.95 -20.5 -10.95 -20.5 -9.45 -7.5 -9.45 Z"/>
        </g>

        <g id="Water_Tank_0_Layer6_0_FILL">
            <path fill="#999999" stroke="none" d="
M -7.5 -0.25
L -20.5 -0.25 -20.5 1.3 -7.5 1.3 -7.5 -0.25 Z"/>
        </g>

        <g id="Water_Tank_0_Layer5_0_FILL">
            <path fill="#999999" stroke="none" d="
M -20.5 10.45
L -20.5 11.6 -7.5 11.6 -7.5 10.45 -20.5 10.45 Z"/>
        </g>

        <g id="Water_Tank_0_Layer4_0_FILL">
            <path fill="#999999" stroke="none" d="
M -20.5 21.2
L -20.5 22.35 -7.5 22.35 -7.5 21.2 -20.5 21.2 Z"/>
        </g>

        <g id="Water_Tank_0_Layer3_0_FILL">
            <path fill="#999999" stroke="none" d="
M -20.5 31.9
L -20.5 33.05 -7.5 33.05 -7.5 31.9 -20.5 31.9 Z"/>
        </g>

        <g id="Water_Tank_0_Layer2_0_FILL">
            <path fill="#999999" stroke="none" d="
M -20.5 42.2
L -20.5 43.75 -7.5 43.75 -7.5 42.2 -20.5 42.2 Z"/>
        </g>

        <g id="Water_Tank_0_Layer1_0_FILL">
            <path fill="#7F7F7F" stroke="none" d="
M -4.9 -47.3
L -7.5 -47.3 -7.5 48.35 -4.9 48.35 -4.9 -47.3 Z"/>
        </g>

        <g id="Water_Tank_0_Layer0_0_FILL">
            <path fill="#7F7F7F" stroke="none" d="
M -20.5 -47.3
L -23.1 -47.3 -23.1 48.35 -20.5 48.35 -20.5 -47.3 Z"/>
        </g>

        <path id="Water_Tank_0_Layer31_0_1_STROKES" stroke="#000000" stroke-width="1" stroke-linejoin="round"
              stroke-linecap="round" fill="none" d="
M 28.85 -38.15
L -56.85 -38.15 -56.85 -39.3 28.85 -39.3 28.85 -38.15 Z"/>

        <path id="Water_Tank_0_Layer18_0_1_STROKES" stroke="#000000" stroke-width="1" stroke-linejoin="round"
              stroke-linecap="round" fill="none" d="
M -58.8 26.9
L 30.8 26.9 -0.4 48.35 -27.65 48.35 -58.8 26.9 Z"/>

        <path id="Water_Tank_0_Layer17_0_1_STROKES" stroke="#000000" stroke-width="1" stroke-linejoin="round"
              stroke-linecap="round" fill="none" d="
M -58.8 26.9
L -58.8 -31.25 30.8 -31.25 30.8 26.9 -58.8 26.9 Z"/>

        <path id="Water_Tank_0_Layer16_0_1_STROKES" stroke="#000000" stroke-width="1" stroke-linejoin="round"
              stroke-linecap="round" fill="none" d="
M 30.8 -47.3
L -58.8 -47.3 -58.8 -31.25 30.8 -31.25 30.8 -47.3 Z"/>

        <path id="Water_Tank_0_Layer15_0_1_STROKES" stroke="#000000" stroke-width="1" stroke-linejoin="round"
              stroke-linecap="round" fill="none" d="
M 9.35 -46.15
L 28.85 -46.15 28.85 -31.25 30.8 -31.25 30.8 -47.3 -58.8 -47.3 -58.8 -31.25 -56.85 -31.25 -56.85 -46.15 -37.35 -46.15 -37.35 -31.25 -35.4 -31.25 -35.4 -46.15 -15.3 -46.15 -15.3 -31.25 -12.7 -31.25 -12.7 -46.15 7.4 -46.15 7.4 -31.25 9.35 -31.25 9.35 -46.15 Z"/>

        <path id="Water_Tank_0_Layer14_0_1_STROKES" stroke="#000000" stroke-width="1" stroke-linejoin="round"
              stroke-linecap="round" fill="none" d="
M -58.8 -32
L -23.1 -32 -23.1 -30.85 -58.8 -30.85 -58.8 -32 Z"/>

        <path id="Water_Tank_0_Layer13_0_1_STROKES" stroke="#000000" stroke-width="1" stroke-linejoin="round"
              stroke-linecap="round" fill="none" d="
M -4.9 -32
L 30.8 -32 30.8 -30.85 -4.9 -30.85 -4.9 -32 Z"/>

        <path id="Water_Tank_0_Layer12_0_1_STROKES" stroke="#000000" stroke-width="1" stroke-linejoin="round"
              stroke-linecap="round" fill="none" d="
M -58.8 26.9
L -54.9 40.3 26.9 40.3 30.8 26.9 30.8 21.95 33.35 21.95 33.35 48.35 26.9 48.35 26.9 44.5 -54.9 44.5 -54.9 48.35 -61.4 48.35 -61.4 21.95 -58.8 21.95 -58.8 26.9 Z"/>

        <path id="Water_Tank_0_Layer10_0_1_STROKES" stroke="#000000" stroke-width="1" stroke-linejoin="round"
              stroke-linecap="round" fill="none" d="
M -7.5 -41.55
L -20.5 -41.55 -20.5 -42.7 -7.5 -42.7 -7.5 -41.55 Z"/>

        <path id="Water_Tank_0_Layer9_0_1_STROKES" stroke="#000000" stroke-width="1" stroke-linejoin="round"
              stroke-linecap="round" fill="none" d="
M -7.5 -30.85
L -20.5 -30.85 -20.5 -32 -7.5 -32 -7.5 -30.85 Z"/>

        <path id="Water_Tank_0_Layer8_0_1_STROKES" stroke="#000000" stroke-width="1" stroke-linejoin="round"
              stroke-linecap="round" fill="none" d="
M -7.5 -20.15
L -20.5 -20.15 -20.5 -21.3 -7.5 -21.3 -7.5 -20.15 Z"/>

        <path id="Water_Tank_0_Layer7_0_1_STROKES" stroke="#000000" stroke-width="1" stroke-linejoin="round"
              stroke-linecap="round" fill="none" d="
M -7.5 -9.45
L -20.5 -9.45 -20.5 -10.95 -7.5 -10.95 -7.5 -9.45 Z"/>

        <path id="Water_Tank_0_Layer6_0_1_STROKES" stroke="#000000" stroke-width="1" stroke-linejoin="round"
              stroke-linecap="round" fill="none" d="
M -20.5 -0.25
L -7.5 -0.25 -7.5 1.3 -20.5 1.3 -20.5 -0.25 Z"/>

        <path id="Water_Tank_0_Layer5_0_1_STROKES" stroke="#000000" stroke-width="1" stroke-linejoin="round"
              stroke-linecap="round" fill="none" d="
M -20.5 10.45
L -7.5 10.45 -7.5 11.6 -20.5 11.6 -20.5 10.45 Z"/>

        <path id="Water_Tank_0_Layer4_0_1_STROKES" stroke="#000000" stroke-width="1" stroke-linejoin="round"
              stroke-linecap="round" fill="none" d="
M -20.5 21.2
L -7.5 21.2 -7.5 22.35 -20.5 22.35 -20.5 21.2 Z"/>

        <path id="Water_Tank_0_Layer3_0_1_STROKES" stroke="#000000" stroke-width="1" stroke-linejoin="round"
              stroke-linecap="round" fill="none" d="
M -20.5 31.9
L -7.5 31.9 -7.5 33.05 -20.5 33.05 -20.5 31.9 Z"/>

        <path id="Water_Tank_0_Layer2_0_1_STROKES" stroke="#000000" stroke-width="1" stroke-linejoin="round"
              stroke-linecap="round" fill="none" d="
M -20.5 42.2
L -7.5 42.2 -7.5 43.75 -20.5 43.75 -20.5 42.2 Z"/>

        <path id="Water_Tank_0_Layer1_0_1_STROKES" stroke="#000000" stroke-width="1" stroke-linejoin="round"
              stroke-linecap="round" fill="none" d="
M -4.9 -47.3
L -4.9 48.35 -7.5 48.35 -7.5 -47.3 -4.9 -47.3 Z"/>

        <path id="Water_Tank_0_Layer0_0_1_STROKES" stroke="#000000" stroke-width="1" stroke-linejoin="round"
              stroke-linecap="round" fill="none" d="
M -20.5 -47.3
L -20.5 48.35 -23.1 48.35 -23.1 -47.3 -20.5 -47.3 Z"/>

    </defs>
    <g transform="matrix( 1, 0, 0, 1, 0,0) ">
        <use xlink:href="#Water_Tank_0_Layer31_0_FILL"/>

        <use xlink:href="#Water_Tank_0_Layer31_0_1_STROKES"/>
    </g>

    <g transform="matrix( 1, 0, 0, 1, 0,0) ">
        <use xlink:href="#Water_Tank_0_Layer30_0_FILL"/>
    </g>

    <g transform="matrix( 1, 0, 0, 1, 0,0) ">
        <use xlink:href="#Water_Tank_0_Layer29_0_FILL"/>
    </g>

    <g transform="matrix( 1, 0, 0, 1, 0,0) ">
        <use xlink:href="#Water_Tank_0_Layer28_0_FILL"/>
    </g>

    <g transform="matrix( 1, 0, 0, 1, 0,0) ">
        <use xlink:href="#Water_Tank_0_Layer27_0_FILL"/>
    </g>

    <g transform="matrix( 1, 0, 0, 1, 0,0) ">
        <use xlink:href="#Water_Tank_0_Layer26_0_FILL"/>
    </g>

    <g transform="matrix( 1, 0, 0, 1, 0,0) ">
        <use xlink:href="#Water_Tank_0_Layer25_0_FILL"/>
    </g>

    <g transform="matrix( 1, 0, 0, 1, 0,0) ">
        <use xlink:href="#Water_Tank_0_Layer24_0_FILL"/>
    </g>

    <g transform="matrix( 1, 0, 0, 1, 0,0) ">
        <use xlink:href="#Water_Tank_0_Layer23_0_FILL"/>
    </g>

    <g transform="matrix( 1, 0, 0, 1, 0,0) ">
        <use xlink:href="#Water_Tank_0_Layer22_0_FILL"/>
    </g>

    <g transform="matrix( 1, 0, 0, 1, 0,0) ">
        <use xlink:href="#Water_Tank_0_Layer21_0_FILL"/>
    </g>

    <g transform="matrix( 1, 0, 0, 1, 0,0) ">
        <use xlink:href="#Water_Tank_0_Layer20_0_FILL"/>
    </g>

    <g transform="matrix( 1, 0, 0, 1, 0,0) ">
        <use xlink:href="#Water_Tank_0_Layer19_0_FILL"/>
    </g>

    <g transform="matrix( 1, 0, 0, 1, 0,0) ">
        <use xlink:href="#Water_Tank_0_Layer18_0_1_STROKES"/>
    </g>

    <g transform="matrix( 1, 0, 0, 1, 0,0) ">
        <use xlink:href="#Water_Tank_0_Layer17_0_1_STROKES"/>
    </g>

    <g transform="matrix( 1, 0, 0, 1, 0,0) ">
        <use xlink:href="#Water_Tank_0_Layer16_0_1_STROKES"/>
    </g>

    <g transform="matrix( 1, 0, 0, 1, 0,0) ">
        <use xlink:href="#Water_Tank_0_Layer15_0_FILL"/>

        <use xlink:href="#Water_Tank_0_Layer15_0_1_STROKES"/>
    </g>

    <g transform="matrix( 1, 0, 0, 1, 0,0) ">
        <use xlink:href="#Water_Tank_0_Layer14_0_FILL"/>

        <use xlink:href="#Water_Tank_0_Layer14_0_1_STROKES"/>
    </g>

    <g transform="matrix( 1, 0, 0, 1, 0,0) ">
        <use xlink:href="#Water_Tank_0_Layer13_0_FILL"/>

        <use xlink:href="#Water_Tank_0_Layer13_0_1_STROKES"/>
    </g>

    <g transform="matrix( 1, 0, 0, 1, 0,0) ">
        <use xlink:href="#Water_Tank_0_Layer12_0_FILL"/>

        <use xlink:href="#Water_Tank_0_Layer12_0_1_STROKES"/>
    </g>

    <g transform="matrix( 1, 0, 0, 1, 0,0) ">
        <use xlink:href="#Water_Tank_0_Layer11_0_FILL"/>
    </g>

    <g transform="matrix( 1, 0, 0, 1, 0,0) ">
        <use xlink:href="#Water_Tank_0_Layer10_0_FILL"/>

        <use xlink:href="#Water_Tank_0_Layer10_0_1_STROKES"/>
    </g>

    <g transform="matrix( 1, 0, 0, 1, 0,0) ">
        <use xlink:href="#Water_Tank_0_Layer9_0_FILL"/>

        <use xlink:href="#Water_Tank_0_Layer9_0_1_STROKES"/>
    </g>

    <g transform="matrix( 1, 0, 0, 1, 0,0) ">
        <use xlink:href="#Water_Tank_0_Layer8_0_FILL"/>

        <use xlink:href="#Water_Tank_0_Layer8_0_1_STROKES"/>
    </g>

    <g transform="matrix( 1, 0, 0, 1, 0,0) ">
        <use xlink:href="#Water_Tank_0_Layer7_0_FILL"/>

        <use xlink:href="#Water_Tank_0_Layer7_0_1_STROKES"/>
    </g>

    <g transform="matrix( 1, 0, 0, 1, 0,0) ">
        <use xlink:href="#Water_Tank_0_Layer6_0_FILL"/>

        <use xlink:href="#Water_Tank_0_Layer6_0_1_STROKES"/>
    </g>

    <g transform="matrix( 1, 0, 0, 1, 0,0) ">
        <use xlink:href="#Water_Tank_0_Layer5_0_FILL"/>

        <use xlink:href="#Water_Tank_0_Layer5_0_1_STROKES"/>
    </g>

    <g transform="matrix( 1, 0, 0, 1, 0,0) ">
        <use xlink:href="#Water_Tank_0_Layer4_0_FILL"/>

        <use xlink:href="#Water_Tank_0_Layer4_0_1_STROKES"/>
    </g>

    <g transform="matrix( 1, 0, 0, 1, 0,0) ">
        <use xlink:href="#Water_Tank_0_Layer3_0_FILL"/>

        <use xlink:href="#Water_Tank_0_Layer3_0_1_STROKES"/>
    </g>

    <g transform="matrix( 1, 0, 0, 1, 0,0) ">
        <use xlink:href="#Water_Tank_0_Layer2_0_FILL"/>

        <use xlink:href="#Water_Tank_0_Layer2_0_1_STROKES"/>
    </g>

    <g transform="matrix( 1, 0, 0, 1, 0,0) ">
        <use xlink:href="#Water_Tank_0_Layer1_0_FILL"/>

        <use xlink:href="#Water_Tank_0_Layer1_0_1_STROKES"/>
    </g>

    <g transform="matrix( 1, 0, 0, 1, 0,0) ">
        <use xlink:href="#Water_Tank_0_Layer0_0_FILL"/>

        <use xlink:href="#Water_Tank_0_Layer0_0_1_STROKES"/>
    </g>
</svg>