<?xml version="1.0" encoding="UTF-8" standalone="no"?>
<svg width="159px" height="91px" viewBox="0 0 159 91" version="1.1" xmlns="http://www.w3.org/2000/svg" xmlns:xlink="http://www.w3.org/1999/xlink" xmlns:sketch="http://www.bohemiancoding.com/sketch/ns">
    <!-- Generator: Sketch 3.5.1 (25234) - http://www.bohemiancoding.com/sketch -->
    <title>火</title>
    <desc>Created with Sketch.</desc>
    <defs></defs>
    <g id="锅锅大作战" stroke="none" stroke-width="1" fill="none" fill-rule="evenodd" sketch:type="MSPage">
        <g id="TYPE1" sketch:type="MSArtboardGroup" transform="translate(-239.000000, -337.000000)" stroke-width="2">
            <g id="火" sketch:type="MSLayerGroup" transform="translate(240.000000, 342.000000)">
                <path d="M98.6540823,0 C94.6334525,8.41136551 92.0000001,11.9170532 92,20.659359 C91.9999999,29.4016647 100.149196,34.9081116 100.149197,42.3327408 C103.620814,36.2029457 106.697438,30.8637505 105.421118,23.8705254 C104.144797,16.8773003 100.354413,14.2882447 99.5042477,10.1426711 C98.6540823,5.99709749 98.6540823,4.80718114 98.6540823,0 Z" id="Path-8" stroke="#F88708" fill-opacity="0.800000012" fill="#FFEF1C" sketch:type="MSShapeGroup"></path>
                <path d="M112.296304,29 C109.700326,34.4309187 108,36.6944162 108,42.3390112 C108,47.9836062 113.261646,51.5389225 113.261646,56.3327408 C115.503145,52.3749507 117.489612,48.9276228 116.665537,44.4123468 C115.841462,39.8970708 113.394147,38.22541 112.845225,35.5487609 C112.296304,32.8721119 112.296304,32.1038254 112.296304,29 Z" id="Path-8-Copy" stroke="#F88708" fill-opacity="0.800000012" fill="#FFEF1C" sketch:type="MSShapeGroup" transform="translate(112.427871, 42.666370) scale(-1, 1) translate(-112.427871, -42.666370) "></path>
                <path d="M39.1300698,38.3550915 C36.5340925,43.7860102 34.8337662,46.0495077 34.8337662,51.6941027 C34.8337661,57.3386977 40.0954117,60.8940141 40.0954117,65.6878323 C42.3369115,61.7300423 44.3233778,58.2827143 43.4993032,53.7674383 C42.6752286,49.2521623 40.2279127,47.5805015 39.6789912,44.9038525 C39.1300698,42.2272035 39.1300698,41.4589169 39.1300698,38.3550915 Z" id="Path-8-Copy-7" stroke="#F88708" fill-opacity="0.800000012" fill="#FFEF1C" sketch:type="MSShapeGroup" transform="translate(39.261637, 52.021462) scale(1, -1) rotate(-9.000000) translate(-39.261637, -52.021462) "></path>
                <path d="M52.8904291,53.0347494 C50.2926123,56.6965972 49.0000001,60.4948044 49,65.410132 C48.9999999,70.3254596 53.202234,85.8869428 75.9849647,84.2410516 C98.7676955,82.5951605 98.2016475,71.1656567 98.7770057,68.1163552 C99.9541941,61.8774549 96.1616911,54.5783227 94.611688,52.0843523 C95.5989087,56.3455619 95.2334234,59.3404612 94.2731163,61.6914651 C93.3128091,64.042469 91.5654466,65.9565214 88.7978427,65.4101319 C86.0302388,64.8637424 84.7603147,61.0181684 85.3054693,56.696596 C85.8506239,52.3750235 88.345737,47.842367 87.7730806,43.3898199 C87.2004241,38.9372728 83.6242762,35.4524948 79.1380317,33.0368948 C79.9207964,35.4524948 79.6487181,37.8835627 78.8774882,40.0473005 C78.1062582,42.2110383 75.2497708,44.3191393 72.680291,43.9581775 C70.1108113,43.5972157 67.7341016,41.9198911 67.7341025,37.4542038 C67.7341035,32.9885166 69.6051004,28.5175416 71.4205986,26 C68.1879394,27.4366903 62.7472702,30.4211878 59.8546827,35.0067801 C56.9620953,39.5923724 56.2407998,44.8739413 58.0477411,49.9305724 C59.8546824,54.9872036 60.4534842,60.0013264 58.6018577,61.2115388 C56.7502312,62.4217512 53.9608851,61.3853289 53.4256571,59.9157634 C52.8904291,58.446198 52.3463823,56.3190835 52.8904291,53.0347494 Z" id="Path-19-Copy" stroke="#F67F23" fill-opacity="0.8" fill="#F8E81C" sketch:type="MSShapeGroup"></path>
                <path d="M2.63784963,65.380636 C1.06380539,67.5993876 0.280598185,69.9007609 0.280598138,72.879009 C0.280598091,75.8572572 2.82677544,85.2861217 16.631069,84.2888592 C30.4353626,83.2915966 30.0923883,76.3663413 30.4410038,74.5187378 C31.1542745,70.7385232 28.8563575,66.3159031 27.9171945,64.8047805 C28.5153618,67.3866917 28.2939104,69.2013323 27.7120504,70.6258301 C27.1301903,72.0503278 26.0714451,73.210072 24.3945251,72.879009 C22.7176051,72.5479459 21.9481449,70.2178726 22.2784598,67.5993869 C22.6087746,64.9809012 24.1205896,62.2345174 23.7736111,59.5366728 C23.4266326,56.8388282 21.2598073,54.727365 18.5415451,53.2637278 C19.0158304,54.727365 18.8509754,56.2003743 18.3836791,57.5114055 C17.9163828,58.8224368 16.1856074,60.0997571 14.6287329,59.8810466 C13.0718584,59.6623361 11.6317852,58.6460276 11.6317858,55.9402213 C11.6317863,53.2344149 12.7654429,50.5254046 13.8654721,49 C11.9067703,49.8705056 8.61021216,51.6788437 6.85756335,54.4573018 C5.10491454,57.2357598 4.6678741,60.4359174 5.76271863,63.4997828 C6.85756316,66.5636482 7.22038341,69.6017574 6.09846364,70.3350377 C4.97654386,71.068318 3.28645001,70.4403389 2.96214982,69.549914 C2.63784963,68.659489 2.30820599,67.3706482 2.63784963,65.380636 Z" id="Path-19-Copy-2" stroke="#F67F23" fill-opacity="0.8" fill="#F8E81C" sketch:type="MSShapeGroup"></path>
                <path d="M119.310136,58.9393039 C117.20195,61.9109752 116.152966,64.9933054 116.152966,68.9822036 C116.152966,72.9711019 119.563173,85.5995936 138.051868,84.2639161 C156.540564,82.9282386 156.081203,73.6529406 156.548119,71.1783643 C157.503434,66.1153572 154.425733,60.1919481 153.167871,58.1680354 C153.969022,61.6261022 153.672423,64.05653 152.893112,65.9644223 C152.113802,67.8723145 150.695778,69.4256108 148.449805,68.9822035 C146.203833,68.5387962 145.173261,65.4180269 145.615666,61.9109742 C146.058071,58.4039215 148.082911,54.7255694 147.618188,51.1122278 C147.153464,47.4988862 144.25134,44.670911 140.610653,42.7105975 C141.245884,44.670911 141.025086,46.6437769 140.399216,48.3996986 C139.773345,50.1556202 137.455242,51.8663913 135.370052,51.5734627 C133.284861,51.2805342 131.356108,49.9193477 131.356109,46.2953426 C131.35611,42.6713375 132.874466,39.0430413 134.347783,37 C131.724408,38.1659063 127.309183,40.5878928 124.961784,44.3092035 C122.614384,48.0305142 122.029037,52.3166255 123.49541,56.4201948 C124.961783,60.5237641 125.447724,64.5928369 123.945088,65.5749513 C122.442452,66.5570658 120.178835,65.7159859 119.744485,64.5234006 C119.310136,63.3308154 118.86863,61.6046144 119.310136,58.9393039 Z" id="Path-19-Copy-3" stroke="#F67F23" fill-opacity="0.8" fill="#F8E81C" sketch:type="MSShapeGroup" transform="translate(136.441025, 60.681181) scale(-1, 1) translate(-136.441025, -60.681181) "></path>
            </g>
        </g>
    </g>
</svg>