<svg xmlns="http://www.w3.org/2000/svg" xmlns:xlink="http://www.w3.org/1999/xlink" width="99%" viewBox="0 0 1326 700" version="1.1">
	<defs>
		<path d="M293.213881,265.893651 L263.023027,265.893651 L263.023027,276.676099 L288.900902,276.676099 L288.900902,441.647552 L288.900902,447.038776 L403.19485,447.038776 L403.19485,436.256328 L299.68335,436.256328 L299.68335,265.893651 L293.213881,265.893651 Z" id="path-1"></path>
		<rect id="path-2" x="259.788293" y="535.454849" width="143.406558" height="10.7824479"></rect>
		<rect id="path-3" x="0" y="0" width="236.13561" height="424.828449"></rect>
		<linearGradient x1="3.47580352%" y1="48.3332993%" x2="97.7284344%" y2="48.3332993%" id="linearGradient-4">
			<stop stop-color="#747474" offset="0%"></stop>
			<stop stop-color="#C3C3C3" offset="30.3491709%"></stop>
			<stop stop-color="#EFEFEF" offset="60.1881378%"></stop>
			<stop stop-color="#C9C8C8" offset="83.8368941%"></stop>
			<stop stop-color="#979798" offset="100%"></stop>
		</linearGradient>
		<linearGradient x1="2.95161033%" y1="16.5109799%" x2="100%" y2="16.5109805%" id="linearGradient-5">
			<stop stop-color="#656266" offset="0%"></stop>
			<stop stop-color="#BCB9BD" offset="62.6076212%"></stop>
			<stop stop-color="#7F7C80" offset="100%"></stop>
		</linearGradient>
		<rect id="path-6" x="0" y="0" width="39.8950574" height="28.0343646" rx="5.39122397"></rect>
		<rect id="path-7" x="100.276766" y="0" width="39.8950574" height="28.0343646" rx="5.39122397"></rect>
		<rect id="path-8" x="14.0171823" y="26.9561199" width="11.8606927" height="10.7824479"></rect>
		<rect id="path-9" x="114.293948" y="26.9561199" width="11.8606927" height="10.7824479"></rect>
		<rect id="path-10" x="28.0343646" y="89.4943179" width="178.988636" height="321.316949"></rect>
		<linearGradient x1="50%" y1="0%" x2="50%" y2="98.2561384%" id="linearGradient-11">
			<stop stop-color="#E51D16" offset="0%"></stop>
			<stop stop-color="#F5B617" offset="100%"></stop>
		</linearGradient>
		<rect id="path-12" x="37.7385678" y="97.0420315" width="159.58023" height="306.221522" rx="8.62595835"></rect>
		<linearGradient x1="3.061617e-15%" y1="50%" x2="100%" y2="50%" id="linearGradient-13">
			<stop stop-color="#D5380E" offset="0%"></stop>
			<stop stop-color="#FFF21A" offset="71.613919%"></stop>
			<stop stop-color="#F1C424" offset="98.8081952%"></stop>
		</linearGradient>
		<linearGradient x1="1.41638472e-14%" y1="50%" x2="100%" y2="50%" id="linearGradient-14">
			<stop stop-color="#E47A20" offset="0%"></stop>
			<stop stop-color="#F0AC19" offset="100%"></stop>
		</linearGradient>
		<rect id="path-15" x="103.5115" y="97.0420315" width="28.0343646" height="298.673808"></rect>
		<path d="M50.6775053,97.0420315 L92.7290523,97.0420315 C93.9200486,97.0420315 94.8855419,98.0075247 94.8855419,99.1985211 L94.8855419,101.355011 C94.8855419,102.546007 93.9200486,103.5115 92.7290523,103.5115 L50.6775053,103.5115 L50.6775053,103.5115 C49.486509,103.5115 48.5210157,102.546007 48.5210157,101.355011 L48.5210157,99.1985211 L48.5210157,99.1985211 C48.5210157,98.0075247 49.486509,97.0420315 50.6775053,97.0420315 L50.6775053,97.0420315 Z M50.6775053,105.66799 L92.7290523,105.66799 C93.9200486,105.66799 94.8855419,106.633483 94.8855419,107.824479 L94.8855419,109.980969 C94.8855419,111.171965 93.9200486,112.137459 92.7290523,112.137459 L50.6775053,112.137459 C49.486509,112.137459 48.5210157,111.171965 48.5210157,109.980969 L48.5210157,107.824479 C48.5210157,106.633483 49.486509,105.66799 50.6775053,105.66799 L50.6775053,105.66799 Z M50.6775053,114.293948 L92.7290523,114.293948 C93.9200486,114.293948 94.8855419,115.259441 94.8855419,116.450438 L94.8855419,118.606927 C94.8855419,119.797924 93.9200486,120.763417 92.7290523,120.763417 L50.6775053,120.763417 C49.486509,120.763417 48.5210157,119.797924 48.5210157,118.606927 L48.5210157,116.450438 L48.5210157,116.450438 C48.5210157,115.259441 49.486509,114.293948 50.6775053,114.293948 L50.6775053,114.293948 Z M50.6775053,122.919907 L92.7290523,122.919907 C93.9200486,122.919907 94.8855419,123.8854 94.8855419,125.076396 L94.8855419,127.232886 C94.8855419,128.423882 93.9200486,129.389375 92.7290523,129.389375 L50.6775053,129.389375 L50.6775053,129.389375 C49.486509,129.389375 48.5210157,128.423882 48.5210157,127.232886 L48.5210157,125.076396 C48.5210157,123.8854 49.486509,122.919907 50.6775053,122.919907 L50.6775053,122.919907 Z M50.6775053,131.545865 L92.7290523,131.545865 C93.9200486,131.545865 94.8855419,132.511358 94.8855419,133.702354 L94.8855419,135.858844 C94.8855419,137.04984 93.9200486,138.015334 92.7290523,138.015334 L50.6775053,138.015334 C49.486509,138.015334 48.5210157,137.04984 48.5210157,135.858844 L48.5210157,133.702354 C48.5210157,132.511358 49.486509,131.545865 50.6775053,131.545865 L50.6775053,131.545865 Z M50.6775053,140.171823 L92.7290523,140.171823 C93.9200486,140.171823 94.8855419,141.137317 94.8855419,142.328313 L94.8855419,144.484802 C94.8855419,145.675799 93.9200486,146.641292 92.7290523,146.641292 L50.6775053,146.641292 C49.486509,146.641292 48.5210157,145.675799 48.5210157,144.484802 L48.5210157,142.328313 C48.5210157,141.137317 49.486509,140.171823 50.6775053,140.171823 L50.6775053,140.171823 Z M50.6775053,148.797782 L92.7290523,148.797782 C93.9200486,148.797782 94.8855419,149.763275 94.8855419,150.954271 L94.8855419,153.110761 C94.8855419,154.301757 93.9200486,155.26725 92.7290523,155.26725 L50.6775053,155.26725 C49.486509,155.26725 48.5210157,154.301757 48.5210157,153.110761 L48.5210157,150.954271 C48.5210157,149.763275 49.486509,148.797782 50.6775053,148.797782 L50.6775053,148.797782 Z M50.6775053,157.42374 L92.7290523,157.42374 C93.9200486,157.42374 94.8855419,158.389233 94.8855419,159.58023 L94.8855419,161.736719 C94.8855419,162.927715 93.9200486,163.893209 92.7290523,163.893209 L50.6775053,163.893209 C49.486509,163.893209 48.5210157,162.927715 48.5210157,161.736719 L48.5210157,159.58023 C48.5210157,158.389233 49.486509,157.42374 50.6775053,157.42374 L50.6775053,157.42374 Z M50.6775053,166.049698 L92.7290523,166.049698 C93.9200486,166.049698 94.8855419,167.015192 94.8855419,168.206188 L94.8855419,170.362677 C94.8855419,171.553674 93.9200486,172.519167 92.7290523,172.519167 L50.6775053,172.519167 C49.486509,172.519167 48.5210157,171.553674 48.5210157,170.362677 L48.5210157,168.206188 C48.5210157,167.015192 49.486509,166.049698 50.6775053,166.049698 L50.6775053,166.049698 Z M50.6775053,174.675657 L92.7290523,174.675657 C93.9200486,174.675657 94.8855419,175.64115 94.8855419,176.832146 L94.8855419,178.988636 C94.8855419,180.179632 93.9200486,181.145125 92.7290523,181.145125 L50.6775053,181.145125 C49.486509,181.145125 48.5210157,180.179632 48.5210157,178.988636 L48.5210157,176.832146 C48.5210157,175.64115 49.486509,174.675657 50.6775053,174.675657 L50.6775053,174.675657 Z M50.6775053,183.301615 L92.7290523,183.301615 C93.9200486,183.301615 94.8855419,184.267108 94.8855419,185.458105 L94.8855419,187.614594 C94.8855419,188.80559 93.9200486,189.771084 92.7290523,189.771084 L50.6775053,189.771084 C49.486509,189.771084 48.5210157,188.80559 48.5210157,187.614594 L48.5210157,185.458105 C48.5210157,184.267108 49.486509,183.301615 50.6775053,183.301615 L50.6775053,183.301615 Z M50.6775053,191.927573 L92.7290523,191.927573 C93.9200486,191.927573 94.8855419,192.893067 94.8855419,194.084063 L94.8855419,196.240553 C94.8855419,197.431549 93.9200486,198.397042 92.7290523,198.397042 L50.6775053,198.397042 C49.486509,198.397042 48.5210157,197.431549 48.5210157,196.240553 L48.5210157,194.084063 C48.5210157,192.893067 49.486509,191.927573 50.6775053,191.927573 L50.6775053,191.927573 Z M50.6775053,200.553532 L92.7290523,200.553532 C93.9200486,200.553532 94.8855419,201.519025 94.8855419,202.710021 L94.8855419,204.866511 C94.8855419,206.057507 93.9200486,207.023 92.7290523,207.023 L50.6775053,207.023 C49.486509,207.023 48.5210157,206.057507 48.5210157,204.866511 L48.5210157,202.710021 C48.5210157,201.519025 49.486509,200.553532 50.6775053,200.553532 L50.6775053,200.553532 Z M50.6775053,209.17949 L92.7290523,209.17949 C93.9200486,209.17949 94.8855419,210.144983 94.8855419,211.33598 L94.8855419,213.492469 C94.8855419,214.683466 93.9200486,215.648959 92.7290523,215.648959 L50.6775053,215.648959 C49.486509,215.648959 48.5210157,214.683466 48.5210157,213.492469 L48.5210157,211.33598 C48.5210157,210.144983 49.486509,209.17949 50.6775053,209.17949 L50.6775053,209.17949 Z M50.6775053,217.805448 L92.7290523,217.805448 C93.9200486,217.805448 94.8855419,218.770942 94.8855419,219.961938 L94.8855419,222.118428 C94.8855419,223.309424 93.9200486,224.274917 92.7290523,224.274917 L50.6775053,224.274917 C49.486509,224.274917 48.5210157,223.309424 48.5210157,222.118428 L48.5210157,219.961938 C48.5210157,218.770942 49.486509,217.805448 50.6775053,217.805448 L50.6775053,217.805448 Z" id="path-16"></path>
		<path d="M142.328313,97.0420315 L184.37986,97.0420315 C185.570856,97.0420315 186.536349,98.0075247 186.536349,99.1985211 L186.536349,101.355011 C186.536349,102.546007 185.570856,103.5115 184.37986,103.5115 L142.328313,103.5115 L142.328313,103.5115 C141.137317,103.5115 140.171823,102.546007 140.171823,101.355011 L140.171823,99.1985211 L140.171823,99.1985211 C140.171823,98.0075247 141.137317,97.0420315 142.328313,97.0420315 L142.328313,97.0420315 Z M142.328313,105.66799 L184.37986,105.66799 C185.570856,105.66799 186.536349,106.633483 186.536349,107.824479 L186.536349,109.980969 C186.536349,111.171965 185.570856,112.137459 184.37986,112.137459 L142.328313,112.137459 C141.137317,112.137459 140.171823,111.171965 140.171823,109.980969 L140.171823,107.824479 C140.171823,106.633483 141.137317,105.66799 142.328313,105.66799 L142.328313,105.66799 Z M142.328313,114.293948 L184.37986,114.293948 C185.570856,114.293948 186.536349,115.259441 186.536349,116.450438 L186.536349,118.606927 C186.536349,119.797924 185.570856,120.763417 184.37986,120.763417 L142.328313,120.763417 C141.137317,120.763417 140.171823,119.797924 140.171823,118.606927 L140.171823,116.450438 L140.171823,116.450438 C140.171823,115.259441 141.137317,114.293948 142.328313,114.293948 L142.328313,114.293948 Z M142.328313,122.919907 L184.37986,122.919907 C185.570856,122.919907 186.536349,123.8854 186.536349,125.076396 L186.536349,127.232886 C186.536349,128.423882 185.570856,129.389375 184.37986,129.389375 L142.328313,129.389375 L142.328313,129.389375 C141.137317,129.389375 140.171823,128.423882 140.171823,127.232886 L140.171823,125.076396 C140.171823,123.8854 141.137317,122.919907 142.328313,122.919907 L142.328313,122.919907 Z M142.328313,131.545865 L184.37986,131.545865 C185.570856,131.545865 186.536349,132.511358 186.536349,133.702354 L186.536349,135.858844 C186.536349,137.04984 185.570856,138.015334 184.37986,138.015334 L142.328313,138.015334 C141.137317,138.015334 140.171823,137.04984 140.171823,135.858844 L140.171823,133.702354 C140.171823,132.511358 141.137317,131.545865 142.328313,131.545865 L142.328313,131.545865 Z M142.328313,140.171823 L184.37986,140.171823 C185.570856,140.171823 186.536349,141.137317 186.536349,142.328313 L186.536349,144.484802 C186.536349,145.675799 185.570856,146.641292 184.37986,146.641292 L142.328313,146.641292 C141.137317,146.641292 140.171823,145.675799 140.171823,144.484802 L140.171823,142.328313 C140.171823,141.137317 141.137317,140.171823 142.328313,140.171823 L142.328313,140.171823 Z M142.328313,148.797782 L184.37986,148.797782 C185.570856,148.797782 186.536349,149.763275 186.536349,150.954271 L186.536349,153.110761 C186.536349,154.301757 185.570856,155.26725 184.37986,155.26725 L142.328313,155.26725 C141.137317,155.26725 140.171823,154.301757 140.171823,153.110761 L140.171823,150.954271 C140.171823,149.763275 141.137317,148.797782 142.328313,148.797782 L142.328313,148.797782 Z M142.328313,157.42374 L184.37986,157.42374 C185.570856,157.42374 186.536349,158.389233 186.536349,159.58023 L186.536349,161.736719 C186.536349,162.927715 185.570856,163.893209 184.37986,163.893209 L142.328313,163.893209 C141.137317,163.893209 140.171823,162.927715 140.171823,161.736719 L140.171823,159.58023 C140.171823,158.389233 141.137317,157.42374 142.328313,157.42374 L142.328313,157.42374 Z M142.328313,166.049698 L184.37986,166.049698 C185.570856,166.049698 186.536349,167.015192 186.536349,168.206188 L186.536349,170.362677 C186.536349,171.553674 185.570856,172.519167 184.37986,172.519167 L142.328313,172.519167 C141.137317,172.519167 140.171823,171.553674 140.171823,170.362677 L140.171823,168.206188 C140.171823,167.015192 141.137317,166.049698 142.328313,166.049698 L142.328313,166.049698 Z M142.328313,174.675657 L184.37986,174.675657 C185.570856,174.675657 186.536349,175.64115 186.536349,176.832146 L186.536349,178.988636 C186.536349,180.179632 185.570856,181.145125 184.37986,181.145125 L142.328313,181.145125 C141.137317,181.145125 140.171823,180.179632 140.171823,178.988636 L140.171823,176.832146 C140.171823,175.64115 141.137317,174.675657 142.328313,174.675657 L142.328313,174.675657 Z M142.328313,183.301615 L184.37986,183.301615 C185.570856,183.301615 186.536349,184.267108 186.536349,185.458105 L186.536349,187.614594 C186.536349,188.80559 185.570856,189.771084 184.37986,189.771084 L142.328313,189.771084 C141.137317,189.771084 140.171823,188.80559 140.171823,187.614594 L140.171823,185.458105 C140.171823,184.267108 141.137317,183.301615 142.328313,183.301615 L142.328313,183.301615 Z M142.328313,191.927573 L184.37986,191.927573 C185.570856,191.927573 186.536349,192.893067 186.536349,194.084063 L186.536349,196.240553 C186.536349,197.431549 185.570856,198.397042 184.37986,198.397042 L142.328313,198.397042 C141.137317,198.397042 140.171823,197.431549 140.171823,196.240553 L140.171823,194.084063 C140.171823,192.893067 141.137317,191.927573 142.328313,191.927573 L142.328313,191.927573 Z M142.328313,200.553532 L184.37986,200.553532 C185.570856,200.553532 186.536349,201.519025 186.536349,202.710021 L186.536349,204.866511 C186.536349,206.057507 185.570856,207.023 184.37986,207.023 L142.328313,207.023 C141.137317,207.023 140.171823,206.057507 140.171823,204.866511 L140.171823,202.710021 C140.171823,201.519025 141.137317,200.553532 142.328313,200.553532 L142.328313,200.553532 Z M142.328313,209.17949 L184.37986,209.17949 C185.570856,209.17949 186.536349,210.144983 186.536349,211.33598 L186.536349,213.492469 C186.536349,214.683466 185.570856,215.648959 184.37986,215.648959 L142.328313,215.648959 C141.137317,215.648959 140.171823,214.683466 140.171823,213.492469 L140.171823,211.33598 C140.171823,210.144983 141.137317,209.17949 142.328313,209.17949 L142.328313,209.17949 Z M142.328313,217.805448 L184.37986,217.805448 C185.570856,217.805448 186.536349,218.770942 186.536349,219.961938 L186.536349,222.118428 C186.536349,223.309424 185.570856,224.274917 184.37986,224.274917 L142.328313,224.274917 C141.137317,224.274917 140.171823,223.309424 140.171823,222.118428 L140.171823,219.961938 C140.171823,218.770942 141.137317,217.805448 142.328313,217.805448 L142.328313,217.805448 Z" id="path-17"></path>
		<rect id="path-18" x="0" y="21.5648959" width="8.62595835" height="138.015334"></rect>
		<rect id="path-19" x="17.2519167" y="0" width="6.46946876" height="17.2519167"></rect>
		<rect id="path-20" x="113.215703" y="0" width="6.46946876" height="17.2519167"></rect>
		<rect id="path-21" x="14.0171823" y="21.5648959" width="8.62595835" height="138.015334"></rect>
		<rect id="path-22" x="28.0343646" y="21.5648959" width="8.62595835" height="138.015334"></rect>
		<rect id="path-23" x="42.051547" y="21.5648959" width="8.62595835" height="138.015334"></rect>
		<rect id="path-24" x="56.0687293" y="21.5648959" width="8.62595835" height="138.015334"></rect>
		<rect id="path-25" x="70.0859116" y="21.5648959" width="8.62595835" height="138.015334"></rect>
		<rect id="path-26" x="84.1030939" y="21.5648959" width="8.62595835" height="138.015334"></rect>
		<rect id="path-27" x="98.1202763" y="21.5648959" width="8.62595835" height="138.015334"></rect>
		<rect id="path-28" x="112.137459" y="21.5648959" width="8.62595835" height="138.015334"></rect>
		<rect id="path-29" x="126.154641" y="21.5648959" width="8.62595835" height="138.015334"></rect>
		<linearGradient x1="2.15440565%" y1="17.1799787%" x2="96.6358634%" y2="17.1799794%" id="linearGradient-30">
			<stop stop-color="#868686" offset="0%"></stop>
			<stop stop-color="#B4B4B4" offset="28.250558%"></stop>
			<stop stop-color="#EFEFEF" offset="55.4189254%"></stop>
			<stop stop-color="#C0BEBE" offset="80.4587851%"></stop>
			<stop stop-color="#979798" offset="100%"></stop>
		</linearGradient>
		<rect id="path-31" x="0" y="14.0171823" width="135.858844" height="8.62595835"></rect>
		<rect id="path-32" x="0" y="158.501985" width="135.858844" height="8.62595835"></rect>
		<rect id="path-33" x="99.1985211" y="81.9466043" width="35.5820782" height="9.70420315"></rect>
		<polygon id="path-34" points="44.2796589 16.1736719 60.3817085 44.2080366 0 44.2080366 16.1020495 16.1736719"></polygon>
		<rect id="path-35" x="0" y="42.051547" width="60.3817085" height="28.0343646"></rect>
		<linearGradient x1="50%" y1="0%" x2="50%" y2="98.9038584%" id="linearGradient-36">
			<stop stop-color="#E88B4D" offset="0%"></stop>
			<stop stop-color="#CE2929" offset="33.8269292%"></stop>
			<stop stop-color="#60083C" offset="64.8935746%"></stop>
			<stop stop-color="#544A87" offset="100%"></stop>
		</linearGradient>
		<path d="M6.52050998,29.1126094 C7.65949592,17.107827 27.7177181,7.54771356 52.2948725,7.54771356 C76.8720269,7.54771356 96.9302491,17.107827 98.069235,29.1126094 L98.1202763,29.1126094 L98.1202763,210.257735 C98.1202763,222.763196 77.6035442,232.900876 52.2948725,232.900876 C26.9862009,232.900876 6.46946876,222.763196 6.46946876,210.257735 L6.46946876,29.1126094 L6.52050998,29.1126094 Z" id="path-37"></path>
		<ellipse id="path-38" cx="52.2948725" cy="30.1908542" rx="45.8254037" ry="22.6431407"></ellipse>
		<path d="M57.0982736,84.1030939 C56.3612039,96.3069339 47.3389082,106.275496 35.5820782,108.45809 L35.5820782,147.719537 L0,147.719537 L0,84.1030939 L57.0982736,84.1030939 Z" id="path-39"></path>
		<rect id="path-40" x="0" y="0" width="174.675657" height="61.4599533" rx="10.7824479"></rect>
		<polygon id="path-41" points="266.506529 66.8511772 302.986787 146.641292 6.82121026e-13 146.641292 36.4802577 66.8511772"></polygon>
		<linearGradient x1="1.12205038%" y1="50%" x2="96.6956314%" y2="50%" id="linearGradient-42">
			<stop stop-color="#F1EF78" offset="0%"></stop>
			<stop stop-color="#C6F599" offset="31.2001754%"></stop>
			<stop stop-color="#4DD2DC" offset="83.203125%"></stop>
			<stop stop-color="#4DB3DC" offset="100%"></stop>
		</linearGradient>
		<path d="M274.952422,135.496586 L274.902803,135.496586 L253.247171,86.7307825 C251.867162,83.6231737 248.347437,81.103959 245.385646,81.103959 C242.423854,81.103959 241.023806,83.6231737 242.25855,86.7307825 L246.989785,98.6383665 L257.731081,126.118547 C258.804665,131.440984 254.940847,135.496586 248.366482,135.496586 C241.038679,135.496586 233.567444,130.458156 231.679011,124.242939 L220.28131,86.7307825 C219.337093,83.6231737 216.170648,81.103959 213.208856,81.103959 C210.247065,81.103959 208.493737,83.6231737 209.292689,86.7307825 L212.354076,98.6383665 L219.241719,126.118547 C219.568916,131.440984 215.136366,135.496586 208.562,135.496586 C201.234197,135.496586 194.469521,130.458156 193.452673,124.242939 L187.315449,86.7307825 C186.807025,83.6231737 183.993859,81.103959 181.032067,81.103959 C178.070275,81.103959 175.963668,83.6231737 176.326828,86.7307825 L177.718368,98.6383665 L180.752356,126.118547 C180.333167,131.440984 175.331884,135.496586 168.757518,135.496586 C161.429716,135.496586 155.371598,130.458156 155.226334,124.242939 L154.349588,86.7307825 C154.276956,83.6231737 151.817069,81.103959 148.855278,81.103959 C145.893486,81.103959 143.4336,83.6231737 143.360967,86.7307825 L143.08266,98.6383665 L142.262994,126.118547 C141.097419,131.440984 135.527402,135.496586 128.953037,135.496586 C121.625234,135.496586 116.273675,130.458156 116.999996,124.242939 L121.383727,86.7307825 C121.746887,83.6231737 119.64028,81.103959 116.678488,81.103959 C113.716697,81.103959 110.903531,83.6231737 110.395106,86.7307825 L108.446951,98.6383665 L103.773632,126.118547 C101.86167,131.440984 95.7229204,135.496586 89.1485551,135.496586 C81.8207523,135.496586 77.1757523,130.458156 78.7736571,124.242939 L88.4178658,86.7307825 C89.2168182,83.6231737 87.4634905,81.103959 84.5016989,81.103959 C81.5399072,81.103959 78.3734619,83.6231737 77.4292455,86.7307825 L73.8112427,98.6383665 L65.2842694,126.118547 C62.6259212,131.440984 55.9184387,135.496586 49.3440733,135.496586 C42.0162706,135.496586 38.0778294,130.458156 40.5473186,124.242939 L55.4520048,86.7307825 C56.6867494,83.6231737 55.2867012,81.103959 52.3249095,81.103959 C49.3631178,81.103959 45.8433932,83.6231737 44.4633845,86.7307825 L39.1755343,98.6383665 L22.8077522,135.496586 L22.6431407,135.496586 L22.6431407,147.719537 L16.1736719,147.719537 L16.1736719,134.780599 L16.5083573,134.780599 L38.9690743,86.7307825 C41.8743558,80.5155649 48.9138051,75.4771356 54.6921243,75.4771356 C59.8763226,75.4771356 62.6455854,79.5327374 61.647712,84.8551747 L51.3713015,112.335355 L46.918375,124.242939 C45.7562624,127.350548 47.7254831,129.869762 51.3167524,129.869762 C54.9080217,129.869762 58.6436393,127.350548 59.6604879,124.242939 L71.9349353,86.7307825 C73.9686323,80.5155649 80.3015228,75.4771356 86.0798421,75.4771356 C91.2640404,75.4771356 94.6020361,79.5327374 94.3505491,84.8551747 L87.9277925,112.335355 L85.1447135,124.242939 C84.4183931,127.350548 86.7408932,129.869762 90.3321625,129.869762 C93.9234318,129.869762 97.30577,127.350548 97.8868263,124.242939 L104.900796,86.7307825 C106.062909,80.5155649 111.689241,75.4771356 117.46756,75.4771356 C122.651758,75.4771356 126.558487,79.5327374 127.053386,84.8551747 L124.484284,112.335355 L123.371052,124.242939 C123.080524,127.350548 125.756303,129.869762 129.347573,129.869762 C132.938842,129.869762 135.967901,127.350548 136.113165,124.242939 L137.866657,86.7307825 C138.157185,80.5155649 143.076958,75.4771356 148.855278,75.4771356 C154.039476,75.4771356 158.514938,79.5327374 159.756223,84.8551747 L161.040775,112.335355 L161.59739,124.242939 C161.742655,127.350548 164.771713,129.869762 168.362983,129.869762 C171.954252,129.869762 174.630031,127.350548 174.339503,124.242939 L170.832518,86.7307825 C170.251462,80.5155649 174.464676,75.4771356 180.242995,75.4771356 C185.427194,75.4771356 190.471388,79.5327374 192.45906,84.8551747 L197.597266,112.335355 L199.823729,124.242939 C200.404785,127.350548 203.787123,129.869762 207.378393,129.869762 C210.969662,129.869762 213.292162,127.350548 212.565842,124.242939 L203.798379,86.7307825 C202.345739,80.5155649 205.852394,75.4771356 211.630713,75.4771356 C216.814911,75.4771356 222.427839,79.5327374 225.161898,84.8551747 L234.153757,112.335355 L238.050067,124.242939 C239.066916,127.350548 242.802534,129.869762 246.393803,129.869762 C249.985072,129.869762 251.954293,127.350548 250.79218,124.242939 L236.76424,86.7307825 C234.440015,80.5155649 237.240112,75.4771356 243.018431,75.4771356 C248.202629,75.4771356 254.38429,79.5327374 257.864735,84.8551747 L281.202198,134.780599 L281.421891,134.780599 L281.421891,135.250585 L281.536883,135.496586 L281.421891,135.496586 L281.421891,147.719537 L274.952422,147.719537 L274.952422,135.496586 Z" id="path-43"></path>
		<linearGradient x1="50%" y1="97.7718431%" x2="50%" y2="0%" id="linearGradient-44">
			<stop stop-color="#FFFFFF" stop-opacity="0" offset="0%"></stop>
			<stop stop-color="#D8D8D8" offset="100%"></stop>
		</linearGradient>
		<path d="M245.839813,98.1202763 L245.839813,104.589745 C245.839813,106.971738 243.908826,108.902724 241.526834,108.902724 L4.31297918,108.902724 L4.31297918,108.902724 C1.93098655,108.902724 -3.26100371e-15,106.971738 -3.55271368e-15,104.589745 L-3.32350634e-15,98.1202763 C1.78649447,98.1202763 3.23473438,96.6720363 3.23473438,94.8855419 L3.23473438,94.8855419 L3.23473438,16.1778131 C3.23473438,14.3913186 1.78649447,12.9430787 -1.08173207e-16,12.9430787 L-3.32350634e-15,98.1202763 C-1.78649447,98.1202763 -3.23473438,96.6720363 -3.23473438,94.8855419 L-3.23473438,16.1778131 L-3.23473438,16.1778131 C-3.23473438,14.3913186 -1.78649447,12.9430787 -8.8817842e-16,12.9430787 L0,4.31297918 L8.8817842e-16,4.31297918 C5.96468455e-16,1.93098655 1.93098655,3.99027863e-15 4.31297918,3.55271368e-15 L4.31297918,0 L241.526834,0 C243.908826,-4.37564947e-16 245.839813,1.93098655 245.839813,4.31297918 L245.839813,12.9430787 C244.053319,12.9430787 242.605079,14.3913186 242.605079,16.1778131 L242.605079,94.8855419 C242.605079,96.6720363 244.053319,98.1202763 245.839813,98.1202763 Z M20.4866511,12.9430787 C18.7001566,12.9430787 17.2519167,14.3913186 17.2519167,16.1778131 L17.2519167,94.8855419 C17.2519167,96.6720363 18.7001566,98.1202763 20.4866511,98.1202763 C22.2731456,98.1202763 23.7213855,96.6720363 23.7213855,94.8855419 L23.7213855,94.8855419 L23.7213855,16.1778131 C23.7213855,14.3913186 22.2731456,12.9430787 20.4866511,12.9430787 Z M40.9733022,12.9430787 C39.1868077,12.9430787 37.7385678,14.3913186 37.7385678,16.1778131 L37.7385678,94.8855419 C37.7385678,96.6720363 39.1868077,98.1202763 40.9733022,98.1202763 C42.7597966,98.1202763 44.2080366,96.6720363 44.2080366,94.8855419 L44.2080366,94.8855419 L44.2080366,16.1778131 C44.2080366,14.3913186 42.7597966,12.9430787 40.9733022,12.9430787 Z M61.4599533,12.9430787 C59.6734588,12.9430787 58.2252189,14.3913186 58.2252189,16.1778131 L58.2252189,94.8855419 C58.2252189,96.6720363 59.6734588,98.1202763 61.4599533,98.1202763 C63.2464477,98.1202763 64.6946876,96.6720363 64.6946876,94.8855419 L64.6946876,16.1778131 C64.6946876,14.3913186 63.2464477,12.9430787 61.4599533,12.9430787 Z M81.9466043,12.9430787 C80.1601099,12.9430787 78.71187,14.3913186 78.71187,16.1778131 L78.71187,94.8855419 C78.71187,96.6720363 80.1601099,98.1202763 81.9466043,98.1202763 C83.7330988,98.1202763 85.1813387,96.6720363 85.1813387,94.8855419 L85.1813387,94.8855419 L85.1813387,16.1778131 C85.1813387,14.3913186 83.7330988,12.9430787 81.9466043,12.9430787 Z M102.433255,12.9430787 C100.646761,12.9430787 99.1985211,14.3913186 99.1985211,16.1778131 L99.1985211,94.8855419 C99.1985211,96.6720363 100.646761,98.1202763 102.433255,98.1202763 L102.433255,98.1202763 L102.433255,98.1202763 C104.21975,98.1202763 105.66799,96.6720363 105.66799,94.8855419 L105.66799,94.8855419 L105.66799,16.1778131 C105.66799,14.3913186 104.21975,12.9430787 102.433255,12.9430787 Z M122.919907,12.9430787 C121.133412,12.9430787 119.685172,14.3913186 119.685172,16.1778131 L119.685172,94.8855419 C119.685172,96.6720363 121.133412,98.1202763 122.919907,98.1202763 C124.706401,98.1202763 126.154641,96.6720363 126.154641,94.8855419 L126.154641,94.8855419 L126.154641,16.1778131 C126.154641,14.3913186 124.706401,12.9430787 122.919907,12.9430787 Z M143.406558,12.9430787 C141.620063,12.9430787 140.171823,14.3913186 140.171823,16.1778131 L140.171823,94.8855419 C140.171823,96.6720363 141.620063,98.1202763 143.406558,98.1202763 C145.193052,98.1202763 146.641292,96.6720363 146.641292,94.8855419 L146.641292,16.1778131 C146.641292,14.3913186 145.193052,12.9430787 143.406558,12.9430787 Z M163.893209,12.9430787 C162.106714,12.9430787 160.658474,14.3913186 160.658474,16.1778131 L160.658474,94.8855419 C160.658474,96.6720363 162.106714,98.1202763 163.893209,98.1202763 C165.679703,98.1202763 167.127943,96.6720363 167.127943,94.8855419 L167.127943,16.1778131 C167.127943,14.3913186 165.679703,12.9430787 163.893209,12.9430787 Z M184.37986,12.9430787 C182.593365,12.9430787 181.145125,14.3913186 181.145125,16.1778131 L181.145125,94.8855419 C181.145125,96.6720363 182.593365,98.1202763 184.37986,98.1202763 C186.166354,98.1202763 187.614594,96.6720363 187.614594,94.8855419 L187.614594,16.1778131 C187.614594,14.3913186 186.166354,12.9430787 184.37986,12.9430787 Z M204.866511,12.9430787 C203.080016,12.9430787 201.631776,14.3913186 201.631776,16.1778131 L201.631776,94.8855419 C201.631776,96.6720363 203.080016,98.1202763 204.866511,98.1202763 C206.653005,98.1202763 208.101245,96.6720363 208.101245,94.8855419 L208.101245,16.1778131 C208.101245,14.3913186 206.653005,12.9430787 204.866511,12.9430787 Z M225.353162,12.9430787 C223.566667,12.9430787 222.118428,14.3913186 222.118428,16.1778131 L222.118428,94.8855419 C222.118428,96.6720363 223.566667,98.1202763 225.353162,98.1202763 C227.139656,98.1202763 228.587896,96.6720363 228.587896,94.8855419 L228.587896,16.1778131 C228.587896,14.3913186 227.139656,12.9430787 225.353162,12.9430787 Z" id="path-45"></path>
		<path d="M245.839813,98.1202763 L245.839813,104.589745 C245.839813,106.971738 243.908826,108.902724 241.526834,108.902724 L4.31297918,108.902724 L4.31297918,108.902724 C1.93098655,108.902724 -3.26100371e-15,106.971738 -3.55271368e-15,104.589745 L-3.32350634e-15,98.1202763 C1.78649447,98.1202763 3.23473438,96.6720363 3.23473438,94.8855419 L3.23473438,94.8855419 L3.23473438,16.1778131 C3.23473438,14.3913186 1.78649447,12.9430787 -1.08173207e-16,12.9430787 L-3.32350634e-15,98.1202763 C-1.78649447,98.1202763 -3.23473438,96.6720363 -3.23473438,94.8855419 L-3.23473438,16.1778131 L-3.23473438,16.1778131 C-3.23473438,14.3913186 -1.78649447,12.9430787 -8.8817842e-16,12.9430787 L0,4.31297918 L8.8817842e-16,4.31297918 C5.96468455e-16,1.93098655 1.93098655,3.99027863e-15 4.31297918,3.55271368e-15 L4.31297918,0 L241.526834,0 C243.908826,-4.37564947e-16 245.839813,1.93098655 245.839813,4.31297918 L245.839813,12.9430787 C244.053319,12.9430787 242.605079,14.3913186 242.605079,16.1778131 L242.605079,94.8855419 C242.605079,96.6720363 244.053319,98.1202763 245.839813,98.1202763 Z M20.4866511,12.9430787 C18.7001566,12.9430787 17.2519167,14.3913186 17.2519167,16.1778131 L17.2519167,94.8855419 C17.2519167,96.6720363 18.7001566,98.1202763 20.4866511,98.1202763 C22.2731456,98.1202763 23.7213855,96.6720363 23.7213855,94.8855419 L23.7213855,94.8855419 L23.7213855,16.1778131 C23.7213855,14.3913186 22.2731456,12.9430787 20.4866511,12.9430787 Z M40.9733022,12.9430787 C39.1868077,12.9430787 37.7385678,14.3913186 37.7385678,16.1778131 L37.7385678,94.8855419 C37.7385678,96.6720363 39.1868077,98.1202763 40.9733022,98.1202763 C42.7597966,98.1202763 44.2080366,96.6720363 44.2080366,94.8855419 L44.2080366,94.8855419 L44.2080366,16.1778131 C44.2080366,14.3913186 42.7597966,12.9430787 40.9733022,12.9430787 Z M61.4599533,12.9430787 C59.6734588,12.9430787 58.2252189,14.3913186 58.2252189,16.1778131 L58.2252189,94.8855419 C58.2252189,96.6720363 59.6734588,98.1202763 61.4599533,98.1202763 C63.2464477,98.1202763 64.6946876,96.6720363 64.6946876,94.8855419 L64.6946876,16.1778131 C64.6946876,14.3913186 63.2464477,12.9430787 61.4599533,12.9430787 Z M81.9466043,12.9430787 C80.1601099,12.9430787 78.71187,14.3913186 78.71187,16.1778131 L78.71187,94.8855419 C78.71187,96.6720363 80.1601099,98.1202763 81.9466043,98.1202763 C83.7330988,98.1202763 85.1813387,96.6720363 85.1813387,94.8855419 L85.1813387,94.8855419 L85.1813387,16.1778131 C85.1813387,14.3913186 83.7330988,12.9430787 81.9466043,12.9430787 Z M102.433255,12.9430787 C100.646761,12.9430787 99.1985211,14.3913186 99.1985211,16.1778131 L99.1985211,94.8855419 C99.1985211,96.6720363 100.646761,98.1202763 102.433255,98.1202763 L102.433255,98.1202763 L102.433255,98.1202763 C104.21975,98.1202763 105.66799,96.6720363 105.66799,94.8855419 L105.66799,94.8855419 L105.66799,16.1778131 C105.66799,14.3913186 104.21975,12.9430787 102.433255,12.9430787 Z M122.919907,12.9430787 C121.133412,12.9430787 119.685172,14.3913186 119.685172,16.1778131 L119.685172,94.8855419 C119.685172,96.6720363 121.133412,98.1202763 122.919907,98.1202763 C124.706401,98.1202763 126.154641,96.6720363 126.154641,94.8855419 L126.154641,94.8855419 L126.154641,16.1778131 C126.154641,14.3913186 124.706401,12.9430787 122.919907,12.9430787 Z M143.406558,12.9430787 C141.620063,12.9430787 140.171823,14.3913186 140.171823,16.1778131 L140.171823,94.8855419 C140.171823,96.6720363 141.620063,98.1202763 143.406558,98.1202763 C145.193052,98.1202763 146.641292,96.6720363 146.641292,94.8855419 L146.641292,16.1778131 C146.641292,14.3913186 145.193052,12.9430787 143.406558,12.9430787 Z M163.893209,12.9430787 C162.106714,12.9430787 160.658474,14.3913186 160.658474,16.1778131 L160.658474,94.8855419 C160.658474,96.6720363 162.106714,98.1202763 163.893209,98.1202763 C165.679703,98.1202763 167.127943,96.6720363 167.127943,94.8855419 L167.127943,16.1778131 C167.127943,14.3913186 165.679703,12.9430787 163.893209,12.9430787 Z M184.37986,12.9430787 C182.593365,12.9430787 181.145125,14.3913186 181.145125,16.1778131 L181.145125,94.8855419 C181.145125,96.6720363 182.593365,98.1202763 184.37986,98.1202763 C186.166354,98.1202763 187.614594,96.6720363 187.614594,94.8855419 L187.614594,16.1778131 C187.614594,14.3913186 186.166354,12.9430787 184.37986,12.9430787 Z M204.866511,12.9430787 C203.080016,12.9430787 201.631776,14.3913186 201.631776,16.1778131 L201.631776,94.8855419 C201.631776,96.6720363 203.080016,98.1202763 204.866511,98.1202763 C206.653005,98.1202763 208.101245,96.6720363 208.101245,94.8855419 L208.101245,16.1778131 C208.101245,14.3913186 206.653005,12.9430787 204.866511,12.9430787 Z M225.353162,12.9430787 C223.566667,12.9430787 222.118428,14.3913186 222.118428,16.1778131 L222.118428,94.8855419 C222.118428,96.6720363 223.566667,98.1202763 225.353162,98.1202763 C227.139656,98.1202763 228.587896,96.6720363 228.587896,94.8855419 L228.587896,16.1778131 C228.587896,14.3913186 227.139656,12.9430787 225.353162,12.9430787 Z" id="path-46"></path>
	</defs>
	<g id="Page-1" fill="none" fill-rule="evenodd" transform="matrix( 1.3, 0, 0, 1.3, 200,-150) ">
		<text id="出热水管" font-family="PingFangSC-Medium, PingFang SC" font-size="22.2516556" font-weight="400" fill="#000000">
			<tspan x="313.377483" y="288.238411">出</tspan>
			<tspan x="313.377483" y="320.238411">热</tspan>
			<tspan x="313.377483" y="352.238411">水</tspan>
			<tspan x="313.377483" y="384.238411">管</tspan>
		</text>
		<!--红色出水管-->
		<g id="Rectangle-126">
			<use fill="#D72623" fill-rule="evenodd" xlink:href="#path-1"></use>
			<path stroke="#4E5058" stroke-width="1.07824479" d="M402.655728,446.499654 L403.19485,446.499654 L402.655728,447.038776 L402.655728,446.499654 Z M263.56215,266.432773 L263.56215,276.136976 L289.440025,276.136976 L289.440025,446.499654 L402.655728,446.499654 L402.655728,436.795451 L299.144228,436.795451 L299.144228,266.432773 L263.56215,266.432773 Z"></path>
		</g>
		
		<!--紫色进水管-->
		<g id="Rectangle-129">
			<use fill="#3E3E8A" fill-rule="evenodd" xlink:href="#path-2"></use>
			<rect stroke="#4E5058" stroke-width="1.07824479" x="260.327415" y="535.993972" width="142.328313" height="9.70420315"></rect>
		</g>
		<g id="dash_container">

    	</g>
		<!--电热水器-->
		<g id="Group-4" transform="translate(26.887417, 171.008109)">
			<g id="Rectangle-1">
				<use fill="#FFFFFF" fill-rule="evenodd" xlink:href="#path-3"></use>
				<rect stroke="#6D727F" stroke-width="2.15648959" x="1.07824479" y="1.07824479" width="233.97912" height="422.671959"></rect>
			</g>
			<text id="+--" font-family="STHeitiSC-Medium, Heiti SC" font-size="25.8778751" font-weight="bold" fill="#6D727F">
				<tspan x="95.1486336" y="67.2862814">+ -</tspan>
			</text>
			<g id="Group-3" transform="translate(47.442771, 52.833995)">
				<g id="Rectangle-50">
					<use fill="url(#linearGradient-4)" fill-rule="evenodd" xlink:href="#path-6"></use>
					<rect stroke="url(#linearGradient-5)" stroke-width="1.07824479" x="0.539122397" y="0.539122397" width="38.8168126" height="26.9561199" rx="5.39122397"></rect>
				</g>
				<g id="Rectangle-50-Copy">
					<use fill="url(#linearGradient-4)" fill-rule="evenodd" xlink:href="#path-7"></use>
					<rect stroke="url(#linearGradient-5)" stroke-width="1.07824479" x="100.815888" y="0.539122397" width="38.8168126" height="26.9561199" rx="5.39122397"></rect>
				</g>
				<g id="Rectangle-51">
					<use fill="url(#linearGradient-4)" fill-rule="evenodd" xlink:href="#path-8"></use>
					<rect stroke="#979797" stroke-width="1.07824479" x="14.5563047" y="27.4952422" width="10.7824479" height="9.70420315"></rect>
				</g>
				<g id="Rectangle-51-Copy">
					<use fill="url(#linearGradient-4)" fill-rule="evenodd" xlink:href="#path-9"></use>
					<rect stroke="#979797" stroke-width="1.07824479" x="114.833071" y="27.4952422" width="10.7824479" height="9.70420315"></rect>
				</g>
			</g>
			<g id="Rectangle-2">
				<use fill="#FFFFFF" fill-rule="evenodd" xlink:href="#path-10"></use>
				<rect stroke="#6D727F" stroke-width="2.15648959" x="29.1126094" y="90.5725627" width="176.832146" height="319.160459"></rect>
			</g>
			<g id="Rectangle-3">
				<use fill="url(#linearGradient-11)" fill-rule="evenodd" xlink:href="#path-12"></use>
				<rect stroke="#6D727F" stroke-width="2.15648959" x="38.8168126" y="98.1202763" width="157.42374" height="304.065032" rx="8.62595835"></rect>
			</g>
			<path d="M1.61736719,90.5725627 L232.900876,90.5725627" id="Line" stroke="#6D727F" stroke-width="2.15648959" stroke-linecap="square"></path>
			<g id="Rectangle-4">
				<use fill="url(#linearGradient-13)" fill-rule="evenodd" xlink:href="#path-15"></use>
				<rect stroke="url(#linearGradient-14)" stroke-width="2.15648959" x="104.589745" y="98.1202763" width="25.8778751" height="296.517318"></rect>
			</g>
			<g id="Rectangle-5">
				<use fill="url(#linearGradient-4)" fill-rule="evenodd" xlink:href="#path-16"></use>
				<path stroke="url(#linearGradient-5)" stroke-width="1.07824479" d="M50.6775053,97.5811539 C49.7842581,97.5811539 49.0601381,98.3052738 49.0601381,99.1985211 L49.0601381,101.355011 C49.0601381,102.248258 49.7842581,102.972378 50.6775053,102.972378 L92.7290523,102.972378 C93.6222995,102.972378 94.3464195,102.248258 94.3464195,101.355011 L94.3464195,99.1985211 C94.3464195,98.3052738 93.6222995,97.5811539 92.7290523,97.5811539 L50.6775053,97.5811539 Z M50.6775053,106.207112 C49.7842581,106.207112 49.0601381,106.931232 49.0601381,107.824479 L49.0601381,109.980969 C49.0601381,110.874216 49.7842581,111.598336 50.6775053,111.598336 L92.7290523,111.598336 C93.6222995,111.598336 94.3464195,110.874216 94.3464195,109.980969 L94.3464195,107.824479 C94.3464195,106.931232 93.6222995,106.207112 92.7290523,106.207112 L50.6775053,106.207112 Z M50.6775053,114.833071 C49.7842581,114.833071 49.0601381,115.557191 49.0601381,116.450438 L49.0601381,118.606927 C49.0601381,119.500175 49.7842581,120.224295 50.6775053,120.224295 L92.7290523,120.224295 C93.6222995,120.224295 94.3464195,119.500175 94.3464195,118.606927 L94.3464195,116.450438 C94.3464195,115.557191 93.6222995,114.833071 92.7290523,114.833071 L50.6775053,114.833071 Z M50.6775053,123.459029 C49.7842581,123.459029 49.0601381,124.183149 49.0601381,125.076396 L49.0601381,127.232886 C49.0601381,128.126133 49.7842581,128.850253 50.6775053,128.850253 L92.7290523,128.850253 C93.6222995,128.850253 94.3464195,128.126133 94.3464195,127.232886 L94.3464195,125.076396 C94.3464195,124.183149 93.6222995,123.459029 92.7290523,123.459029 L50.6775053,123.459029 Z M50.6775053,132.084987 C49.7842581,132.084987 49.0601381,132.809107 49.0601381,133.702354 L49.0601381,135.858844 C49.0601381,136.752091 49.7842581,137.476211 50.6775053,137.476211 L92.7290523,137.476211 C93.6222995,137.476211 94.3464195,136.752091 94.3464195,135.858844 L94.3464195,133.702354 C94.3464195,132.809107 93.6222995,132.084987 92.7290523,132.084987 L50.6775053,132.084987 Z M50.6775053,140.710946 C49.7842581,140.710946 49.0601381,141.435066 49.0601381,142.328313 L49.0601381,144.484802 C49.0601381,145.37805 49.7842581,146.10217 50.6775053,146.10217 L92.7290523,146.10217 C93.6222995,146.10217 94.3464195,145.37805 94.3464195,144.484802 L94.3464195,142.328313 C94.3464195,141.435066 93.6222995,140.710946 92.7290523,140.710946 L50.6775053,140.710946 Z M50.6775053,149.336904 C49.7842581,149.336904 49.0601381,150.061024 49.0601381,150.954271 L49.0601381,153.110761 C49.0601381,154.004008 49.7842581,154.728128 50.6775053,154.728128 L92.7290523,154.728128 C93.6222995,154.728128 94.3464195,154.004008 94.3464195,153.110761 L94.3464195,150.954271 C94.3464195,150.061024 93.6222995,149.336904 92.7290523,149.336904 L50.6775053,149.336904 Z M50.6775053,157.962862 C49.7842581,157.962862 49.0601381,158.686982 49.0601381,159.58023 L49.0601381,161.736719 C49.0601381,162.629966 49.7842581,163.354086 50.6775053,163.354086 L92.7290523,163.354086 C93.6222995,163.354086 94.3464195,162.629966 94.3464195,161.736719 L94.3464195,159.58023 C94.3464195,158.686982 93.6222995,157.962862 92.7290523,157.962862 L50.6775053,157.962862 Z M50.6775053,166.588821 C49.7842581,166.588821 49.0601381,167.312941 49.0601381,168.206188 L49.0601381,170.362677 C49.0601381,171.255925 49.7842581,171.980045 50.6775053,171.980045 L92.7290523,171.980045 C93.6222995,171.980045 94.3464195,171.255925 94.3464195,170.362677 L94.3464195,168.206188 C94.3464195,167.312941 93.6222995,166.588821 92.7290523,166.588821 L50.6775053,166.588821 Z M50.6775053,175.214779 C49.7842581,175.214779 49.0601381,175.938899 49.0601381,176.832146 L49.0601381,178.988636 C49.0601381,179.881883 49.7842581,180.606003 50.6775053,180.606003 L92.7290523,180.606003 C93.6222995,180.606003 94.3464195,179.881883 94.3464195,178.988636 L94.3464195,176.832146 C94.3464195,175.938899 93.6222995,175.214779 92.7290523,175.214779 L50.6775053,175.214779 Z M50.6775053,183.840737 C49.7842581,183.840737 49.0601381,184.564857 49.0601381,185.458105 L49.0601381,187.614594 C49.0601381,188.507841 49.7842581,189.231961 50.6775053,189.231961 L92.7290523,189.231961 C93.6222995,189.231961 94.3464195,188.507841 94.3464195,187.614594 L94.3464195,185.458105 C94.3464195,184.564857 93.6222995,183.840737 92.7290523,183.840737 L50.6775053,183.840737 Z M50.6775053,192.466696 C49.7842581,192.466696 49.0601381,193.190816 49.0601381,194.084063 L49.0601381,196.240553 C49.0601381,197.1338 49.7842581,197.85792 50.6775053,197.85792 L92.7290523,197.85792 C93.6222995,197.85792 94.3464195,197.1338 94.3464195,196.240553 L94.3464195,194.084063 C94.3464195,193.190816 93.6222995,192.466696 92.7290523,192.466696 L50.6775053,192.466696 Z M50.6775053,201.092654 C49.7842581,201.092654 49.0601381,201.816774 49.0601381,202.710021 L49.0601381,204.866511 C49.0601381,205.759758 49.7842581,206.483878 50.6775053,206.483878 L92.7290523,206.483878 C93.6222995,206.483878 94.3464195,205.759758 94.3464195,204.866511 L94.3464195,202.710021 C94.3464195,201.816774 93.6222995,201.092654 92.7290523,201.092654 L50.6775053,201.092654 Z M50.6775053,209.718612 C49.7842581,209.718612 49.0601381,210.442732 49.0601381,211.33598 L49.0601381,213.492469 C49.0601381,214.385716 49.7842581,215.109836 50.6775053,215.109836 L92.7290523,215.109836 C93.6222995,215.109836 94.3464195,214.385716 94.3464195,213.492469 L94.3464195,211.33598 C94.3464195,210.442732 93.6222995,209.718612 92.7290523,209.718612 L50.6775053,209.718612 Z M50.6775053,218.344571 C49.7842581,218.344571 49.0601381,219.068691 49.0601381,219.961938 L49.0601381,222.118428 C49.0601381,223.011675 49.7842581,223.735795 50.6775053,223.735795 L92.7290523,223.735795 C93.6222995,223.735795 94.3464195,223.011675 94.3464195,222.118428 L94.3464195,219.961938 C94.3464195,219.068691 93.6222995,218.344571 92.7290523,218.344571 L50.6775053,218.344571 Z"></path>
			</g>
			<g id="Rectangle-5-Copy-15">
				<use fill="url(#linearGradient-4)" fill-rule="evenodd" xlink:href="#path-17"></use>
				<path stroke="url(#linearGradient-5)" stroke-width="1.07824479" d="M142.328313,97.5811539 C141.435066,97.5811539 140.710946,98.3052738 140.710946,99.1985211 L140.710946,101.355011 C140.710946,102.248258 141.435066,102.972378 142.328313,102.972378 L184.37986,102.972378 C185.273107,102.972378 185.997227,102.248258 185.997227,101.355011 L185.997227,99.1985211 C185.997227,98.3052738 185.273107,97.5811539 184.37986,97.5811539 L142.328313,97.5811539 Z M142.328313,106.207112 C141.435066,106.207112 140.710946,106.931232 140.710946,107.824479 L140.710946,109.980969 C140.710946,110.874216 141.435066,111.598336 142.328313,111.598336 L184.37986,111.598336 C185.273107,111.598336 185.997227,110.874216 185.997227,109.980969 L185.997227,107.824479 C185.997227,106.931232 185.273107,106.207112 184.37986,106.207112 L142.328313,106.207112 Z M142.328313,114.833071 C141.435066,114.833071 140.710946,115.557191 140.710946,116.450438 L140.710946,118.606927 C140.710946,119.500175 141.435066,120.224295 142.328313,120.224295 L184.37986,120.224295 C185.273107,120.224295 185.997227,119.500175 185.997227,118.606927 L185.997227,116.450438 C185.997227,115.557191 185.273107,114.833071 184.37986,114.833071 L142.328313,114.833071 Z M142.328313,123.459029 C141.435066,123.459029 140.710946,124.183149 140.710946,125.076396 L140.710946,127.232886 C140.710946,128.126133 141.435066,128.850253 142.328313,128.850253 L184.37986,128.850253 C185.273107,128.850253 185.997227,128.126133 185.997227,127.232886 L185.997227,125.076396 C185.997227,124.183149 185.273107,123.459029 184.37986,123.459029 L142.328313,123.459029 Z M142.328313,132.084987 C141.435066,132.084987 140.710946,132.809107 140.710946,133.702354 L140.710946,135.858844 C140.710946,136.752091 141.435066,137.476211 142.328313,137.476211 L184.37986,137.476211 C185.273107,137.476211 185.997227,136.752091 185.997227,135.858844 L185.997227,133.702354 C185.997227,132.809107 185.273107,132.084987 184.37986,132.084987 L142.328313,132.084987 Z M142.328313,140.710946 C141.435066,140.710946 140.710946,141.435066 140.710946,142.328313 L140.710946,144.484802 C140.710946,145.37805 141.435066,146.10217 142.328313,146.10217 L184.37986,146.10217 C185.273107,146.10217 185.997227,145.37805 185.997227,144.484802 L185.997227,142.328313 C185.997227,141.435066 185.273107,140.710946 184.37986,140.710946 L142.328313,140.710946 Z M142.328313,149.336904 C141.435066,149.336904 140.710946,150.061024 140.710946,150.954271 L140.710946,153.110761 C140.710946,154.004008 141.435066,154.728128 142.328313,154.728128 L184.37986,154.728128 C185.273107,154.728128 185.997227,154.004008 185.997227,153.110761 L185.997227,150.954271 C185.997227,150.061024 185.273107,149.336904 184.37986,149.336904 L142.328313,149.336904 Z M142.328313,157.962862 C141.435066,157.962862 140.710946,158.686982 140.710946,159.58023 L140.710946,161.736719 C140.710946,162.629966 141.435066,163.354086 142.328313,163.354086 L184.37986,163.354086 C185.273107,163.354086 185.997227,162.629966 185.997227,161.736719 L185.997227,159.58023 C185.997227,158.686982 185.273107,157.962862 184.37986,157.962862 L142.328313,157.962862 Z M142.328313,166.588821 C141.435066,166.588821 140.710946,167.312941 140.710946,168.206188 L140.710946,170.362677 C140.710946,171.255925 141.435066,171.980045 142.328313,171.980045 L184.37986,171.980045 C185.273107,171.980045 185.997227,171.255925 185.997227,170.362677 L185.997227,168.206188 C185.997227,167.312941 185.273107,166.588821 184.37986,166.588821 L142.328313,166.588821 Z M142.328313,175.214779 C141.435066,175.214779 140.710946,175.938899 140.710946,176.832146 L140.710946,178.988636 C140.710946,179.881883 141.435066,180.606003 142.328313,180.606003 L184.37986,180.606003 C185.273107,180.606003 185.997227,179.881883 185.997227,178.988636 L185.997227,176.832146 C185.997227,175.938899 185.273107,175.214779 184.37986,175.214779 L142.328313,175.214779 Z M142.328313,183.840737 C141.435066,183.840737 140.710946,184.564857 140.710946,185.458105 L140.710946,187.614594 C140.710946,188.507841 141.435066,189.231961 142.328313,189.231961 L184.37986,189.231961 C185.273107,189.231961 185.997227,188.507841 185.997227,187.614594 L185.997227,185.458105 C185.997227,184.564857 185.273107,183.840737 184.37986,183.840737 L142.328313,183.840737 Z M142.328313,192.466696 C141.435066,192.466696 140.710946,193.190816 140.710946,194.084063 L140.710946,196.240553 C140.710946,197.1338 141.435066,197.85792 142.328313,197.85792 L184.37986,197.85792 C185.273107,197.85792 185.997227,197.1338 185.997227,196.240553 L185.997227,194.084063 C185.997227,193.190816 185.273107,192.466696 184.37986,192.466696 L142.328313,192.466696 Z M142.328313,201.092654 C141.435066,201.092654 140.710946,201.816774 140.710946,202.710021 L140.710946,204.866511 C140.710946,205.759758 141.435066,206.483878 142.328313,206.483878 L184.37986,206.483878 C185.273107,206.483878 185.997227,205.759758 185.997227,204.866511 L185.997227,202.710021 C185.997227,201.816774 185.273107,201.092654 184.37986,201.092654 L142.328313,201.092654 Z M142.328313,209.718612 C141.435066,209.718612 140.710946,210.442732 140.710946,211.33598 L140.710946,213.492469 C140.710946,214.385716 141.435066,215.109836 142.328313,215.109836 L184.37986,215.109836 C185.273107,215.109836 185.997227,214.385716 185.997227,213.492469 L185.997227,211.33598 C185.997227,210.442732 185.273107,209.718612 184.37986,209.718612 L142.328313,209.718612 Z M142.328313,218.344571 C141.435066,218.344571 140.710946,219.068691 140.710946,219.961938 L140.710946,222.118428 C140.710946,223.011675 141.435066,223.735795 142.328313,223.735795 L184.37986,223.735795 C185.273107,223.735795 185.997227,223.011675 185.997227,222.118428 L185.997227,219.961938 C185.997227,219.068691 185.273107,218.344571 184.37986,218.344571 L142.328313,218.344571 Z"></path>
			</g>
			<g id="Group" transform="translate(50.677505, 224.274917)">
				<g id="Rectangle-35">
					<use fill="url(#linearGradient-4)" fill-rule="evenodd" xlink:href="#path-18"></use>
					<rect stroke="url(#linearGradient-5)" stroke-width="1.07824479" x="0.539122397" y="22.1040183" width="7.54771356" height="136.937089"></rect>
				</g>
				<g id="Rectangle-35-Copy-10">
					<use fill="url(#linearGradient-4)" fill-rule="evenodd" xlink:href="#path-19"></use>
					<rect stroke="url(#linearGradient-5)" stroke-width="1.07824479" x="17.7910391" y="0.539122397" width="5.39122397" height="16.1736719"></rect>
				</g>
				<g id="Rectangle-35-Copy-11">
					<use fill="url(#linearGradient-4)" fill-rule="evenodd" xlink:href="#path-20"></use>
					<rect stroke="url(#linearGradient-5)" stroke-width="1.07824479" x="113.754826" y="0.539122397" width="5.39122397" height="16.1736719"></rect>
				</g>
				<g id="Rectangle-35-Copy">
					<use fill="url(#linearGradient-4)" fill-rule="evenodd" xlink:href="#path-21"></use>
					<rect stroke="url(#linearGradient-5)" stroke-width="1.07824479" x="14.5563047" y="22.1040183" width="7.54771356" height="136.937089"></rect>
				</g>
				<g id="Rectangle-35-Copy-2">
					<use fill="url(#linearGradient-4)" fill-rule="evenodd" xlink:href="#path-22"></use>
					<rect stroke="url(#linearGradient-5)" stroke-width="1.07824479" x="28.573487" y="22.1040183" width="7.54771356" height="136.937089"></rect>
				</g>
				<g id="Rectangle-35-Copy-3">
					<use fill="url(#linearGradient-4)" fill-rule="evenodd" xlink:href="#path-23"></use>
					<rect stroke="url(#linearGradient-5)" stroke-width="1.07824479" x="42.5906694" y="22.1040183" width="7.54771356" height="136.937089"></rect>
				</g>
				<g id="Rectangle-35-Copy-4">
					<use fill="url(#linearGradient-4)" fill-rule="evenodd" xlink:href="#path-24"></use>
					<rect stroke="url(#linearGradient-5)" stroke-width="1.07824479" x="56.6078517" y="22.1040183" width="7.54771356" height="136.937089"></rect>
				</g>
				<g id="Rectangle-35-Copy-5">
					<use fill="url(#linearGradient-4)" fill-rule="evenodd" xlink:href="#path-25"></use>
					<rect stroke="url(#linearGradient-5)" stroke-width="1.07824479" x="70.625034" y="22.1040183" width="7.54771356" height="136.937089"></rect>
				</g>
				<g id="Rectangle-35-Copy-6">
					<use fill="url(#linearGradient-4)" fill-rule="evenodd" xlink:href="#path-26"></use>
					<rect stroke="url(#linearGradient-5)" stroke-width="1.07824479" x="84.6422163" y="22.1040183" width="7.54771356" height="136.937089"></rect>
				</g>
				<g id="Rectangle-35-Copy-7">
					<use fill="url(#linearGradient-4)" fill-rule="evenodd" xlink:href="#path-27"></use>
					<rect stroke="url(#linearGradient-5)" stroke-width="1.07824479" x="98.6593987" y="22.1040183" width="7.54771356" height="136.937089"></rect>
				</g>
				<g id="Rectangle-35-Copy-8">
					<use fill="url(#linearGradient-4)" fill-rule="evenodd" xlink:href="#path-28"></use>
					<rect stroke="url(#linearGradient-5)" stroke-width="1.07824479" x="112.676581" y="22.1040183" width="7.54771356" height="136.937089"></rect>
				</g>
				<g id="Rectangle-35-Copy-9">
					<use fill="url(#linearGradient-4)" fill-rule="evenodd" xlink:href="#path-29"></use>
					<rect stroke="url(#linearGradient-5)" stroke-width="1.07824479" x="126.693763" y="22.1040183" width="7.54771356" height="136.937089"></rect>
				</g>
				<g id="Rectangle-45">
					<use fill="url(#linearGradient-30)" fill-rule="evenodd" xlink:href="#path-31"></use>
					<rect stroke="url(#linearGradient-5)" stroke-width="1.07824479" x="0.539122397" y="14.5563047" width="134.780599" height="7.54771356"></rect>
				</g>
				<g id="Rectangle-45-Copy">
					<use fill="url(#linearGradient-30)" fill-rule="evenodd" xlink:href="#path-32"></use>
					<rect stroke="url(#linearGradient-5)" stroke-width="1.07824479" x="0.539122397" y="159.041107" width="134.780599" height="7.54771356"></rect>
				</g>
			</g>
			<g id="Rectangle-49">
				<use fill="#FFFFFF" fill-rule="evenodd" xlink:href="#path-33"></use>
				<rect stroke="#6D727F" stroke-width="2.15648959" x="100.276766" y="83.0248491" width="33.4255886" height="7.54771356"></rect>
			</g>
			<g id="Group-2" transform="translate(104.589745, 66.851177)" stroke="#6D727F" stroke-width="2.15648959">
				<path d="M0.195859704,0.339989836 L0.195859704,5.23040778 L8.09900716,12.4295197 L8.09900716,15.8368922" id="Path-2"></path>
				<path d="M10.7824479,0 L10.7824479,4.89041794 L18.6855954,12.0895299 L18.6855954,15.4969023" id="Path-2-Copy"></path>
			</g>
		</g>
		<g id="进水口" transform="translate(287.822657, 525.750646)">
			<g id="Rectangle-54">
				<use fill="#FFFFFF" fill-rule="evenodd" xlink:href="#path-34"></use>
				<path stroke="#6D727F" stroke-width="2.15648959" d="M43.6555232,17.2519167 L16.7261852,17.2519167 L1.8627549,43.1297918 L58.5189536,43.1297918 L43.6555232,17.2519167 Z"></path>
			</g>
			<g id="Rectangle-54-Copy">
				<use fill="#FFFFFF" fill-rule="evenodd" xlink:href="#path-35"></use>
				<rect stroke="#6D727F" stroke-width="2.15648959" x="1.07824479" y="43.1297918" width="58.2252189" height="25.8778751"></rect>
			</g>
			<path d="M15.5555976,42.8870898 L7.35907384,60.0311282" id="Path-5" stroke="#6D727F" stroke-width="2.15648959"></path>
			<path d="M23.2919509,43.1297918 L15.0954271,60.2738301" id="Path-5-Copy" stroke="#6D727F" stroke-width="2.15648959"></path>
			<path d="M35.1526436,43.1297918 L26.9561199,60.2738301" id="Path-5-Copy-2" stroke="#6D727F" stroke-width="2.15648959"></path>
			<path d="M42.7003571,43.1297918 L34.5038334,60.2738301" id="Path-5-Copy-3" stroke="#6D727F" stroke-width="2.15648959"></path>
			<path d="M49.1698259,43.1297918 L40.9733022,60.2738301" id="Path-5-Copy-4" stroke="#6D727F" stroke-width="2.15648959"></path>
			<circle id="Oval-1" stroke="#6D727F" stroke-width="2.15648959" fill="#FFFFFF" cx="30.1908542" cy="9.70420315" r="9.70420315"></circle>
		</g>
		<g id="保温储水箱" transform="translate(403.194850, 359.700948)">
			<path d="M0.0327300254,29.1126029 C1.01618717,12.938054 24.0383967,0 52.2948725,0 C80.5513483,0 103.573558,12.938054 104.557015,29.1126029 L104.589745,29.1126094 L104.589745,211.33598 L104.458395,211.33598 C102.543108,227.003471 79.9205842,239.370344 52.2948725,239.370344 C24.6691609,239.370344 2.04663658,227.003471 0.131349969,211.33598 L0,211.33598 L0,29.1126094 L0.0327296272,29.1126094 Z" id="Oval-2" stroke="#6D727F" stroke-width="2.15648959" fill="#FFFFFF"></path>
			<g id="Oval-4">
				<use fill="url(#linearGradient-36)" fill-rule="evenodd" xlink:href="#path-37"></use>
				<path stroke="#6D727F" stroke-width="2.15648959" d="M7.54771356,29.7016142 L7.54771356,210.257735 C7.54771356,221.960892 27.5059949,231.822631 52.2948725,231.822631 C77.0837502,231.822631 97.0420315,221.960892 97.0420315,210.257735 L97.0420315,29.7016142 L96.9958108,29.2144534 C95.922508,17.9019644 76.3028046,8.62595835 52.2948725,8.62595835 C28.2869404,8.62595835 8.66723698,17.9019644 7.59393424,29.2144534 L7.54771356,29.7016142 Z"></path>
			</g>
			<g id="Oval-4-Copy-2">
				<use fill-opacity="0" fill="#FFFFFF" fill-rule="evenodd" xlink:href="#path-38"></use>
				<ellipse stroke="#6D727F" stroke-width="2.15648959" cx="52.2948725" cy="30.1908542" rx="44.747159" ry="21.5648959"></ellipse>
			</g>
			<path d="M27.916542,72.9281158 L48.5376172,49.5738651" id="Line" stroke="#FFF57E" stroke-width="1.07824479" stroke-linecap="square"></path>
			<path id="Line-decoration-1" d="M48.5376172,49.5738651 L39.1404742,55.6839963 L43.6381268,59.6552834 L48.5376172,49.5738651 Z" stroke="#FFF57E" stroke-width="1.07824479" stroke-linecap="square"></path>
			<path d="M35.9191128,79.5855946 L64.2564319,66.6377718" id="Line-Copy-2" stroke="#FFF57E" stroke-width="1.07824479" stroke-linecap="square"></path>
			<path id="Line-Copy-2-decoration-1" d="M64.2564319,66.6377718 L53.1865003,68.3974921 L55.6800425,73.8548034 L64.2564319,66.6377718 Z" stroke="#FFF57E" stroke-width="1.07824479" stroke-linecap="square"></path>
			<path d="M48.9593113,155.26725 L21.5648959,170.106245" id="Line-Copy-3" stroke="#9ADCFA" stroke-width="1.07824479" stroke-linecap="square"></path>
			<path id="Line-Copy-3-decoration-1" d="M21.5648959,170.106245 L32.4900736,167.600154 L29.6323221,162.324431 L21.5648959,170.106245 Z" stroke="#9ADCFA" stroke-width="1.07824479" stroke-linecap="square"></path>
			<path d="M56.8926247,177.910391 L25.8778751,180.865907" id="Line-Copy-4" stroke="#9ADCFA" stroke-width="1.07824479" stroke-linecap="square"></path>
			<path id="Line-Copy-4-decoration-1" d="M25.8778751,180.865907 L36.9137619,182.827845 L36.3445771,176.854904 L25.8778751,180.865907 Z" stroke="#9ADCFA" stroke-width="1.07824479" stroke-linecap="square"></path>
			<path d="M58.8006258,197.634888 L28.2769639,191.393427" id="Line-Copy-5" stroke="#9ADCFA" stroke-width="1.07824479" stroke-linecap="square"></path>
			<path id="Line-Copy-5-decoration-1" d="M28.2769639,191.393427 L38.2570199,196.496218 L39.4590248,190.617853 L28.2769639,191.393427 Z" stroke="#9ADCFA" stroke-width="1.07824479" stroke-linecap="square"></path>
			<path d="M19.6412179,66.5822048 L32.5331281,38.2194049" id="Line-Copy" stroke="#FFF57E" stroke-width="1.07824479" stroke-linecap="square"></path>
			<path id="Line-Copy-decoration-1" d="M32.5331281,38.2194049 L25.3330251,46.8100111 L30.7952436,49.2927854 L32.5331281,38.2194049 Z" stroke="#FFF57E" stroke-width="1.07824479" stroke-linecap="square"></path>
		</g>
		
		<!--说明文字 -->
        <g id="Text" transform="translate(285.562914, 155.761589)" fill="#000000">
                    
                    <text id="保湿储水箱" font-family="PingFangSC-Medium, PingFang SC" font-size="22.2516556" font-weight="400">
                        <tspan x="114.039735" y="475.523179">保湿储水箱</tspan>
                    </text>
                    <text id="进水口" font-family="PingFangSC-Medium, PingFang SC" font-size="22.2516556" font-weight="400">
                        <tspan x="0" y="355.92053">进水口</tspan>
                    </text>
                    
        </g>
		
	</g>

</svg>