<?xml version="1.0" encoding="UTF-8"?>
<svg width="180px" height="102px" viewBox="0 0 180 102" version="1.1" xmlns="http://www.w3.org/2000/svg" xmlns:xlink="http://www.w3.org/1999/xlink">
    <!-- Generator: Sketch 40.1 (33804) - http://www.bohemiancoding.com/sketch -->
    <title>火</title>
    <desc>Created with Sketch.</desc>
    <defs></defs>
    <g id="锅锅大作战" stroke="none" stroke-width="1" fill="none" fill-rule="evenodd">
        <g id="TYPE1" transform="translate(-214.000000, -310.000000)" stroke-width="2">
            <g id="火" transform="translate(215.000000, 315.000000)">
                <path d="M111.984856,0 C107.420932,9.54796325 104.431631,13.527362 104.431631,23.4509843 C104.431631,33.3746065 113.681999,39.6251198 113.681999,48.0530126 C117.622724,41.0949203 121.115081,35.0342587 119.666296,27.0960641 C118.217511,19.1578695 113.914946,16.2189641 112.949901,11.513214 C111.984856,6.80746383 111.984856,5.45675834 111.984856,0 Z" id="Path-8" stroke="#F88708" fill-opacity="0.800000012" fill="#FFEF1C"></path>
                <path d="M127.470502,32.9186663 C124.523739,39.0834456 122.593654,41.6528014 122.593654,48.0601304 C122.593654,54.4674593 128.566287,58.5031928 128.566287,63.9447826 C131.110672,59.4521905 133.365563,55.5390375 132.430134,50.4136284 C131.494705,45.2882193 128.716692,43.3906729 128.093597,40.3523379 C127.470501,37.3140029 127.470501,36.4419005 127.470502,32.9186663 Z" id="Path-8-Copy" stroke="#F88708" fill-opacity="0.800000012" fill="#FFEF1C" transform="translate(127.619847, 48.431724) scale(-1, 1) translate(-127.619847, -48.431724) "></path>
                <path d="M44.4175762,43.5378779 C41.4708137,49.7026572 39.5407285,52.272013 39.5407284,58.679342 C39.5407283,65.0866709 45.5133612,69.1224044 45.5133613,74.5639942 C48.0577469,70.0714021 50.3126373,66.1582491 49.3772085,61.03284 C48.4417796,55.9074309 45.6637667,54.0098845 45.0406714,50.9715495 C44.4175761,47.9332145 44.4175761,47.0611121 44.4175762,43.5378779 Z" id="Path-8-Copy-7" stroke="#F88708" fill-opacity="0.800000012" fill="#FFEF1C" transform="translate(44.566921, 59.050936) scale(1, -1) rotate(-9.000000) translate(-44.566921, -59.050936) "></path>
                <path d="M60.0373237,60.2011455 C57.0884732,64.3578056 55.6211948,68.669251 55.6211948,74.2487692 C55.6211947,79.8282875 60.3912616,97.4925382 86.2525413,95.6242436 C112.113821,93.7559491 111.471285,80.7820174 112.124389,77.3206747 C113.460647,70.2387341 109.155677,61.9532963 107.396227,59.1223246 C108.516847,63.9593361 108.101975,67.3589255 107.011905,70.0276122 C105.921835,72.6962988 103.938358,74.8689902 100.796778,74.2487691 C97.6551973,73.6285479 96.2136729,69.2633353 96.8324923,64.3578042 C97.4513117,59.4522731 100.283581,54.3071349 99.633543,49.2529311 C98.9835056,44.1987272 94.9241256,40.2430637 89.8316709,37.5010522 C90.7202078,40.2430637 90.4113646,43.0026331 89.5359211,45.458749 C88.6604776,47.914865 85.4180032,50.3078261 82.5013188,49.8980888 C79.5846345,49.4883516 76.8867685,47.584376 76.8867696,42.5152564 C76.8867706,37.4461368 79.0105887,32.371015 81.0714086,29.513287 C77.4019318,31.1441121 71.2260844,34.5318941 67.942632,39.7371211 C64.6591796,44.942348 63.840418,50.9375965 65.8915248,56.6775121 C67.9426316,62.4174277 68.6223474,68.109091 66.5205172,69.4828351 C64.418687,70.8565792 61.2524265,69.6801088 60.6448751,68.0119663 C60.0373237,66.3438237 59.4197617,63.9292798 60.0373237,60.2011455 Z" id="Path-19-Copy" stroke="#F67F23" fill-opacity="0.8" fill="#F8E81C"></path>
                <path d="M2.99429282,74.2152875 C1.20755361,76.7338511 0.318514414,79.3462007 0.318514361,82.7268889 C0.318514308,86.107577 3.2087475,96.8105303 18.8783659,95.6785112 C34.5479843,94.5464922 34.1586651,86.6854519 34.5543878,84.5881884 C35.3640402,80.2971669 32.7556139,75.2769339 31.6895451,73.5616187 C32.3685406,76.4924143 32.1171654,78.5522609 31.4566806,80.1692459 C30.7961958,81.7862309 29.5943863,83.1026873 27.6908701,82.7268888 C25.7873539,82.3510904 24.9139192,79.7061626 25.2888683,76.7338503 C25.6638175,73.7615379 27.3799186,70.6440452 26.9860541,67.5816505 C26.5921897,64.5192558 24.1325691,62.1224781 21.0469978,60.4610648 C21.5853716,62.1224781 21.3982402,63.7945299 20.8677999,65.2827161 C20.3373596,66.7709023 18.3727106,68.2208224 16.6054612,67.9725583 C14.8382118,67.7242942 13.2035468,66.5706556 13.2035474,63.4992233 C13.203548,60.427791 14.4903915,57.3527219 15.7390637,55.6211948 C13.5156895,56.6093287 9.77367934,58.662021 7.78420136,61.8159222 C5.79472339,64.9698234 5.29862723,68.6024068 6.54141419,72.0802814 C7.78420114,75.558156 8.196048,79.006794 6.92252722,79.8391598 C5.64900644,80.6715257 3.73053625,79.95869 3.36241453,78.9479451 C2.99429282,77.9372002 2.62010561,76.4742029 2.99429282,74.2152875 Z" id="Path-19-Copy-2" stroke="#F67F23" fill-opacity="0.8" fill="#F8E81C"></path>
                <path d="M135.432088,66.9035612 C133.03903,70.2767839 131.848301,73.7756183 131.848301,78.3035221 C131.848301,82.831426 135.719317,97.1663605 156.706323,95.6501977 C177.69333,94.1340349 177.171898,83.6053991 177.701907,80.7964421 C178.78631,75.0492889 175.29273,68.3254708 173.864897,66.028074 C174.774306,69.953417 174.437628,72.7122598 173.553012,74.8779587 C172.668396,77.0436577 171.058759,78.8068453 168.509297,78.303522 C165.959834,77.8001987 164.790005,74.257731 165.29219,70.2767828 C165.794376,66.2958346 168.092826,62.1204398 167.565306,58.0188403 C167.037786,53.9172409 163.743508,50.7071314 159.610867,48.4819278 C160.331935,50.7071314 160.081302,52.9465837 159.37086,54.9397767 C158.660418,56.9329698 156.029077,58.8749113 153.662123,58.5424003 C151.295168,58.2098893 149.105789,56.6647706 149.10579,52.5510667 C149.105791,48.4373627 150.829317,44.3187878 152.501718,41.9996777 C149.523856,43.3231287 144.512018,46.0723896 141.847422,50.2965477 C139.182827,54.5207058 138.518384,59.385984 140.182903,64.0440539 C141.847422,68.7021238 142.399027,73.3210359 140.693345,74.43586 C138.987662,75.550684 136.418171,74.595952 135.92513,73.242217 C135.432088,71.888482 134.930923,69.9290257 135.432088,66.9035612 Z" id="Path-19-Copy-3" stroke="#F67F23" fill-opacity="0.8" fill="#F8E81C" transform="translate(154.877813, 68.880813) scale(-1, 1) translate(-154.877813, -68.880813) "></path>
            </g>
        </g>
    </g>
</svg>