<?xml version="1.0" encoding="UTF-8"?>
<svg width="396px" height="79px" viewBox="0 0 396 79" version="1.1" xmlns="http://www.w3.org/2000/svg" xmlns:xlink="http://www.w3.org/1999/xlink">
    <!-- Generator: Sketch 40.1 (33804) - http://www.bohemiancoding.com/sketch -->
    <title>蒸汽</title>
    <desc>Created with Sketch.</desc>
    <defs></defs>
    <g id="锅锅大作战" stroke="none" stroke-width="1" fill="none" fill-rule="evenodd">
        <g id="TYPE1" transform="translate(-319.000000, -133.000000)" fill="#FFFFFF">
            <g id="蒸汽" transform="translate(319.000000, 133.000000)">
                <path d="M334.839116,41.9996777 L376.300835,41.9996777 C381.633106,41.9996777 385.942984,37.6798637 385.942984,32.3511031 C385.942984,27.0211708 381.626047,22.7025285 376.300835,22.7025285 L246.883572,22.7025285 C241.551301,22.7025285 237.241423,27.0223425 237.241423,32.3511031 C237.241423,37.6810353 241.55836,41.9996777 246.883572,41.9996777 L263.375085,41.9996777 C261.277566,43.7695843 259.943951,46.4181506 259.943951,49.3779994 C259.943951,54.7079317 264.261391,59.026574 269.587223,59.026574 L328.624402,59.026574 C333.945085,59.026574 338.267674,54.70676 338.267674,49.3779994 C338.267674,46.4177149 336.935841,43.7693906 334.839116,41.9996777 Z M199.782251,68.6751486 C199.782251,63.346388 204.092129,59.026574 209.4244,59.026574 L338.841663,59.026574 C344.166875,59.026574 348.483812,63.3452164 348.483812,68.6751486 C348.483812,74.0039092 344.173934,78.3237232 338.841663,78.3237232 L209.4244,78.3237232 C204.099188,78.3237232 199.782251,74.0050809 199.782251,68.6751486 Z" id="Rectangle-147" fill-opacity="0.651494565"></path>
                <ellipse id="Oval-4" fill-opacity="0.70983356" cx="385.942984" cy="61.2968269" rx="9.08101139" ry="9.08101139"></ellipse>
                <ellipse id="Oval-4-Copy-2" fill-opacity="0.70983356" cx="219.0794" cy="14.7566435" rx="9.08101139" ry="9.08101139"></ellipse>
                <rect id="Rectangle-150" fill-opacity="0.606006567" x="87.4047346" y="0" width="88.539861" height="18.1620228" rx="9.08101139"></rect>
                <rect id="Rectangle-151" fill-opacity="0.606006567" x="0" y="22.7025285" width="144.161056" height="17.0268964" rx="8.51344818"></rect>
            </g>
        </g>
    </g>
</svg>